<?xml version="1.0" standalone="no"?>
<!DOCTYPE svg PUBLIC "-//W3C//DTD SVG 20010904//EN"
 "http://www.w3.org/TR/2001/REC-SVG-20010904/DTD/svg10.dtd">
<svg version="1.0" xmlns="http://www.w3.org/2000/svg"
 width="832.000000pt" height="1291.000000pt" viewBox="0 0 832.000000 1291.000000"
 preserveAspectRatio="xMidYMid meet">

<g transform="translate(0.000000,1291.000000) scale(0.100000,-0.100000)"
fill="currentColor" stroke="none">
<path d="M1107 12818 c-4 -51 -13 -257 -22 -458 -9 -201 -19 -383 -23 -405 -6
-36 -15 -45 -77 -87 -451 -300 -648 -429 -654 -426 -6 2 -290 304 -327 347 -2
2 -4 -7 -4 -21 0 -26 51 -88 247 -297 l78 -84 388 256 c213 141 387 262 387
269 0 6 9 203 20 437 11 234 21 456 23 494 2 57 0 67 -14 67 -13 0 -17 -16
-22 -92z"/>
<path d="M1319 12908 c-6 -18 -44 -875 -39 -881 4 -4 308 191 677 435 564 373
665 443 641 446 -23 3 -140 -70 -644 -403 -338 -223 -622 -409 -630 -412 -12
-4 -14 4 -9 48 6 62 35 656 35 723 0 34 -4 46 -15 46 -8 0 -15 -1 -16 -2z"/>
<path d="M3067 12903 c-5 -9 -85 -279 -170 -572 -50 -170 -56 -186 -80 -194
-32 -10 -35 -27 -6 -34 11 -3 18 -11 16 -17 -2 -6 -17 -55 -32 -108 -25 -88
-32 -102 -74 -141 -50 -47 -138 -103 -148 -94 -3 3 25 108 62 234 37 125 82
280 100 343 19 63 61 207 94 320 33 113 57 208 53 212 -4 4 -149 -86 -322
-201 -173 -115 -537 -356 -807 -535 l-493 -325 0 -38 c0 -21 -14 -320 -31
-665 l-31 -627 67 -73 c168 -181 546 -590 607 -657 58 -65 67 -71 76 -55 16
32 129 409 503 1679 44 149 82 277 85 286 3 11 21 19 49 22 25 4 56 9 70 13
l26 6 -35 -63 c-19 -35 -42 -94 -51 -131 -8 -37 -38 -113 -66 -171 -47 -98
-51 -110 -58 -209 -8 -120 -24 -155 -97 -215 -52 -42 -43 -59 19 -37 22 8 42
14 44 14 3 0 -11 -21 -30 -47 -49 -68 -63 -99 -86 -189 -11 -44 -30 -103 -42
-132 -25 -60 -21 -72 16 -48 14 9 25 14 25 11 0 -3 -21 -37 -47 -76 -43 -64
-48 -78 -51 -139 -2 -38 1 -84 8 -104 11 -33 6 -53 -55 -254 -36 -119 -75
-244 -86 -276 -10 -33 -19 -69 -19 -81 0 -22 140 -188 163 -193 7 -1 26 11 42
28 16 16 31 30 34 30 3 0 4 -41 2 -91 -3 -85 12 -286 25 -327 3 -9 -21 11 -55
45 l-60 62 -193 -173 c-106 -95 -205 -186 -220 -202 -19 -20 -51 -96 -103
-239 -41 -116 -92 -254 -112 -308 -19 -54 -34 -100 -31 -102 5 -5 245 -40 463
-67 55 -7 100 -18 100 -24 0 -5 -21 -34 -47 -64 l-47 -54 -252 33 c-139 18
-258 35 -264 37 -7 3 -23 -24 -38 -63 -115 -302 -263 -685 -360 -928 l-115
-290 -11 -240 c-7 -132 -16 -314 -22 -404 -5 -91 -6 -168 -2 -171 5 -4 123
-13 263 -20 140 -6 282 -15 314 -18 l60 -7 18 -74 c12 -44 15 -78 10 -83 -6
-6 -143 -2 -343 10 -184 10 -335 18 -336 18 -1 -1 -8 -121 -53 -946 -11 -195
-22 -385 -25 -421 l-5 -65 135 -215 c134 -213 135 -214 129 -261 -5 -39 -3
-49 10 -54 9 -3 23 -1 31 6 22 18 49 -42 52 -120 8 -223 6 -215 45 -258 42
-47 73 -130 64 -175 -8 -39 -53 -110 -68 -105 -5 2 -51 56 -101 120 -51 64
-146 185 -212 269 l-120 152 -7 -124 c-5 -68 -24 -412 -43 -764 -19 -352 -44
-795 -55 -985 -11 -190 -20 -351 -20 -357 0 -9 -21 -13 -73 -13 l-73 0 3 37
c2 21 21 387 43 813 22 426 47 894 55 1040 31 562 31 523 4 561 -13 19 -111
145 -219 280 -107 135 -235 297 -284 359 l-88 112 -36 -63 c-24 -43 -36 -79
-39 -113 l-4 -51 41 79 c24 44 45 75 50 70 13 -13 323 -406 454 -574 l113
-145 -8 -140 c-5 -77 -15 -270 -24 -430 -9 -159 -20 -360 -25 -445 -39 -688
-72 -1399 -67 -1413 5 -14 22 -17 106 -17 96 0 101 1 105 23 3 12 10 112 16
222 6 110 19 353 30 540 10 187 31 567 45 845 15 278 29 513 33 522 6 14 17 6
57 -45 59 -74 248 -316 289 -370 l29 -38 -40 -42 c-72 -74 -122 -176 -103
-208 7 -10 12 -10 26 2 19 15 19 26 -2 -139 -5 -41 -4 -50 11 -56 28 -10 63
30 85 98 16 52 19 56 19 29 1 -18 -13 -75 -29 -126 -36 -112 -36 -116 -9 -195
15 -45 26 -62 38 -62 15 0 19 12 25 61 3 34 22 101 41 149 19 48 35 96 35 106
1 11 11 32 24 47 l23 29 30 -37 c22 -26 44 -81 81 -203 95 -309 95 -311 77
-387 -22 -95 -19 -154 11 -238 14 -39 28 -79 31 -88 2 -9 -7 -33 -22 -55 -22
-32 -26 -46 -21 -82 3 -23 0 -62 -6 -87 -16 -59 1 -114 53 -170 l40 -44 -17
-55 c-13 -42 -26 -61 -58 -84 -23 -17 -64 -47 -91 -69 -45 -34 -110 -80 -154
-108 -66 -43 -88 -55 -98 -55 -7 0 -29 -11 -49 -25 -20 -14 -47 -25 -60 -25
-12 0 -35 -10 -51 -23 -19 -16 -62 -30 -137 -46 -135 -28 -185 -51 -236 -108
-58 -66 -75 -147 -46 -217 25 -59 149 -97 388 -117 170 -14 369 0 523 36 244
58 343 74 515 84 235 14 355 51 381 119 18 46 -5 264 -43 407 -12 46 -20 104
-19 137 1 35 -4 68 -13 87 -14 26 -14 33 -1 65 22 51 19 78 -14 126 -28 41
-31 75 -7 67 6 -2 39 -45 74 -95 l63 -92 199 0 199 0 24 43 c24 41 246 458
507 952 73 138 176 333 230 435 54 102 214 403 355 670 141 267 259 488 263
492 4 4 44 -66 90 -155 82 -161 83 -163 78 -225 -2 -39 -11 -72 -22 -89 -11
-14 -23 -32 -29 -40 -7 -10 -5 -18 9 -29 28 -20 69 -17 100 7 15 12 28 20 30
18 2 -2 13 -60 26 -129 12 -69 34 -154 47 -190 13 -36 37 -107 53 -159 27 -90
39 -111 69 -111 11 0 13 24 9 133 -3 72 -11 146 -17 162 -11 28 -10 29 5 10
31 -38 103 -196 139 -306 20 -60 48 -123 62 -139 32 -39 78 -71 103 -73 29 -2
42 -21 73 -102 17 -43 46 -92 76 -127 29 -34 56 -79 67 -110 9 -29 45 -122 80
-206 l63 -153 -37 -42 c-118 -134 -324 -356 -411 -442 -56 -55 -101 -105 -101
-112 0 -19 41 -25 132 -21 58 2 94 9 120 23 20 11 108 84 195 162 l158 142 34
-35 c18 -19 56 -47 82 -62 27 -15 52 -36 56 -47 3 -11 6 -63 4 -115 -2 -116
11 -141 107 -208 46 -33 62 -49 62 -67 0 -13 5 -27 10 -30 6 -3 10 -33 10 -66
0 -64 10 -93 43 -120 20 -15 20 -20 8 -75 -7 -33 -42 -147 -78 -254 -61 -185
-64 -199 -59 -265 3 -44 12 -78 24 -95 77 -106 468 -134 686 -49 143 57 196
124 196 253 0 147 -55 442 -106 565 l-35 84 25 48 c14 25 26 57 26 70 0 12 5
38 12 56 11 30 9 39 -22 99 -27 54 -35 82 -40 153 -8 104 -28 147 -84 185 -24
16 -49 38 -55 48 -7 11 -32 107 -56 215 -40 174 -49 203 -85 258 -36 55 -40
68 -40 123 l0 61 258 233 c232 211 657 593 769 692 l44 39 68 -74 c69 -75 162
-178 696 -767 262 -288 300 -327 303 -305 3 20 -9 39 -50 82 -30 31 -110 119
-178 196 -69 77 -168 187 -221 245 -53 58 -209 230 -348 382 -138 152 -256
280 -262 283 -12 8 -15 5 -612 -533 l-470 -423 -39 72 c-32 59 -37 74 -26 84
7 7 87 79 178 161 91 81 284 257 430 389 146 133 297 271 337 306 39 35 71 69
70 76 -2 11 -236 272 -897 997 -140 153 -277 305 -305 336 -27 31 -164 181
-304 333 -241 263 -256 277 -290 278 -61 1 -136 10 -143 17 -4 4 -11 38 -16
76 -8 63 -7 69 10 74 23 6 23 15 -2 37 -10 9 -24 34 -31 54 -6 20 -33 88 -59
151 -42 101 -56 142 -76 225 -3 12 20 -7 55 -45 33 -35 62 -62 64 -60 2 3 71
133 152 290 306 590 405 780 489 942 63 120 84 169 74 173 -7 2 -94 14 -193
25 -99 12 -357 43 -574 70 -217 28 -398 50 -401 50 -7 0 -40 110 -40 133 0 11
26 10 142 -5 141 -19 142 -19 187 -60 60 -52 81 -62 174 -83 91 -20 136 -12
214 37 l47 30 264 -32 c145 -17 265 -30 266 -28 5 5 126 238 241 463 59 116
178 345 263 510 85 165 197 383 250 485 52 102 125 244 162 315 123 235 260
513 260 525 0 6 -37 52 -82 101 -84 90 -101 124 -63 124 16 0 25 -13 40 -60
16 -48 26 -62 48 -69 47 -17 62 1 65 78 2 36 6 66 10 66 3 0 23 -16 43 -36
l36 -36 137 269 c75 147 259 511 410 808 150 297 339 669 420 826 115 225 146
295 146 325 -1 47 10 68 -452 -843 -176 -348 -325 -633 -329 -633 -5 0 -9 17
-9 38 0 46 -13 65 -65 96 -24 14 -68 62 -110 118 -67 89 -72 93 -112 96 -79 6
-155 -54 -183 -143 -18 -56 -35 -72 -99 -92 -65 -21 -125 -75 -136 -123 -4
-17 -12 -29 -18 -27 -6 2 -29 36 -51 77 -56 101 -84 113 -122 55 -16 -25 -15
-28 30 -121 25 -53 46 -101 46 -107 0 -7 -10 -18 -21 -26 -26 -16 20 -63 -420
424 -189 209 -387 427 -440 485 -53 58 -151 165 -217 237 -67 73 -122 137
-122 141 0 5 104 102 232 218 128 115 293 265 368 334 75 69 236 215 358 325
191 173 218 200 196 203 -18 3 -39 -10 -82 -49 -31 -29 -190 -172 -352 -319
-526 -476 -763 -695 -767 -706 -2 -7 27 -45 64 -86 37 -41 151 -166 253 -278
176 -194 427 -470 604 -665 45 -49 124 -137 175 -194 l93 -103 -30 -18 c-28
-17 -65 -58 -76 -83 -10 -24 -46 34 -46 74 0 26 -7 46 -21 60 -20 20 -32 20
-70 5 -12 -5 -41 20 -110 96 -51 57 -186 204 -299 328 -617 677 -667 730 -680
730 -4 0 -138 -118 -297 -262 -390 -355 -427 -388 -434 -388 -13 0 -27 56 -33
125 l-6 70 278 251 c152 139 299 271 326 296 l48 43 -48 57 c-27 31 -170 188
-318 350 -441 480 -551 601 -582 636 -21 24 -37 33 -52 30 -27 -4 -103 82 852
-961 82 -91 97 -111 85 -121 -66 -60 -440 -397 -508 -458 -47 -42 -87 -75 -90
-72 -3 2 -10 37 -16 77 -7 39 -16 86 -19 102 -6 22 -5 26 3 15 32 -46 23 108
-11 178 -11 24 -65 88 -120 144 -95 95 -114 123 -70 99 26 -14 102 -14 102 -1
0 6 -5 10 -12 10 -20 0 -113 76 -157 129 -24 28 -36 48 -27 45 37 -14 3 82
-47 134 -32 34 -134 92 -161 92 -8 0 -29 18 -46 40 -21 27 -45 44 -73 52 -23
7 -48 20 -55 30 -19 26 -105 24 -157 -2 l-40 -21 -54 28 c-37 18 -75 29 -118
31 -102 7 -155 -17 -75 -34 35 -7 33 -8 -35 -15 -92 -11 -141 -34 -231 -113
-65 -57 -174 -126 -199 -126 -6 0 21 105 59 233 130 438 138 466 138 477 0 12
-27 14 -33 3z m-389 -651 l-153 -521 -32 -6 c-39 -7 -43 -27 -9 -43 l24 -11
-45 -148 c-24 -81 -93 -317 -154 -523 -190 -645 -375 -1260 -382 -1267 -2 -2
-42 38 -88 89 -46 51 -174 189 -284 307 -110 118 -227 244 -260 280 l-60 66 7
140 c4 77 19 367 33 645 18 346 30 509 38 517 12 11 257 174 592 395 88 58
331 218 539 356 209 139 381 250 383 248 2 -1 -65 -237 -149 -524z m845 177
c12 -6 38 -27 58 -46 l36 -34 16 24 c18 29 93 60 128 55 20 -2 14 -8 -36 -33
l-60 -30 70 -6 c89 -8 226 -65 290 -121 26 -23 69 -74 96 -115 28 -41 69 -94
93 -118 23 -25 37 -45 30 -45 -6 0 -28 18 -48 40 -20 22 -36 38 -36 35 0 -3
16 -38 36 -77 27 -53 63 -100 142 -181 l107 -110 -90 68 c-49 38 -82 58 -72
45 90 -126 151 -242 172 -331 8 -35 15 -68 15 -73 0 -15 -108 142 -166 241
-31 52 -58 92 -61 89 -11 -10 59 -138 147 -270 74 -112 104 -171 127 -256 2
-8 -12 17 -31 55 -19 39 -51 88 -70 110 l-36 40 6 -50 c12 -102 51 -190 109
-245 20 -19 41 -44 47 -55 6 -11 -24 14 -66 55 -42 41 -76 72 -76 68 0 -4 26
-60 57 -124 40 -84 70 -132 103 -165 26 -26 40 -45 31 -42 -28 11 -75 46 -103
77 -36 41 -36 17 1 -59 30 -63 79 -117 121 -134 24 -9 24 -10 3 -10 -31 -1
-74 17 -102 42 l-24 22 7 -49 c10 -76 48 -149 119 -224 77 -82 96 -116 104
-183 l6 -51 -60 30 c-52 27 -61 36 -72 71 -6 23 -24 56 -40 74 -39 46 -85 116
-102 157 -10 25 -14 80 -14 200 0 186 1 183 -86 301 -27 36 -55 81 -63 100
l-15 34 -1 -71 c0 -55 7 -88 32 -155 23 -63 31 -101 32 -154 1 -66 -3 -78 -59
-195 -52 -109 -60 -134 -63 -195 -3 -68 -2 -72 42 -145 25 -41 46 -83 46 -93
0 -10 -16 -42 -35 -71 -70 -106 -84 -175 -60 -303 19 -101 14 -164 -19 -238
-22 -48 -84 -130 -92 -122 -3 2 3 20 11 40 21 50 19 130 -6 207 -24 77 -21
110 20 206 60 142 79 275 49 344 -15 35 -15 34 -10 -41 7 -115 -13 -169 -98
-271 -92 -109 -138 -201 -147 -293 -8 -87 -21 -56 -22 56 -1 89 10 125 81 267
49 98 52 107 52 185 1 45 -6 120 -14 167 -14 84 -15 85 -22 42 -9 -56 -34 -89
-120 -159 -88 -71 -118 -123 -118 -202 0 -40 -3 -52 -10 -41 -13 20 -13 112 0
145 5 14 50 68 100 120 81 85 112 129 78 109 -121 -71 -226 -164 -265 -236
-20 -37 -30 -47 -47 -43 -12 2 -25 4 -30 4 -15 2 144 162 231 234 46 38 90 81
98 96 7 15 21 67 29 115 11 61 31 121 65 194 27 59 52 117 56 130 10 34 16 22
24 -55 7 -60 9 -63 10 -21 0 25 -9 86 -20 135 -12 48 -22 121 -22 161 0 62 3
76 23 97 29 31 38 32 33 1 -3 -13 10 -63 27 -112 88 -245 83 -291 -45 -432
-36 -40 -67 -85 -70 -100 -4 -15 -8 -35 -10 -44 -5 -27 22 -154 40 -185 9 -15
14 -20 11 -10 -3 9 -8 45 -12 80 -7 74 8 141 40 171 13 11 40 37 61 56 53 48
98 149 103 227 4 55 0 71 -36 150 -62 135 -69 201 -32 323 5 19 10 60 9 90
l-1 55 -12 -60 c-15 -75 -45 -134 -93 -180 -39 -38 -60 -40 -24 -1 34 36 61
119 61 187 0 49 -8 79 -45 164 -70 160 -91 313 -26 185 18 -36 64 -108 101
-160 76 -107 105 -161 131 -240 l18 -55 0 45 c1 56 -33 130 -123 267 -87 133
-112 192 -131 309 -9 54 -24 116 -34 139 -18 41 -72 95 -95 95 -7 0 -27 14
-44 30 -40 38 -65 40 -29 3 45 -48 60 -96 47 -159 -6 -30 -9 -69 -5 -87 l6
-32 -19 24 c-11 14 -30 59 -42 100 -27 93 -50 138 -87 172 -38 35 -57 40 -82
23 -34 -24 -51 -68 -51 -135 l0 -61 -27 6 c-16 3 -62 9 -103 13 -50 4 -83 12
-99 24 -13 11 -32 19 -42 19 -24 0 -25 16 -1 28 22 12 40 6 76 -27 l29 -26
-22 33 c-13 18 -31 32 -42 32 -11 0 -17 5 -14 10 3 6 19 10 35 10 22 0 33 -8
50 -35 26 -42 36 -47 16 -7 -37 72 -78 77 -145 17 -41 -38 -61 -90 -61 -164 0
-50 -32 -136 -65 -176 l-25 -30 20 54 c12 30 26 93 32 140 12 97 30 141 83
191 32 31 42 35 91 35 29 0 54 1 54 3 0 1 -12 7 -26 12 -60 23 -145 -23 -184
-100 -10 -20 -28 -85 -39 -146 -15 -80 -33 -134 -66 -202 -25 -52 -45 -96 -45
-98 0 -3 27 24 60 58 75 80 120 162 127 233 l6 55 64 20 c91 28 156 24 324
-18 l146 -37 43 -54 c37 -46 44 -52 50 -36 5 15 9 11 22 -21 9 -22 21 -57 27
-79 12 -47 42 -267 37 -273 -2 -2 -18 15 -36 37 -55 67 -73 71 -393 73 -447 2
-416 5 -519 -50 -3 -2 2 19 12 46 30 79 50 177 60 296 15 178 47 254 145 344
67 61 118 79 173 61 20 -6 43 -16 50 -22 23 -18 26 3 4 25 -30 30 -126 37
-188 13 -128 -49 -191 -147 -207 -320 -12 -136 -10 -130 -67 -220 -118 -187
-139 -356 -64 -519 33 -72 30 -86 -43 -240 -67 -140 -77 -200 -47 -288 28 -82
24 -146 -11 -204 -36 -57 -66 -75 -40 -23 25 48 31 146 12 189 l-16 35 6 -56
c7 -76 -15 -139 -76 -213 -67 -80 -77 -119 -61 -244 18 -150 -3 -199 -108
-251 l-43 -22 26 52 c32 61 65 187 65 242 0 58 -9 41 -31 -60 -23 -108 -59
-182 -143 -295 -79 -106 -106 -156 -122 -228 l-12 -55 -1 41 c-1 61 22 127 78
219 81 131 102 186 108 275 l6 78 59 68 c71 81 151 235 174 332 9 37 17 114
18 172 l2 105 57 114 c54 107 57 118 57 187 0 40 -7 103 -16 141 -10 44 -14
95 -12 144 4 72 9 87 86 240 72 144 123 282 122 329 -1 26 -19 -14 -66 -142
-24 -66 -60 -150 -81 -186 -91 -161 -109 -250 -78 -388 10 -43 18 -110 18
-147 0 -62 -5 -78 -51 -170 -59 -118 -70 -159 -64 -242 4 -57 2 -63 -33 -108
-47 -61 -80 -134 -100 -221 -20 -85 -41 -128 -93 -186 -55 -63 -83 -124 -90
-194 -7 -77 -20 -49 -21 45 -1 50 7 92 34 172 19 58 36 127 36 154 1 26 5 62
9 78 l8 30 1 -33 c2 -58 24 -172 32 -172 5 0 9 43 9 95 0 114 13 158 86 280
47 80 55 102 70 190 12 74 28 125 60 194 24 51 44 101 43 110 0 10 -4 6 -10
-9 -6 -14 -35 -62 -66 -108 -56 -84 -83 -150 -83 -206 0 -57 -19 -101 -65
-151 l-46 -50 6 59 c3 33 15 80 25 104 24 54 20 64 -9 24 -22 -32 -34 -76 -51
-192 -13 -93 -41 -153 -117 -255 -77 -102 -105 -159 -107 -212 -2 -68 -16 -50
-16 20 0 67 9 88 73 181 34 49 115 252 96 240 -5 -3 -23 -25 -40 -49 -18 -25
-34 -44 -35 -42 -6 6 36 158 52 189 9 18 49 78 89 133 194 270 206 294 231
440 9 55 27 127 41 160 13 33 28 78 33 100 8 40 8 40 -8 15 -9 -13 -40 -52
-67 -85 -81 -96 -107 -135 -153 -220 -51 -96 -45 -62 8 45 21 41 48 109 60
150 33 111 72 178 169 284 47 53 96 115 109 138 23 43 23 43 1 13 -67 -89
-204 -183 -294 -200 -22 -5 -15 1 25 22 73 37 172 140 260 268 40 59 93 123
122 147 28 24 77 66 107 95 31 28 79 63 106 77 28 14 44 26 37 26 -26 0 -92
-41 -150 -95 -61 -56 -139 -99 -202 -109 -29 -5 -25 -1 25 23 33 15 95 57 138
92 158 129 148 124 246 124 81 0 90 -2 127 -29 32 -24 35 -25 19 -6 -11 12
-33 32 -50 42 l-30 20 49 -6 c27 -3 65 -15 84 -27 l35 -20 -15 23 c-8 13 -30
33 -48 46 -35 23 -18 32 23 11z m377 -59 c13 -9 13 -10 0 -10 -8 0 -22 5 -30
10 -13 9 -13 10 0 10 8 0 22 -5 30 -10z m178 -124 c15 -8 41 -29 57 -47 27
-29 27 -31 5 -16 -14 9 -46 28 -71 41 -25 14 -51 32 -59 41 -12 14 -10 15 14
6 14 -6 38 -17 54 -25z m-357 -66 c23 -19 23 -20 5 -32 -43 -25 -66 -60 -66
-100 0 -32 -3 -39 -17 -36 -36 7 -24 122 17 166 25 27 32 27 61 2z m47 -71 c1
-9 -8 -20 -23 -27 -14 -6 -33 -27 -42 -47 -21 -44 -33 -45 -33 -1 0 44 43 98
74 94 11 -2 22 -10 24 -19z m-864 -36 c-52 -82 -67 -103 -71 -103 -2 0 -2 3 0
8 3 4 12 33 21 65 15 50 20 57 42 57 l26 0 -18 -27z m880 -8 c3 -8 -3 -20 -13
-27 -31 -23 -34 -39 -4 -23 26 14 28 13 39 -13 6 -15 10 -29 8 -31 -2 -2 -29
2 -59 9 -64 15 -68 28 -26 71 33 32 46 36 55 14z m-421 -12 l32 -16 -55 -18
c-30 -10 -56 -16 -58 -14 -6 6 28 65 39 65 5 0 24 -7 42 -17z m592 -98 c7 -27
17 -75 20 -105 l7 -55 -41 78 c-36 69 -40 83 -34 124 6 42 7 44 20 27 8 -10
20 -41 28 -69z m-874 -236 c-7 -32 -28 -74 -56 -114 -25 -34 -45 -68 -45 -74
0 -6 -4 -11 -9 -11 -17 0 8 73 61 180 54 107 69 113 49 19z m995 -249 c20 -52
23 -76 18 -120 -7 -66 -23 -102 -24 -54 0 18 -9 60 -19 95 -20 65 -51 227 -51
264 0 18 11 -7 76 -185z m1375 23 c369 -401 886 -969 892 -980 4 -7 -4 -34
-18 -60 -33 -62 -32 -96 2 -122 14 -12 24 -22 22 -24 -2 -1 -25 -12 -51 -24
-59 -28 -74 -51 -88 -138 -6 -38 -18 -84 -27 -102 -8 -18 -59 -72 -112 -119
-53 -48 -172 -160 -266 -249 -261 -248 -575 -540 -585 -543 -22 -8 -34 90 -35
273 -1 167 -5 203 -27 295 -59 243 -136 378 -274 485 -46 36 -89 65 -94 65
-14 0 -26 29 -34 79 -4 24 -13 56 -21 72 -8 15 -15 46 -15 67 0 53 -24 119
-61 165 -28 35 -29 37 -9 37 30 0 80 28 80 45 0 10 -10 15 -30 15 -39 0 -90
21 -113 47 -17 20 -17 20 30 16 49 -5 103 9 103 26 0 5 -24 17 -54 25 -67 20
-143 95 -120 119 4 4 19 -2 34 -13 50 -35 63 -23 34 31 -8 17 -14 34 -12 38 2
4 102 97 223 206 121 110 275 250 342 312 67 62 126 113 131 113 5 0 74 -71
153 -157z m-2430 55 c-23 -56 -26 -76 -26 -180 0 -108 -1 -114 -13 -80 -18 54
-18 179 2 225 14 35 53 97 61 97 1 0 -9 -28 -24 -62z m559 -8 c-11 -11 -20
-24 -20 -30 0 -6 -25 -10 -57 -9 -52 0 -60 3 -81 30 l-24 29 101 0 101 0 -20
-20z m-172 -52 c6 -49 -66 -166 -118 -193 -67 -35 -63 -15 22 127 62 103 90
122 96 66z m516 16 c11 -28 6 -62 -16 -121 -27 -73 -65 -113 -108 -113 -17 0
-30 4 -28 9 10 26 134 240 139 241 4 0 10 -7 13 -16z m-893 -37 c-13 -13 -15
1 -4 30 7 17 8 17 11 -1 2 -10 -1 -23 -7 -29z m522 -32 c18 -125 125 -215 257
-215 71 0 143 72 156 156 3 25 14 52 23 61 14 15 17 13 29 -28 7 -24 14 -76
15 -116 2 -64 -1 -74 -23 -98 -14 -15 -41 -36 -60 -46 l-35 -20 33 5 c19 3 32
1 32 -5 0 -6 9 -8 20 -4 19 6 19 3 14 -57 -10 -99 -41 -205 -71 -246 -50 -67
-181 -218 -222 -255 -51 -46 -73 -52 -197 -52 -121 0 -136 8 -270 141 -93 94
-158 185 -174 245 -15 56 -51 261 -47 265 2 3 15 -4 28 -14 46 -35 59 -31 20
6 -47 45 -71 116 -71 210 0 78 15 79 39 2 33 -106 75 -140 174 -140 84 0 152
40 189 110 16 30 33 74 39 98 10 41 10 42 53 42 l43 0 6 -45z m-907 -157 c-18
-70 -101 -249 -134 -288 l-22 -25 10 30 c5 17 16 64 24 105 16 86 50 169 98
237 29 42 33 45 36 26 2 -12 -4 -51 -12 -85z m1844 -119 c0 -6 -4 -7 -10 -4
-5 3 -10 11 -10 16 0 6 5 7 10 4 6 -3 10 -11 10 -16z m2795 -212 c16 -29 57
-80 93 -115 l65 -63 -7 -72 c-10 -109 -25 -127 -126 -155 -47 -13 -109 -31
-139 -39 -92 -26 -152 -94 -196 -224 -14 -40 -34 -88 -45 -107 -39 -66 -299
-417 -332 -450 -34 -32 -35 -32 -71 -17 -51 21 -156 19 -217 -4 -27 -10 -77
-37 -110 -60 -72 -50 -89 -54 -30 -7 23 18 42 37 41 42 -1 14 187 200 244 242
28 20 107 78 177 130 l127 93 30 -15 c65 -34 121 33 75 90 -15 18 -15 18 -5
-3 15 -30 14 -49 -5 -67 -18 -18 -60 -21 -70 -5 -4 8 1 9 15 4 42 -13 69 38
36 65 -13 11 -13 15 -3 21 9 6 5 9 -13 9 -31 0 -72 -40 -64 -63 7 -16 -93 -98
-262 -217 -72 -50 -87 -54 -58 -16 20 26 19 55 -1 78 -16 17 -1 33 271 300
185 182 296 283 309 284 37 1 44 4 60 20 23 22 20 77 -4 99 -24 21 -72 24 -94
5 -10 -7 -16 -28 -16 -51 0 -38 14 -60 23 -37 4 10 6 9 6 -1 1 -8 -52 -67
-116 -133 l-117 -118 -12 30 c-15 34 -54 48 -89 32 -30 -14 -41 -52 -25 -82
11 -21 5 -30 -81 -116 -52 -52 -97 -94 -101 -94 -5 0 -8 11 -8 24 0 27 -42 66
-69 66 -9 -1 -2 -7 16 -15 39 -17 53 -57 32 -94 -15 -26 -59 -42 -59 -22 0 6
7 11 15 11 9 0 21 11 27 25 16 35 -4 79 -32 72 -11 -3 -18 -1 -14 4 3 5 -2 9
-11 9 -8 0 -21 -12 -27 -26 -10 -21 -9 -31 3 -53 15 -26 15 -28 -34 -81 -27
-30 -47 -48 -44 -39 3 9 8 42 12 75 12 97 12 96 158 168 127 61 177 99 177
131 0 7 36 34 79 59 140 83 160 100 196 180 35 76 58 99 115 111 59 13 90 34
106 73 44 103 59 126 102 148 24 13 49 21 56 18 8 -3 26 -29 41 -57z m-4338 3
c-13 -67 3 -165 45 -267 24 -59 32 -93 32 -143 1 -58 -4 -73 -43 -145 -44 -79
-44 -81 -50 -205 -8 -153 -17 -172 -118 -271 -96 -94 -117 -137 -118 -245 0
-80 0 -81 -45 -139 -43 -56 -45 -61 -45 -126 0 -37 -3 -65 -7 -63 -4 3 -15 30
-24 61 -22 76 -14 130 35 233 22 47 43 99 46 115 6 27 0 23 -60 -40 -74 -78
-88 -115 -83 -207 2 -32 2 -58 0 -58 -1 0 -16 21 -32 47 -24 38 -30 58 -30
104 0 80 10 101 95 191 41 44 75 84 75 89 0 4 -22 -5 -49 -21 -30 -17 -48 -23
-45 -15 7 18 58 56 109 83 49 25 100 76 116 117 6 17 12 82 13 145 3 132 11
158 80 240 74 89 92 172 60 280 -21 73 -19 146 6 211 19 47 37 79 45 79 1 0
-2 -23 -8 -50z m159 -206 c43 -76 64 -181 64 -312 0 -106 -15 -152 -69 -221
-53 -68 -62 -94 -59 -186 3 -100 18 -91 18 11 0 62 4 76 33 120 l32 49 3 -75
c5 -107 -4 -150 -44 -216 -51 -85 -64 -120 -64 -177 0 -36 6 -60 23 -84 40
-59 64 -51 27 9 -27 44 -26 116 1 171 12 23 23 43 24 45 1 1 26 -13 54 -32 29
-20 68 -38 87 -42 113 -21 297 50 424 163 l46 42 12 -32 c7 -18 23 -45 37 -62
l25 -30 -7 71 c-3 40 -2 85 2 100 8 28 9 27 21 -21 21 -86 18 -106 -33 -186
l-48 -74 0 -140 c0 -77 -5 -147 -10 -155 -7 -13 -6 -13 8 -2 24 20 36 66 46
170 8 93 21 135 21 71 0 -52 18 -105 46 -139 16 -18 24 -37 20 -46 -3 -9 -27
-111 -51 -227 -42 -195 -88 -365 -165 -612 -44 -139 -99 -377 -106 -455 -9
-110 -7 -106 -74 -119 -129 -26 -255 -97 -357 -204 -74 -76 -222 -299 -298
-449 -31 -59 -59 -109 -64 -112 -12 -8 38 156 53 173 33 39 44 80 51 196 4 80
3 142 -5 185 -14 74 -29 272 -29 372 0 37 -5 84 -10 105 -6 21 -14 81 -19 133
-7 77 -17 113 -51 194 -54 125 -81 228 -87 336 -6 89 10 180 41 226 8 13 15
45 15 71 1 30 10 65 24 92 23 43 24 44 31 20 5 -13 8 -71 8 -129 0 -115 -18
-199 -54 -243 -11 -15 -18 -27 -14 -27 59 0 138 181 158 364 l12 109 20 -42
c18 -42 18 -45 1 -93 -10 -27 -15 -52 -12 -56 11 -11 49 34 77 91 37 79 44
141 25 214 -27 103 -27 109 4 48 24 -49 30 -73 31 -130 0 -59 2 -66 11 -45 6
14 11 52 11 85 0 50 -5 70 -33 119 -30 52 -34 69 -34 128 0 37 -3 68 -8 68 -8
0 -28 -66 -28 -96 0 -12 -14 -38 -30 -59 -36 -46 -44 -73 -37 -126 6 -45 60
-133 65 -106 2 8 -6 34 -17 56 -21 41 -26 76 -15 105 11 29 21 17 39 -45 17
-63 13 -185 -6 -173 -5 3 -9 13 -9 23 0 10 -9 26 -21 37 -29 26 -66 102 -84
171 -23 88 -7 149 57 220 64 71 75 98 92 231 17 126 27 155 87 243 42 61 44
67 44 139 0 68 -4 85 -40 161 -32 67 -40 98 -43 154 l-4 70 37 -60 c20 -33 52
-88 71 -121z m1301 -6 l-2 -123 39 -70 c88 -158 96 -177 96 -227 0 -57 -14
-93 -63 -165 -41 -60 -57 -143 -40 -205 13 -48 -2 -50 -17 -2 -12 37 -9 123 6
159 7 18 6 18 -9 6 -29 -23 -66 -113 -77 -186 -6 -38 -23 -101 -38 -140 l-26
-70 -10 75 c-24 184 -12 232 90 350 83 97 99 131 99 220 0 58 -5 84 -22 115
-42 78 -54 82 -27 10 39 -106 23 -185 -56 -275 l-31 -35 6 35 c10 50 13 77 8
63 -8 -25 -18 -12 -41 50 -14 39 -22 85 -22 123 0 54 6 74 51 163 61 123 79
173 79 217 0 19 2 34 5 34 2 0 4 -55 2 -122z m2338 -70 c22 -42 34 -75 30 -86
-4 -11 -21 15 -56 87 -27 57 -49 106 -49 110 1 12 38 -44 75 -111z m735 56
c11 -49 -3 -167 -24 -199 -11 -17 -35 -30 -74 -40 -248 -69 -279 -88 -327
-216 -40 -103 -353 -555 -418 -603 -24 -17 -29 -18 -42 -6 -12 13 -6 25 48 90
34 42 120 157 190 258 98 138 134 199 152 253 57 167 90 197 265 245 74 20
142 41 152 47 29 19 48 82 48 159 0 78 14 83 30 12z m-464 -26 c-2 -25 -8 -33
-25 -34 -23 -1 -28 15 -8 35 10 11 10 13 0 7 -7 -4 -13 -3 -13 3 0 10 16 19
37 20 9 1 12 -10 9 -31z m48 16 c35 -35 12 -94 -37 -94 l-32 1 33 14 c36 16
44 52 16 79 -8 9 -11 16 -5 16 5 0 17 -7 25 -16z m-14 -38 c0 -17 -28 -41 -38
-32 -4 4 1 12 10 17 11 6 15 16 11 26 -4 11 -3 14 5 9 7 -4 12 -13 12 -20z
m-2452 -41 c24 -16 48 -37 53 -46 5 -10 -20 3 -55 29 -36 26 -65 51 -65 56 -1
5 5 4 12 -1 6 -5 31 -22 55 -38z m-747 -46 c-11 -25 -23 -65 -26 -89 l-6 -45
23 55 c14 30 32 69 41 85 l16 30 1 -68 c0 -93 -17 -124 -111 -203 -44 -36
-102 -96 -129 -133 -27 -37 -68 -80 -90 -95 -43 -28 -44 -41 -4 -57 66 -25 68
-24 108 41 21 34 40 59 43 57 2 -3 0 -14 -6 -25 -6 -12 -11 -34 -11 -49 0 -46
-81 -113 -227 -187 -126 -65 -231 -71 -294 -19 -25 21 -29 31 -25 52 4 14 11
76 16 136 6 76 18 136 39 195 27 79 30 83 40 60 6 -14 33 -81 60 -150 41 -101
50 -118 50 -90 1 38 -27 160 -82 369 -20 74 -35 136 -34 138 2 1 25 -16 53
-39 83 -69 123 -83 244 -83 88 0 112 4 149 22 25 13 46 21 48 19 2 -2 -14 -43
-37 -91 -22 -49 -38 -90 -36 -92 2 -2 30 47 61 109 48 95 130 207 142 194 2
-1 -6 -23 -16 -47z m788 -45 c43 -49 56 -81 20 -48 -34 30 -82 94 -71 94 6 0
29 -21 51 -46z m1796 -127 c0 -48 -3 -87 -7 -87 -5 0 -8 4 -8 9 0 5 -6 9 -12
8 -38 -1 -59 5 -64 18 -8 19 64 147 79 142 7 -2 12 -34 12 -90z m287 16 c22
-20 23 -56 2 -77 -16 -17 -59 -22 -68 -8 -2 4 7 8 21 7 14 0 30 7 36 16 14 22
0 69 -20 69 -13 0 -14 -3 -6 -11 6 -6 9 -18 6 -27 -4 -10 -2 -13 5 -8 7 4 12
3 12 -3 0 -15 -18 -23 -22 -10 -3 9 -9 9 -25 1 -38 -21 -48 26 -11 52 29 20
47 20 70 -1z m675 -26 c-8 -13 -56 -106 -107 -206 l-91 -183 -26 23 c-14 13
-43 45 -65 71 l-40 48 21 63 c24 71 67 129 114 154 36 19 150 51 186 52 22 1
23 0 8 -22z m-4992 -126 c-43 -104 -49 -147 -31 -260 l16 -100 -49 -93 c-69
-133 -75 -207 -24 -316 l16 -34 -47 -46 -48 -47 -68 73 -68 74 12 41 c8 23 44
141 81 262 38 121 69 222 71 223 1 2 16 -11 32 -30 17 -18 34 -30 38 -26 4 4
-1 34 -10 66 -9 32 -16 73 -16 90 0 44 31 122 77 192 l38 60 3 -34 c2 -20 -7
-59 -23 -95z m4275 42 c0 -4 -72 -77 -160 -164 -108 -105 -178 -165 -213 -183
-47 -24 -33 -8 143 164 168 163 230 212 230 183z m-2682 -138 l-4 -90 -83
-155 c-46 -85 -90 -171 -97 -190 l-14 -35 5 52 c3 28 17 77 32 109 20 44 27
81 33 163 8 120 22 161 74 219 20 22 36 46 37 53 0 8 5 3 10 -11 6 -14 9 -65
7 -115z m670 61 c29 -11 52 -22 52 -26 0 -3 -23 -16 -51 -28 -66 -31 -172
-135 -188 -185 -7 -21 -15 -36 -18 -34 -9 10 26 76 71 133 30 39 50 78 58 112
7 29 15 51 18 50 3 -2 29 -12 58 -22z m1709 -39 c23 -23 8 -67 -22 -67 -5 1
-2 5 8 11 25 14 21 27 -7 22 -25 -5 -41 10 -33 31 5 13 41 15 54 3z m431 -15
c3 -17 -2 -22 -17 -22 -25 0 -28 20 -3 21 16 1 16 2 -1 6 -9 2 -15 9 -11 14 9
16 29 4 32 -19z m32 -12 c0 -10 -7 -21 -16 -24 -14 -5 -15 -4 -5 8 6 7 8 22 4
31 -4 13 -3 16 5 11 7 -4 12 -15 12 -26z m-2023 -27 c57 -27 147 -117 180
-180 17 -32 44 -101 62 -153 75 -231 94 -376 67 -528 -18 -103 -21 -202 -7
-187 5 6 11 28 13 50 3 40 3 40 20 -24 l17 -64 -47 -44 c-36 -32 -55 -43 -80
-43 -44 0 -82 -38 -82 -81 0 -28 -2 -31 -22 -24 -60 18 -79 17 -104 -6 -13
-12 -24 -29 -24 -37 0 -8 -14 -27 -31 -43 -27 -25 -31 -35 -27 -69 3 -35 -1
-45 -29 -72 -18 -17 -34 -30 -37 -27 -3 3 -77 306 -91 376 -13 59 -34 292 -30
323 5 30 0 41 -30 74 -19 22 -38 37 -41 34 -3 -3 4 -25 17 -49 29 -58 22 -138
-20 -224 -34 -68 -52 -81 -101 -70 -50 11 -93 116 -110 265 -15 134 -2 197 71
342 48 94 60 127 57 154 -5 46 6 43 26 -6 20 -50 20 -73 0 -113 l-15 -32 37
39 37 39 -6 73 c-8 83 4 120 58 191 40 53 66 74 131 107 58 30 93 32 141 9z
m1547 -52 c15 -6 -8 -32 -140 -159 -107 -104 -161 -149 -168 -142 -7 7 36 58
134 159 80 81 147 148 150 149 3 0 13 -3 24 -7z m681 -33 c30 -3 30 -3 33 -75
2 -42 -1 -73 -7 -73 -5 0 -19 29 -31 64 -14 42 -30 70 -46 81 -13 9 -22 20
-18 26 4 7 12 5 22 -5 10 -8 31 -16 47 -18z m-608 -65 c11 -29 -38 -103 -97
-146 -30 -22 -86 -65 -123 -95 -64 -51 -69 -54 -85 -39 -15 16 -15 19 8 40 14
13 73 70 132 127 93 88 110 101 123 90 13 -10 18 -11 28 -1 9 10 8 15 -7 27
-18 12 -18 14 -3 14 10 0 20 -7 24 -17z m-152 -84 c-28 -28 -81 -78 -118 -111
-53 -48 -71 -58 -80 -49 -9 10 4 28 60 82 68 64 156 128 178 129 5 0 -13 -23
-40 -51z m738 -92 l48 -56 -221 -433 c-297 -578 -266 -524 -309 -536 -20 -5
-204 -64 -409 -132 -206 -67 -375 -120 -376 -118 -7 12 -46 181 -46 201 0 14
-9 54 -20 89 -11 34 -23 88 -26 118 l-6 55 289 286 c316 313 345 336 462 346
50 5 71 1 127 -21 42 -17 77 -25 91 -21 42 10 105 79 198 214 l90 132 30 -35
c17 -19 52 -59 78 -89z m-4244 -29 c-7 -42 -4 -68 11 -124 23 -80 26 -207 9
-331 -14 -103 -25 -111 -21 -15 2 46 -3 107 -13 152 -51 237 -50 227 -37 275
13 47 39 95 52 95 4 0 3 -24 -1 -52z m1271 -104 c33 -148 26 -201 -33 -261
-33 -35 -26 -41 20 -21 54 23 109 67 138 107 31 46 41 48 25 5 -6 -15 -40
-143 -76 -284 -135 -530 -285 -1084 -314 -1159 -49 -126 -101 -201 -140 -201
-99 0 -141 147 -106 370 26 158 62 296 192 729 19 63 55 214 80 335 25 122 47
226 49 233 3 7 16 1 36 -18 17 -16 35 -29 39 -29 4 0 3 19 -2 43 -15 64 -2
171 30 241 30 69 24 78 62 -90z m2213 64 c-59 -58 -86 -79 -93 -72 -8 8 15 32
77 82 48 40 90 72 93 72 3 0 -32 -37 -77 -82z m-226 8 c-20 -20 -23 -20 -31 0
-4 9 -1 23 5 31 11 12 14 12 27 -1 13 -13 13 -16 -1 -30z m-3608 -53 c-22 -55
-57 -123 -64 -123 -7 0 17 85 32 114 47 91 68 97 32 9z m1434 23 c-3 -24 0
-67 6 -96 13 -60 8 -72 -17 -47 -20 21 -22 114 -4 160 16 38 20 34 15 -17z
m2045 -93 c-217 -207 -237 -225 -248 -218 -6 4 -10 13 -8 21 2 8 77 83 168
168 140 131 166 152 173 137 7 -15 -9 -36 -85 -108z m177 106 c11 -17 -1 -21
-15 -4 -8 9 -8 15 -2 15 6 0 14 -5 17 -11z m-19 -38 c-10 -16 -23 -14 -30 5
-9 25 4 38 21 21 9 -8 12 -20 9 -26z m61 -17 c-9 -10 -38 16 -31 28 4 6 13 4
22 -6 9 -8 13 -19 9 -22z m-190 -111 c-220 -214 -233 -225 -247 -209 -6 9 -10
19 -8 23 1 5 77 79 167 166 151 144 165 155 177 138 12 -17 3 -28 -89 -118z
m156 102 c8 -18 -11 -31 -25 -17 -11 11 -3 32 12 32 4 0 10 -7 13 -15z m67
-29 c-13 -13 -35 7 -25 24 5 8 11 8 21 -1 10 -8 12 -15 4 -23z m-96 -4 c3 -5
-54 -67 -127 -138 -199 -195 -205 -200 -220 -185 -10 10 20 44 153 171 157
151 182 171 194 152z m65 -28 c-9 -11 -15 -12 -25 -3 -11 9 -12 15 -3 25 9 11
15 12 25 3 11 -9 12 -15 3 -25z m-194 -185 c-91 -90 -170 -165 -175 -167 -6
-2 -12 3 -15 10 -4 9 56 76 162 181 135 134 170 164 181 154 10 -11 -20 -45
-153 -178z m200 141 c8 -12 -12 -40 -28 -40 -5 0 -2 9 8 20 10 11 16 20 13 20
-2 0 -17 -14 -34 -32 -16 -18 -21 -26 -11 -19 9 7 17 12 17 10 0 -2 -137 -141
-303 -309 -166 -168 -280 -280 -252 -250 27 30 158 164 290 298 132 133 235
242 230 242 -5 0 -162 -152 -347 -337 -186 -186 -338 -333 -338 -326 0 12 729
733 741 733 4 0 11 -5 14 -10z m-3628 -178 c61 -79 72 -113 73 -223 0 -48 -4
-70 -15 -79 -9 -7 -12 -16 -7 -19 5 -3 14 -46 21 -94 15 -107 43 -203 85 -282
17 -33 33 -64 35 -69 5 -13 -144 1 -202 18 -26 9 -61 23 -78 33 -29 17 -30 20
-22 63 14 77 9 220 -10 305 -29 123 -27 286 3 409 l24 98 19 -43 c10 -24 43
-77 74 -117z m197 111 c-4 -21 -15 -54 -25 -73 -11 -20 -19 -55 -19 -85 0 -36
-3 -46 -10 -35 -5 8 -10 42 -10 74 0 49 5 67 31 108 17 26 33 48 35 48 3 0 2
-17 -2 -37z m2939 -117 c-12 -21 -201 -196 -212 -196 -8 0 -25 31 -19 34 2 1
52 48 112 105 90 86 110 101 118 87 5 -9 5 -22 1 -30z m-1422 -156 c36 -173
194 -339 289 -303 23 9 30 8 34 -4 11 -29 6 -41 -24 -53 -37 -15 -34 -25 3
-11 25 10 27 8 38 -32 10 -36 9 -50 -10 -102 -26 -75 -27 -89 -1 -50 l20 30
-6 -34 c-4 -18 -23 -84 -43 -146 l-36 -113 -175 -164 c-96 -90 -325 -304 -508
-476 -290 -270 -462 -423 -462 -408 0 2 16 41 35 86 43 100 102 191 189 293
58 66 73 78 107 83 52 9 81 33 118 98 48 84 81 190 229 751 7 29 10 30 82 37
77 7 260 60 224 66 -11 2 -78 -9 -148 -23 -71 -14 -131 -24 -134 -21 -3 3 27
135 66 293 39 159 74 306 78 328 l8 40 8 -55 c4 -30 12 -80 19 -110z m1277
-72 c-106 -103 -196 -188 -200 -188 -4 0 -10 10 -14 22 -5 17 4 31 48 72 29
28 116 110 193 182 123 116 141 130 152 115 12 -14 -11 -40 -179 -203z m209
145 c5 -12 -41 -63 -183 -199 -168 -163 -191 -182 -204 -168 -13 13 1 29 124
147 77 73 162 155 190 184 57 57 64 60 73 36z m-63 -164 c-54 -54 -104 -99
-111 -99 -36 0 -16 32 83 131 99 100 110 108 118 89 8 -18 -4 -35 -90 -121z
m-230 54 c5 -12 -14 -37 -66 -90 -40 -40 -76 -73 -81 -73 -4 0 -10 7 -14 16
-4 11 17 39 68 90 40 41 77 74 80 74 4 0 10 -8 13 -17z m104 -164 c1 -8 -31
-48 -73 -89 -72 -71 -75 -73 -90 -55 -14 19 -10 25 63 92 76 71 94 81 100 52z
m-272 0 c3 -6 -18 -35 -47 -65 -47 -48 -55 -52 -68 -39 -14 13 -10 21 34 65
50 50 68 59 81 39z m-2959 -75 c32 -36 62 -72 66 -80 5 -8 -2 -66 -17 -137
-13 -67 -34 -187 -46 -266 -23 -156 -83 -403 -106 -438 -8 -13 -21 -23 -30
-23 -18 0 -465 58 -511 66 -18 4 -33 8 -33 11 0 3 39 111 86 242 48 130 93
257 100 282 12 40 32 63 156 176 192 174 260 233 269 233 4 0 34 -30 66 -66z
m2990 20 c4 -10 -9 -31 -38 -60 -41 -42 -44 -43 -62 -26 -19 17 -18 18 29 60
53 46 62 49 71 26z m362 -150 c11 -39 21 -84 21 -100 0 -16 7 -51 16 -79 8
-27 21 -95 29 -150 7 -55 21 -149 30 -210 28 -182 13 -252 -73 -342 -38 -39
-59 -52 -108 -66 -61 -17 -63 -17 -120 4 -32 12 -72 35 -88 51 -31 31 -30 46
2 29 12 -6 28 -11 38 -11 30 0 -4 28 -87 71 -43 22 -99 62 -126 88 -26 26 -97
80 -156 120 -94 63 -114 81 -153 142 -55 84 -71 126 -55 142 6 6 11 16 11 22
0 5 -5 3 -10 -5 -9 -13 -11 -13 -20 0 -14 20 -7 46 11 42 11 -3 11 -1 2 8 -15
16 -33 4 -33 -21 0 -10 -4 -19 -10 -19 -18 0 -11 36 12 60 21 22 22 22 32 5 6
-10 45 -63 86 -119 62 -83 90 -110 155 -153 43 -29 83 -53 88 -53 16 0 -23 39
-81 82 -37 28 -52 45 -48 55 5 13 4 13 -8 4 -11 -10 -21 -3 -52 36 -21 26 -57
72 -81 102 -24 29 -46 65 -49 80 -3 14 -9 34 -15 43 -13 25 -11 44 5 57 11 10
16 6 25 -16 l11 -28 -5 30 c-5 26 -2 24 26 -20 55 -88 242 -266 347 -329 32
-19 -13 31 -61 69 -28 22 -87 76 -130 120 -137 139 -194 227 -167 260 24 29
53 15 139 -68 47 -46 113 -106 147 -135 65 -55 193 -137 201 -129 19 19 -113
174 -228 268 -73 60 -99 88 -104 111 -9 39 15 69 39 48 12 -9 16 -9 16 0 0 27
243 -141 295 -205 49 -59 215 -208 192 -172 -26 40 -14 45 33 13 56 -37 60
-32 13 17 -38 39 -41 46 -45 109 -3 45 0 65 7 60 5 -3 2 5 -7 18 -10 14 -27
42 -39 64 l-21 39 59 59 58 59 6 -43 c4 -24 16 -75 28 -114z m-353 48 c-30
-30 -36 -33 -56 -22 -22 12 -22 12 21 50 40 35 45 37 57 22 10 -14 7 -21 -22
-50z m43 -38 c-24 -26 -44 -31 -55 -13 -3 6 9 23 27 39 28 23 35 26 42 13 6
-10 2 -22 -14 -39z m41 -11 c0 -13 -33 -43 -48 -43 -12 0 -10 6 8 25 23 24 40
32 40 18z m-350 -18 c10 -12 9 -16 -4 -21 -18 -7 -49 13 -40 27 8 14 30 11 44
-6z m470 -60 c13 -38 19 -73 15 -86 -7 -20 -10 -18 -56 27 -27 27 -49 51 -49
55 0 11 51 69 60 69 5 0 18 -29 30 -65z m-429 24 c16 -8 18 -14 9 -24 -9 -11
-7 -13 7 -9 22 5 57 -21 48 -35 -3 -6 -12 -11 -18 -11 -20 1 -89 68 -82 79 8
14 11 14 36 0z m98 -105 c-9 -11 -15 -12 -25 -3 -11 9 -12 15 -3 25 9 11 15
12 25 3 11 -9 12 -15 3 -25z m-2583 -74 c49 -11 101 -20 117 -20 25 0 27 -3
27 -40 0 -34 -3 -40 -21 -40 -12 0 -39 -5 -60 -12 -47 -14 -157 2 -231 34 -44
19 -48 24 -44 47 2 14 7 43 11 63 l6 37 53 -25 c29 -13 93 -33 142 -44z m2620
59 c10 -17 -13 -36 -27 -22 -12 12 -4 33 11 33 5 0 12 -5 16 -11z m-462 -106
c5 -12 -15 -39 -71 -96 -89 -89 -110 -104 -126 -88 -8 8 14 37 83 106 52 52
98 95 101 95 4 0 10 -8 13 -17z m-2278 -73 c55 -17 89 -20 166 -18 53 2 98 1
101 -2 2 -3 7 -28 11 -56 l6 -51 -52 5 c-29 2 -80 15 -113 27 -63 23 -87 23
-78 -1 12 -31 -24 -11 -79 46 -56 57 -74 88 -44 77 7 -3 45 -15 82 -27z m2308
13 c5 -12 -17 -41 -84 -107 -88 -88 -92 -90 -106 -71 -14 19 -10 25 74 107 49
49 94 88 99 88 6 0 14 -8 17 -17z m1638 -21 c-9 -21 -117 -232 -239 -468 -122
-236 -227 -441 -234 -456 -7 -16 -19 -28 -28 -28 -9 0 -104 11 -211 25 -107
14 -202 25 -211 25 -22 0 112 136 143 145 32 10 58 35 58 56 0 10 13 27 29 38
17 13 32 35 37 53 3 18 13 42 20 53 7 11 25 56 39 100 25 77 26 82 11 135 -8
30 -17 79 -18 109 l-3 54 305 97 c168 54 308 99 312 99 4 1 -1 -16 -10 -37z
m-1602 -57 c0 -10 -24 -35 -137 -139 -41 -38 -41 -38 -53 -16 -11 21 -5 29 76
111 80 80 90 88 101 72 7 -9 13 -22 13 -28z m-2424 6 c13 -16 45 -42 72 -59
47 -29 48 -29 170 -26 l122 4 0 -35 c0 -29 -5 -37 -26 -45 -82 -32 -272 14
-362 86 -20 17 -22 25 -16 62 3 23 9 42 11 42 2 0 15 -13 29 -29z m2454 -46
c10 -12 5 -24 -34 -70 -26 -30 -68 -71 -92 -92 -37 -30 -47 -34 -55 -22 -5 8
-9 18 -9 24 0 10 160 175 171 175 4 0 12 -7 19 -15z m-303 -22 c5 -12 -13 -35
-66 -85 -40 -37 -76 -68 -81 -68 -4 0 -10 6 -13 14 -6 14 127 155 146 156 4 0
11 -8 14 -17z m-2023 -108 c58 -17 180 -17 217 -1 12 5 18 -3 26 -39 15 -67 0
-191 -38 -298 -17 -51 -42 -144 -55 -207 -13 -63 -39 -151 -56 -194 l-33 -80
-7 73 c-14 158 -99 290 -228 356 -21 11 -69 21 -119 24 l-84 6 51 59 c28 32
57 74 64 93 9 24 17 33 28 29 8 -3 45 -16 82 -28 37 -13 68 -26 68 -30 0 -5
-24 -8 -52 -9 -29 -1 -64 -4 -78 -9 -23 -7 -23 -8 -6 -15 10 -5 55 -2 100 5
44 7 110 14 146 17 91 6 100 10 72 33 -22 18 -22 20 -7 43 16 25 16 25 -33 36
-59 15 -80 28 -171 111 -48 44 -71 71 -71 87 0 22 1 22 63 -11 34 -19 88 -42
121 -51z m2356 77 c0 -4 -40 -47 -89 -96 -56 -56 -90 -83 -93 -75 -3 8 31 50
76 95 74 74 106 97 106 76z m-296 -19 c5 -12 -14 -38 -69 -92 -74 -74 -76 -75
-91 -56 -15 19 -11 24 63 93 42 39 81 72 84 72 4 0 10 -8 13 -17z m-25 -149
c-40 -41 -77 -74 -81 -74 -4 0 -13 10 -19 22 -11 20 -5 28 67 94 75 68 79 71
93 52 12 -18 8 -26 -60 -94z m438 65 c38 -23 73 -45 79 -51 9 -6 -4 -24 -40
-58 -64 -61 -101 -125 -125 -221 l-18 -73 -18 74 c-9 41 -22 122 -29 179 l-13
105 40 43 c22 24 43 43 48 43 5 0 39 -19 76 -41z m-2567 -63 c42 -37 80 -61
107 -69 l43 -11 -48 -18 c-47 -19 -47 -19 -129 8 -119 38 -117 36 -96 116 17
66 18 67 38 50 11 -10 49 -44 85 -76z m1953 40 c3 -8 -21 -40 -58 -76 -56 -55
-66 -62 -80 -50 -14 12 -9 20 47 77 63 64 82 74 91 49z m276 -15 c8 -14 -4
-32 -69 -96 l-79 -78 -12 27 c-12 26 -10 30 61 101 40 41 77 72 82 69 4 -3 12
-13 17 -23z m-243 -43 c6 -19 -4 -32 -56 -80 -49 -44 -67 -55 -77 -46 -7 6
-13 16 -13 23 0 14 117 125 131 125 4 0 11 -10 15 -22z m204 -83 c-74 -75 -90
-86 -90 -63 0 22 143 159 154 148 7 -7 -15 -35 -64 -85z m510 78 c-1 -5 -15
-17 -33 -28 -40 -25 -89 -97 -118 -173 -27 -73 -31 -218 -5 -257 9 -14 24 -37
34 -52 9 -15 12 -24 5 -20 -17 11 -79 108 -91 144 -24 72 52 281 129 355 35
34 80 51 79 31z m672 -38 c0 -19 -7 -46 -16 -60 -9 -13 -16 -33 -16 -45 0 -11
-16 -38 -36 -60 -27 -30 -34 -43 -26 -53 12 -14 -2 -47 -14 -35 -4 4 -27 -10
-51 -32 -56 -49 -101 -64 -168 -57 -68 7 -124 36 -169 88 -38 45 -49 81 -44
143 l3 39 30 -30 c17 -17 41 -45 54 -63 29 -39 112 -80 162 -80 121 0 245 106
272 235 12 61 19 64 19 10z m-1342 -31 c0 -6 -30 -38 -66 -70 -63 -55 -67 -57
-80 -39 -13 18 -8 25 53 87 61 62 69 67 80 51 7 -9 13 -22 13 -29z m707 24
c13 -12 23 -25 23 -30 0 -4 -24 -20 -52 -34 -29 -15 -65 -35 -80 -45 -32 -23
-35 -23 -35 -3 0 15 102 134 115 134 3 0 16 -10 29 -22z m-1624 -80 l5 -53
-102 -105 c-121 -125 -152 -168 -216 -303 -70 -146 -95 -291 -64 -371 3 -8
-64 -78 -168 -177 -95 -90 -189 -184 -208 -210 -19 -25 -125 -130 -235 -232
-156 -147 -201 -184 -208 -172 -9 17 -44 20 -67 5 -21 -13 -30 6 -30 65 0 109
-21 217 -65 337 -42 113 -44 122 -27 135 31 24 134 75 266 129 241 100 345
188 439 373 162 318 325 519 479 591 56 26 170 52 189 43 4 -1 9 -26 12 -55z
m693 51 c6 -11 -112 -139 -129 -139 -4 0 -11 7 -14 17 -5 12 12 33 58 74 68
62 74 65 85 48z m255 -40 c10 -19 4 -28 -52 -85 -35 -35 -66 -64 -69 -64 -3 0
-11 10 -19 21 -12 20 -8 27 50 85 35 35 67 64 71 64 4 0 12 -10 19 -21z m745
-53 c2 -84 36 -145 108 -193 62 -42 99 -52 166 -43 52 7 53 6 31 -9 -13 -9
-38 -22 -55 -29 l-31 -12 35 5 35 5 -28 -25 c-38 -33 -72 -40 -126 -26 -90 23
-176 111 -202 204 -13 48 0 133 26 174 26 40 40 23 41 -51z m-968 39 c10 -22
6 -29 -54 -87 -36 -35 -70 -64 -74 -66 -5 -2 -12 9 -16 23 -6 23 2 35 57 91
35 35 66 64 70 64 3 0 11 -11 17 -25z m842 -41 c-54 -62 -74 -118 -74 -209 -1
-80 4 -96 51 -165 15 -22 13 -22 -16 5 -39 36 -76 98 -86 143 -9 43 12 167 33
192 13 16 97 64 121 69 1 1 -11 -15 -29 -35z m-586 9 c7 -7 -122 -143 -136
-143 -21 0 -2 30 54 87 64 64 69 68 82 56z m618 -62 c-8 -112 47 -212 152
-271 46 -27 48 -30 23 -30 -16 0 -49 5 -75 12 -60 15 -142 94 -167 160 l-18
48 42 70 c23 38 43 70 45 70 1 0 0 -27 -2 -59z m-835 27 c9 -21 3 -30 -55 -83
-36 -33 -68 -61 -73 -63 -4 -2 -13 7 -20 19 -11 21 -6 28 57 85 38 35 72 63
75 64 3 0 10 -10 16 -22z m294 -124 c-10 -136 -4 -230 18 -302 5 -18 7 -55 4
-82 -4 -36 -1 -63 12 -97 10 -26 20 -70 21 -98 6 -105 13 -151 29 -194 9 -24
14 -46 11 -48 -2 -3 -49 12 -103 32 -96 37 -102 38 -293 46 -220 10 -320 3
-485 -36 -59 -14 -112 -24 -118 -22 -5 1 22 35 59 74 295 304 849 869 852 868
1 -1 -2 -64 -7 -141z m237 49 c12 -54 33 -125 47 -157 13 -33 23 -61 22 -62
-1 -1 -57 5 -124 14 l-123 16 0 46 c0 26 3 81 6 123 l7 77 56 19 c89 30 84 33
109 -76z m-1240 11 c13 -9 5 -22 -49 -78 -117 -121 -224 -321 -252 -468 -9
-49 -18 -64 -59 -105 -57 -56 -68 -51 -68 38 0 81 33 196 86 302 55 111 87
153 207 278 l92 96 14 -26 c8 -14 21 -31 29 -37z m485 42 c3 -8 -19 -38 -53
-71 -55 -54 -59 -56 -69 -37 -9 18 -4 26 47 71 62 55 67 58 75 37z m-1289 -32
c3 -9 6 -40 6 -70 0 -45 -3 -54 -17 -54 -43 1 -48 14 -28 79 19 62 28 73 39
45z m1556 -29 c0 -6 -29 -40 -65 -75 -62 -62 -65 -63 -80 -45 -8 11 -15 25
-15 30 0 6 30 38 67 72 61 55 69 60 81 46 6 -9 12 -22 12 -28z m-2565 -1 c116
-14 216 -27 222 -29 9 -3 0 -25 -26 -65 -40 -61 -122 -297 -137 -390 -13 -86
-46 -174 -87 -229 -22 -30 -47 -73 -54 -95 -8 -21 -19 -49 -26 -60 -6 -12 -12
-50 -13 -86 0 -36 -19 -143 -43 -242 -22 -98 -41 -186 -41 -196 0 -10 18 -46
40 -79 l40 -59 -20 -58 c-29 -85 -43 -216 -37 -333 l6 -103 -27 0 c-59 0 -555
30 -559 34 -2 2 6 178 17 391 l21 388 133 336 c74 185 183 463 242 619 77 201
113 282 124 282 8 0 110 -12 225 -26z m2335 -19 c0 -6 -22 -33 -50 -60 -42
-41 -51 -46 -65 -35 -23 20 -19 30 37 87 48 48 54 52 65 36 7 -9 13 -22 13
-28z m-1769 -11 c28 -16 73 -52 99 -81 66 -72 92 -143 97 -263 4 -90 3 -97
-21 -125 l-25 -30 -1 55 c0 31 -7 83 -15 115 -50 191 -144 281 -321 309 l-78
12 35 22 c48 33 156 26 230 -14z m1962 -76 c-45 -45 -71 -64 -77 -58 -7 7 13
33 59 80 47 48 71 66 77 57 5 -8 -17 -36 -59 -79z m-356 46 c11 -28 -109 -136
-130 -115 -8 8 4 26 48 71 63 64 72 69 82 44z m197 -7 c9 -14 1 -27 -44 -72
-30 -30 -57 -55 -60 -55 -3 0 -11 10 -19 22 -12 20 -9 25 40 74 56 55 66 59
83 31z m1506 -6 c0 -10 -30 -24 -37 -17 -3 3 -2 9 2 15 8 13 35 15 35 2z
m-3393 -31 c30 -13 71 -43 104 -78 30 -31 41 -45 24 -30 -47 42 -140 80 -210
86 -59 4 -92 -2 -169 -34 -18 -7 -18 -5 4 27 13 19 30 40 39 47 23 20 146 9
208 -18z m2798 -7 c38 -90 131 -148 257 -161 l72 -7 -55 -27 c-62 -32 -94 -35
-147 -13 -42 18 -107 77 -127 116 -15 28 -32 129 -21 129 3 0 13 -17 21 -37z
m-1118 -90 c-30 -29 -59 -53 -64 -53 -4 0 -14 10 -22 22 -13 21 -10 26 49 81
l63 59 15 -28 c14 -27 14 -28 -41 -81z m253 61 c0 -17 -92 -114 -108 -114 -6
0 -17 10 -23 22 -11 20 -7 27 46 75 46 43 60 52 71 42 8 -6 14 -18 14 -25z
m-1422 4 c7 -7 12 -34 12 -61 0 -38 -6 -58 -30 -90 -19 -27 -35 -68 -45 -115
-8 -40 -31 -103 -50 -139 -19 -36 -35 -72 -35 -79 0 -14 -213 -124 -239 -124
-9 0 14 30 50 68 163 168 230 283 274 475 18 78 34 94 63 65z m-547 -39 c51
-25 152 -138 184 -204 15 -32 33 -87 40 -124 10 -49 13 -57 14 -31 2 96 -51
230 -122 308 -46 50 -36 48 31 -5 53 -43 88 -111 102 -199 14 -87 7 -125 -32
-169 -38 -44 -48 -44 -48 0 0 49 -35 150 -71 201 -77 112 -219 155 -329 99
-28 -14 -50 -21 -50 -16 0 6 9 35 20 65 16 42 28 58 54 70 78 37 140 38 207 5z
m1772 -71 c-21 -22 -50 -48 -65 -59 -27 -20 -27 -20 -38 2 -11 19 -6 28 47 81
l58 59 18 -22 c18 -22 17 -23 -20 -61z m223 71 c9 -15 -107 -132 -120 -119 -6
6 10 31 45 69 58 63 64 67 75 50z m-409 -15 c4 -10 -11 -32 -43 -65 -26 -27
-51 -49 -55 -49 -4 0 -11 9 -14 21 -6 17 3 30 41 65 54 48 62 51 71 28z m37
-56 c15 -22 14 -25 -41 -81 l-58 -58 -14 31 c-15 30 -14 31 34 80 27 28 53 50
57 50 4 0 14 -10 22 -22z m178 -73 c-70 -76 -77 -79 -96 -50 -16 25 -16 26 46
84 l63 60 17 -22 c16 -21 15 -23 -30 -72z m-332 11 c0 -6 -20 -31 -44 -55 -42
-41 -45 -42 -55 -23 -9 18 -5 26 35 61 44 39 64 44 64 17z m-1494 -15 c103
-49 159 -138 178 -286 6 -48 5 -51 -34 -92 -23 -24 -42 -43 -44 -43 -2 0 -6
33 -8 73 -15 211 -177 348 -335 282 -41 -17 -49 -15 -35 12 43 80 171 105 278
54z m1694 -16 c0 -6 -23 -33 -51 -60 -48 -48 -51 -49 -65 -31 -22 31 -18 41
39 90 47 41 53 44 65 29 6 -9 12 -22 12 -28z m145 -35 c-39 -40 -63 -56 -69
-50 -7 7 10 30 49 70 39 40 63 56 69 50 7 -7 -10 -30 -49 -70z m-313 5 c10
-23 8 -29 -27 -65 -45 -47 -58 -49 -73 -15 -10 23 -8 28 31 65 23 22 45 40 50
40 4 0 13 -11 19 -25z m199 -16 c10 -19 5 -28 -44 -77 l-56 -56 -12 28 c-12
25 -10 29 36 76 27 28 53 50 57 50 4 0 12 -10 19 -21z m-337 -16 c5 -12 -7
-31 -39 -62 -45 -45 -46 -45 -61 -26 -14 19 -12 23 33 63 53 47 58 49 67 25z
m-1469 -12 c90 -40 145 -139 151 -271 l4 -85 -15 64 c-24 104 -98 179 -201
202 -46 10 -63 10 -111 -4 -32 -8 -59 -14 -61 -12 -3 2 2 23 9 47 11 33 22 47
49 60 45 23 124 23 175 -1z m1655 -41 c0 -14 -88 -97 -94 -89 -27 33 -24 45
21 91 42 43 48 46 59 30 8 -9 14 -24 14 -32z m1267 10 c175 -21 420 -51 546
-66 125 -15 227 -32 227 -36 0 -5 -40 -84 -89 -176 -49 -92 -157 -300 -241
-462 -84 -162 -195 -376 -247 -474 -51 -98 -93 -183 -93 -189 0 -14 -27 11
-90 84 l-57 66 -11 124 c-10 116 -14 129 -53 204 -39 74 -41 83 -35 137 6 64
-3 97 -39 139 -13 16 -31 55 -40 86 -9 32 -24 69 -34 83 -24 33 -75 263 -72
322 1 31 -5 60 -19 87 -11 22 -20 56 -20 76 0 31 3 35 25 35 13 0 167 -18 342
-40z m-1087 8 c-1 -7 -23 -38 -50 -67 -39 -43 -53 -52 -62 -43 -10 10 0 24 42
67 55 56 70 65 70 43z m-366 -103 l-49 -43 -16 27 c-16 26 -16 27 29 73 l46
48 20 -31 20 -31 -50 -43z m-110 38 c5 -12 -7 -30 -38 -61 l-44 -45 -12 24
c-12 21 -9 26 31 61 50 43 54 44 63 21z m327 -4 c10 -19 6 -27 -32 -65 -24
-24 -46 -44 -49 -44 -4 0 -13 12 -21 26 -13 25 -12 28 30 65 50 45 56 46 72
18z m-1735 -24 c93 -27 166 -113 178 -207 5 -43 3 -49 -22 -68 l-26 -21 -16
64 c-20 81 -39 110 -95 142 -56 33 -124 35 -190 6 -50 -22 -48 -25 -31 35 6
18 41 40 96 58 27 8 56 6 106 -9z m1588 -10 c16 -24 15 -26 -25 -62 -52 -48
-55 -49 -69 -22 -11 19 -7 26 31 65 24 24 44 44 45 44 1 0 9 -11 18 -25z m200
-47 c-38 -40 -94 -98 -125 -129 -87 -87 -137 -156 -153 -209 -23 -76 -31 -87
-164 -222 -119 -121 -128 -128 -165 -128 -31 0 -53 -10 -101 -44 -33 -24 -72
-56 -85 -70 -14 -14 -29 -26 -35 -26 -6 0 192 203 439 450 421 421 551 547
389 378z m-343 15 c9 -23 6 -31 -28 -65 -20 -21 -41 -38 -45 -38 -4 0 -15 11
-24 25 -16 25 -16 26 27 65 24 21 47 39 52 40 4 0 12 -12 18 -27z m319 9 c0
-10 -20 -38 -45 -62 -36 -35 -45 -40 -51 -27 -4 11 9 31 38 60 49 50 58 54 58
29z m-462 -45 c2 -9 -12 -30 -30 -46 -32 -28 -33 -29 -42 -10 -7 15 -3 26 19
49 31 32 48 34 53 7z m332 -22 c0 -6 -18 -29 -41 -50 -39 -39 -41 -39 -55 -21
-22 30 -18 41 28 81 39 33 44 35 55 19 7 -10 13 -23 13 -29z m-1659 -8 c56
-30 103 -92 119 -157 11 -45 10 -53 -5 -70 -23 -26 -35 -25 -35 0 0 66 -113
170 -185 170 -30 0 -76 -22 -125 -60 -58 -44 -66 -46 -37 -7 15 20 39 53 54
73 54 72 136 92 214 51z m1509 -2 c13 -24 11 -28 -25 -65 -22 -22 -43 -40 -47
-40 -5 0 -14 11 -20 25 -10 23 -8 29 27 65 22 22 42 40 45 40 4 0 13 -11 20
-25z m-144 -27 c16 -32 16 -32 -15 -60 -38 -34 -44 -35 -61 -3 -13 24 -11 28
20 60 19 19 35 35 37 35 1 0 10 -14 19 -32z m280 -55 c-37 -34 -48 -40 -53
-27 -4 10 9 31 38 60 37 38 44 42 52 27 8 -12 -1 -26 -37 -60z m-399 41 c3 -9
-6 -27 -23 -45 -32 -33 -39 -35 -48 -12 -4 10 3 26 21 45 30 32 41 35 50 12z
m303 -29 c13 -24 11 -28 -28 -68 l-43 -42 -19 25 -19 25 42 43 c22 23 44 42
47 42 4 0 13 -11 20 -25z m-1589 -33 c49 -31 94 -80 104 -113 11 -34 -1 -32
-23 3 -29 46 -91 105 -125 117 -21 8 -36 7 -60 -3 -53 -22 -134 -93 -163 -141
-31 -54 -45 -52 -20 4 12 25 41 56 85 89 106 81 134 87 202 44z m1320 -1 c17
-29 16 -30 -15 -60 -18 -17 -35 -31 -38 -31 -3 0 -11 14 -18 30 -12 29 -11 33
15 60 16 17 31 30 34 30 3 0 13 -13 22 -29z m129 4 c13 -24 11 -28 -20 -60
-19 -19 -37 -35 -40 -35 -4 0 -12 12 -19 27 -11 24 -9 29 20 60 18 18 36 33
39 33 4 0 13 -11 20 -25z m-246 -12 c4 -10 -3 -26 -21 -45 -24 -25 -29 -27
-42 -13 -13 13 -12 18 14 45 33 34 40 36 49 13z m-1218 -35 c52 -48 105 -139
128 -220 9 -31 25 -78 37 -105 11 -26 26 -89 33 -140 l13 -92 -26 -11 c-20 -8
-21 -9 -4 -6 20 3 23 -2 29 -50 6 -49 4 -56 -17 -73 -22 -17 -23 -22 -12 -51
10 -27 10 -31 -3 -26 -9 3 -17 6 -20 6 -11 0 -44 85 -58 152 -15 77 -81 238
-97 238 -7 0 0 -29 25 -107 10 -32 -13 -40 -35 -12 -23 30 -24 18 -3 -86 9
-44 17 -90 18 -102 1 -30 65 -75 156 -112 39 -16 75 -32 78 -36 12 -11 -22
-24 -84 -30 -53 -6 -67 -4 -110 18 -97 50 -123 77 -165 172 -46 102 -58 120
-72 106 -15 -15 80 -206 120 -242 39 -33 100 -67 158 -85 34 -11 36 -13 13
-13 -27 -1 -193 54 -214 71 -6 4 -32 43 -56 86 -25 42 -62 99 -83 126 l-37 49
12 99 c6 55 9 102 6 105 -5 6 -8 -3 -29 -117 l-15 -75 62 -95 c35 -52 75 -116
90 -142 29 -51 46 -63 151 -103 82 -31 122 -32 151 -4 12 12 29 19 36 17 24
-9 -54 -47 -110 -54 -69 -8 -157 1 -186 19 -12 8 -64 80 -115 161 -51 80 -98
149 -104 153 -10 6 -2 -10 48 -93 l17 -29 -21 25 c-12 14 -33 44 -47 67 -22
37 -24 47 -15 75 6 18 28 117 50 219 42 200 56 232 127 301 31 29 118 87 132
88 1 0 23 -19 48 -42z m1634 19 c0 -7 -20 -32 -44 -56 -60 -59 -74 -35 -15 25
45 46 59 53 59 31z m-131 -44 c11 -24 9 -29 -20 -60 -18 -18 -36 -33 -40 -33
-4 0 -12 13 -19 29 -11 28 -10 32 22 60 18 17 36 31 39 31 3 0 11 -12 18 -27z
m-245 -12 c14 -27 14 -29 -13 -55 -15 -14 -30 -26 -33 -26 -3 0 -11 14 -18 30
-12 28 -10 33 10 55 30 32 36 31 54 -4z m126 -22 c0 -8 -12 -26 -26 -40 l-26
-24 -19 24 -20 24 32 33 c30 31 33 32 45 16 7 -9 14 -24 14 -33z m-252 -16
c-25 -27 -36 -29 -45 -7 -3 8 4 26 18 40 22 23 24 24 36 8 11 -15 10 -21 -9
-41z m979 -4 c7 -19 12 -73 12 -120 1 -81 2 -87 24 -93 12 -3 61 -42 109 -86
l88 -79 -38 -6 c-70 -12 -157 -38 -235 -71 -81 -34 -171 -83 -165 -90 2 -2 56
16 119 40 63 24 164 58 226 76 l111 32 59 -34 c32 -20 84 -50 116 -69 33 -19
101 -76 153 -128 85 -85 96 -102 124 -175 17 -45 34 -103 37 -130 l6 -50 -35
22 c-23 14 -52 22 -82 22 -25 0 -46 -2 -46 -4 0 -22 64 -138 83 -150 27 -18
42 -46 67 -126 l18 -55 51 53 c46 46 57 52 92 52 33 0 40 3 37 18 -2 9 -20 26
-40 37 -44 24 -49 39 -49 159 0 111 -24 303 -40 322 -6 8 -22 14 -35 14 -34 0
-44 28 -44 124 0 46 -3 92 -7 102 -6 16 -7 16 -14 -2 -7 -19 -7 -19 -14 1 -4
11 -25 58 -46 105 -37 80 -76 240 -58 240 4 0 21 -11 38 -25 21 -18 36 -47 51
-94 12 -37 33 -81 46 -96 27 -32 26 -26 28 -120 2 -61 7 -81 44 -153 38 -73
44 -94 53 -190 15 -145 68 -345 129 -488 41 -96 53 -136 60 -204 15 -159 43
-218 122 -262 33 -19 45 -33 59 -73 28 -79 23 -83 -36 -25 -84 82 -120 143
-165 275 -22 66 -46 124 -52 130 -12 12 -4 -100 17 -206 7 -38 10 -69 6 -69
-3 0 -15 24 -25 53 -29 84 -70 148 -137 212 -34 33 -59 53 -56 45 4 -8 27 -65
51 -125 29 -70 49 -139 56 -185 41 -309 49 -346 144 -685 25 -88 57 -221 71
-295 30 -151 50 -200 105 -262 33 -38 38 -50 42 -108 3 -42 13 -82 29 -114 23
-46 29 -51 90 -72 121 -40 124 -45 89 -136 -36 -96 -26 -142 55 -248 146 -192
179 -246 257 -412 104 -224 164 -366 188 -447 11 -35 35 -89 53 -120 29 -50
33 -66 37 -156 5 -96 7 -104 47 -170 41 -68 77 -188 113 -370 15 -79 50 -136
95 -161 50 -26 68 -65 71 -151 2 -79 6 -95 40 -170 23 -49 23 -83 2 -83 -5 0
-6 -15 -2 -35 5 -30 2 -39 -26 -66 -31 -32 -32 -32 -108 -26 -52 4 -96 2 -137
-8 -33 -8 -87 -15 -119 -15 -79 0 -139 -29 -179 -87 -26 -36 -33 -41 -40 -27
-5 9 -7 36 -3 60 3 28 0 55 -9 78 -10 24 -12 36 -4 36 24 0 0 25 -71 74 -109
76 -114 84 -103 192 l9 89 49 -77 c28 -43 53 -78 58 -78 15 0 6 57 -17 105
-28 61 -55 86 -168 160 -119 77 -132 97 -135 205 -2 94 -5 105 -90 305 -33 77
-70 171 -82 208 -17 51 -36 82 -75 125 -35 37 -61 78 -75 117 -31 83 -62 132
-115 185 -52 50 -58 47 -20 -10 36 -54 23 -62 -24 -14 -30 30 -46 60 -67 124
-15 47 -45 127 -67 179 -22 51 -37 95 -35 97 6 6 104 -102 135 -149 35 -53 39
-39 6 25 -18 37 -71 97 -172 198 l-145 145 7 -70 c4 -38 16 -110 27 -159 20
-89 21 -142 2 -76 -6 19 -20 58 -31 85 -11 28 -32 114 -46 193 -25 135 -46
202 -64 202 -5 0 -18 -13 -30 -30 -12 -16 -31 -34 -42 -40 -17 -9 -17 -6 5 32
15 26 25 59 25 83 0 22 5 47 10 55 15 24 -315 649 -510 965 -48 77 -100 174
-116 215 -16 41 -50 107 -75 146 -65 99 -227 266 -281 289 -142 60 -192 85
-198 97 -9 14 -50 382 -50 439 0 44 15 59 105 99 263 119 304 149 360 260 109
218 53 374 -135 374 -58 1 -71 -3 -124 -37 -72 -44 -113 -49 -122 -12 -8 34 2
73 33 118 31 45 111 112 100 84 -13 -34 22 -29 150 21 70 27 146 55 168 62 22
6 79 25 128 42 l87 31 0 91 c0 50 -4 108 -9 128 -10 42 -7 49 23 44 14 -2 25
-15 33 -37z m226 21 l107 0 0 -97 c0 -54 -4 -104 -9 -111 -6 -11 -20 -11 -66
-3 -32 6 -93 11 -135 11 l-77 0 0 106 0 106 36 -6 c20 -3 84 -6 144 -6z m-319
-22 c3 -13 6 -26 6 -29 0 -4 -30 -14 -67 -24 -94 -23 -138 -46 -138 -70 0 -25
45 -31 117 -15 66 14 79 1 36 -35 -63 -53 -134 -77 -325 -109 -19 -3 -33 -1
-33 4 0 6 5 10 10 10 6 0 19 14 30 32 16 27 18 43 13 114 -5 67 -3 84 8 88 42
12 269 54 300 55 30 1 38 -3 43 -21z m538 -4 c42 -14 81 -31 87 -38 6 -7 16
-50 22 -96 5 -45 20 -110 33 -143 13 -34 27 -71 32 -82 5 -13 -6 -7 -31 18
-21 20 -84 60 -140 87 l-102 50 9 48 c5 26 6 77 3 115 -3 37 -3 67 2 67 4 0
42 -12 85 -26z m-1022 3 c0 -7 -15 -28 -34 -46 -46 -45 -60 -22 -15 25 35 36
49 42 49 21z m-450 -31 c0 -7 -11 -23 -24 -35 l-24 -23 -12 22 c-10 18 -8 26
11 46 17 18 25 21 36 13 7 -6 13 -17 13 -23z m100 4 c12 -28 10 -33 -10 -55
-17 -19 -27 -22 -36 -14 -26 21 -27 50 -3 75 29 31 34 30 49 -6z m250 -21 c0
-3 -14 -18 -31 -35 l-31 -29 -19 24 -20 24 33 34 32 34 18 -23 c10 -13 18 -26
18 -29z m-132 16 c10 -21 8 -28 -18 -54 l-30 -29 -15 21 c-20 28 -19 36 7 64
28 29 42 29 56 -2z m-301 -83 c-20 -22 -22 -22 -34 -6 -11 15 -10 21 9 41 20
21 22 21 34 5 11 -14 9 -21 -9 -40z m123 -3 c0 -15 -37 -57 -43 -48 -2 2 -11
17 -21 33 l-19 30 28 24 28 24 13 -24 c7 -12 13 -30 14 -39z m327 30 c3 -20
-56 -64 -68 -52 -7 7 -1 20 18 40 29 32 47 36 50 12z m-225 -14 c10 -22 8 -29
-12 -50 -29 -31 -34 -31 -49 1 -10 23 -9 30 10 50 28 30 37 30 51 -1z m114 0
c16 -25 16 -27 -11 -55 -21 -22 -32 -27 -41 -19 -26 21 -27 50 -3 75 28 30 35
30 55 -1z m269 -61 c-5 -36 -20 -56 -108 -146 -133 -136 -159 -174 -165 -243
-4 -48 -1 -56 22 -80 14 -14 26 -29 26 -32 0 -10 -107 5 -128 18 -80 50 -68
218 16 212 26 -2 46 14 170 141 117 119 142 150 148 182 7 36 7 37 16 14 5
-14 7 -44 3 -66z m-651 30 c6 -16 -18 -54 -35 -54 -15 0 -15 35 -1 53 19 21
28 22 36 1z m106 -38 c0 -12 -30 -46 -41 -46 -5 0 -15 13 -23 28 -14 27 -13
30 7 50 l22 22 17 -22 c10 -13 18 -27 18 -32z m88 -43 c-27 -29 -36 -29 -50 2
-10 22 -8 29 12 50 l24 25 17 -27 c18 -27 18 -28 -3 -50z m114 40 c15 -25 15
-27 -14 -51 -16 -13 -30 -23 -31 -21 -2 2 -9 12 -16 21 -11 15 -10 22 11 47
12 17 25 30 28 30 3 1 13 -11 22 -26z m108 14 c0 -7 -13 -26 -30 -42 -26 -25
-30 -26 -36 -11 -5 13 2 25 22 42 33 27 44 29 44 11z m-472 -34 c3 -22 -22
-48 -38 -38 -14 8 -13 38 2 53 16 16 32 10 36 -15z m99 -31 c5 -22 -11 -52
-28 -52 -5 0 -17 16 -26 35 -16 33 -16 36 2 55 19 20 20 21 33 3 7 -10 15 -28
19 -41z m95 -7 c9 -21 8 -28 -7 -45 -23 -26 -29 -25 -45 5 -12 22 -11 27 5 45
24 26 33 25 47 -5z m-242 -25 c0 -3 -9 -11 -19 -17 -17 -11 -21 -9 -26 8 -4
11 -1 27 6 35 12 14 14 14 26 -2 7 -10 13 -20 13 -24z m345 14 c16 -25 16 -27
-6 -50 -29 -31 -34 -30 -49 7 -12 29 -12 33 11 50 13 10 25 19 25 19 1 0 9
-12 19 -26z m101 15 c3 -6 -6 -24 -22 -40 -24 -25 -29 -27 -37 -13 -6 11 -2
23 14 40 25 27 34 29 45 13z m-360 -30 c15 -30 15 -33 -5 -53 -19 -18 -23 -19
-31 -6 -18 27 -22 60 -10 75 18 22 28 19 46 -16z m90 -77 c-16 -16 -18 -16
-37 7 -20 24 -20 24 3 48 l23 24 14 -31 c13 -27 13 -32 -3 -48z m-240 46 c6
-19 -4 -32 -59 -83 -36 -33 -127 -118 -202 -189 -107 -102 -138 -127 -146
-115 -5 8 -8 22 -7 32 3 17 384 377 400 377 3 0 10 -10 14 -22z m94 -28 c11
-27 11 -34 -4 -48 -15 -15 -18 -15 -26 -2 -18 27 -22 60 -10 75 16 19 24 13
40 -25z m253 16 c15 -22 14 -25 -9 -47 l-25 -24 -19 25 c-19 25 -18 25 2 47
27 29 32 29 51 -1z m97 -4 c-1 -4 -10 -18 -21 -31 -15 -18 -23 -21 -31 -13 -9
9 -6 18 12 37 20 22 41 25 40 7z m-251 -38 c10 -22 9 -30 -5 -45 -23 -25 -29
-24 -43 7 -10 22 -9 30 5 45 23 25 29 24 43 -7z m-158 -75 c-137 -132 -392
-371 -394 -368 -7 10 -27 61 -27 69 0 4 91 94 203 199 l202 192 16 -38 c16
-35 16 -39 0 -54z m251 56 c10 -22 9 -29 -9 -46 l-20 -20 -17 26 c-17 25 -17
28 0 46 23 25 32 24 46 -6z m95 0 c5 -16 -22 -55 -39 -55 -18 0 -20 31 -3 50
22 24 34 25 42 5z m-247 -35 c10 -24 10 -33 0 -45 -18 -22 -26 -19 -40 15 -10
24 -10 33 0 45 18 22 26 19 40 -15z m110 -45 c0 -14 -21 -35 -35 -35 -7 0 -18
11 -25 25 -12 22 -11 27 5 45 l19 21 18 -23 c10 -13 18 -28 18 -33z m61 -8
c-16 -17 -23 -19 -33 -9 -9 9 -6 17 12 37 21 23 25 24 33 9 7 -12 3 -22 -12
-37z m-229 -3 c11 -24 4 -33 -189 -226 l-202 -202 -17 37 -18 37 120 112 c65
62 155 147 199 190 44 43 83 78 88 78 4 0 13 -12 19 -26z m101 -15 c13 -24 15
-35 6 -45 -16 -20 -24 -18 -43 11 -13 20 -14 28 -4 45 17 26 20 25 41 -11z
m232 1 c-21 -41 -19 -108 5 -147 31 -52 71 -66 161 -60 76 5 140 27 211 74 27
17 29 17 45 0 30 -30 24 -147 -10 -222 -62 -134 -111 -174 -302 -251 -191 -77
-213 -106 -373 -477 -111 -257 -164 -348 -267 -452 -96 -98 -200 -156 -315
-175 -84 -14 -129 -6 -222 41 -135 68 -226 192 -300 409 -55 161 -139 495
-155 615 -17 125 -11 227 20 364 l12 55 44 -67 c75 -116 126 -147 244 -147 31
0 57 -4 57 -8 0 -16 -113 -105 -137 -108 -33 -3 -55 -24 -50 -45 3 -10 -7 -28
-24 -45 -23 -22 -31 -25 -43 -15 -19 16 -52 0 -61 -29 -7 -21 44 -140 141
-332 46 -88 61 -109 90 -123 19 -9 43 -14 53 -10 26 8 201 190 201 209 0 9 -9
35 -21 57 l-20 40 72 67 c39 37 75 68 79 70 4 1 13 -11 20 -28 15 -36 21 -40
67 -50 70 -16 103 10 137 111 14 41 14 46 -10 104 l-25 60 210 205 210 205 49
-3 c48 -4 50 -2 131 67 45 39 84 71 87 71 2 0 -2 -13 -11 -30z m-1140 -57 c4
-31 9 -62 12 -70 3 -7 1 -13 -5 -13 -5 0 -14 26 -21 57 -13 68 -14 83 -2 83 5
0 12 -25 16 -57z m995 43 c0 -19 -27 -39 -40 -31 -8 5 -6 13 6 26 20 22 34 25
34 5z m-139 -47 l22 -31 -204 -204 c-112 -112 -207 -204 -211 -204 -11 0 -40
59 -36 73 3 12 393 397 402 397 3 0 15 -14 27 -31z m93 2 c3 -5 -1 -12 -10
-15 -27 -11 -37 -7 -24 9 14 17 26 19 34 6z m704 -77 c55 -21 66 -48 59 -134
-10 -122 -73 -227 -172 -284 -22 -13 -90 -45 -152 -71 -181 -76 -210 -110
-334 -406 -72 -172 -163 -352 -215 -425 -124 -175 -331 -290 -506 -282 l-63 3
70 18 c102 27 180 72 267 156 116 110 189 230 284 463 25 62 70 164 100 226
69 142 112 187 221 232 231 93 283 132 346 260 28 56 32 75 32 145 0 44 -4 88
-9 98 -11 22 18 23 72 1z m-1368 -30 c0 -8 -4 -12 -10 -9 -5 3 -10 13 -10 21
0 8 5 12 10 9 6 -3 10 -13 10 -21z m-105 -31 c12 -40 11 -43 -6 -43 -25 0 -52
43 -44 70 11 33 37 19 50 -27z m73 23 c4 -17 -14 -46 -28 -46 -13 0 -20 43 -8
57 14 17 32 12 36 -11z m60 -41 c6 -13 8 -27 3 -29 -7 -5 -31 34 -31 49 0 15
18 1 28 -20z m-24 -30 c5 -17 -8 -34 -63 -82 -38 -34 -71 -59 -75 -56 -13 14
-5 33 22 45 16 8 31 26 37 45 12 37 55 87 66 76 4 -5 10 -17 13 -28z m62 -63
c16 -40 0 -42 -21 -2 -18 35 -19 43 -4 38 6 -2 17 -18 25 -36z m-32 -14 l14
-33 -66 -68 -67 -67 -18 36 -19 37 63 63 c35 35 67 64 71 64 4 0 14 -15 22
-32z m69 -73 c9 -19 13 -37 8 -39 -4 -3 -15 12 -24 34 -19 49 -7 53 16 5z
m-256 -2 c5 -12 -13 -35 -66 -85 -40 -37 -76 -68 -81 -68 -4 0 -11 8 -15 18
-5 13 11 33 67 84 40 38 77 68 81 68 4 0 11 -8 14 -17z m231 -25 c10 -25 7
-30 -56 -92 l-67 -65 -19 36 -18 37 68 62 c38 34 72 59 75 56 3 -4 10 -19 17
-34z m-254 -155 l-79 -72 -19 37 -19 36 79 72 79 73 19 -37 19 -37 -79 -72z
m319 92 c10 -20 12 -37 7 -40 -6 -3 -10 -4 -10 -2 0 3 -7 21 -15 41 -19 46 -4
47 18 1z m-26 -20 l17 -35 -64 -65 c-36 -36 -67 -65 -70 -65 -4 0 -14 16 -24
37 l-17 36 63 64 c34 34 66 63 70 63 5 0 16 -16 25 -35z m-248 -161 c-41 -41
-76 -74 -79 -74 -4 0 -14 16 -24 37 l-17 36 78 72 78 73 18 -35 19 -36 -73
-73z m322 74 c14 -36 14 -46 2 -81 -29 -85 -41 -97 -93 -97 l-34 0 63 64 64
65 -16 43 c-10 24 -17 48 -17 53 0 16 15 -7 31 -47z m-524 26 c3 -9 -5 -26
-22 -43 -19 -21 -23 -30 -13 -34 10 -4 10 -6 0 -6 -7 -1 -18 10 -24 24 -10 22
-8 29 12 50 27 29 38 31 47 9z m495 -33 l16 -40 -63 -60 c-35 -34 -68 -61 -74
-61 -5 0 -15 18 -22 39 l-12 39 64 61 c35 33 67 60 70 61 3 0 13 -18 21 -39z
m-607 10 c-3 -6 -11 -11 -17 -11 -6 0 -6 6 2 15 14 17 26 13 15 -4z m15 -26
c-7 -9 -15 -13 -18 -10 -3 2 1 11 8 20 7 9 15 13 18 10 3 -2 -1 -11 -8 -20z
m135 -24 c13 -26 13 -30 -10 -51 l-24 -23 -20 24 c-19 24 -19 24 2 49 20 22
20 23 2 10 -20 -14 -20 -14 -1 7 21 26 30 23 51 -16z m210 -121 c-38 -39 -73
-70 -76 -70 -9 0 -39 58 -39 74 0 6 32 41 72 78 l73 67 20 -40 19 -39 -69 -70z
m-315 116 c0 -8 -6 -19 -14 -25 -18 -15 -31 15 -15 35 13 16 29 10 29 -10z
m-95 -26 c-3 -5 -2 -10 4 -10 5 0 13 5 16 10 3 6 12 10 18 9 9 0 9 -2 0 -6 -7
-2 -13 -10 -13 -18 0 -7 -7 -18 -15 -25 -8 -7 -15 -18 -15 -24 0 -6 14 5 30
24 16 19 30 30 30 24 0 -6 -9 -19 -20 -29 -11 -10 -20 -23 -20 -28 0 -6 12 0
28 14 26 23 26 23 -2 -9 -29 -31 -43 -42 -32 -23 6 9 -22 26 -36 23 -7 -2 -1
23 11 43 3 6 6 13 7 18 3 15 4 17 10 17 3 0 2 -4 -1 -10z m121 -19 c-8 -13
-36 -15 -36 -3 0 4 5 13 12 20 14 14 34 0 24 -17z m99 -1 c-3 -5 -2 -10 3 -10
5 0 15 -14 22 -30 11 -28 11 -33 -8 -50 -27 -26 -27 -25 -42 10 -14 33 -31 38
-50 15 -14 -17 0 -21 17 -4 18 18 37 -25 23 -51 -13 -24 -30 -26 -30 -5 0 8 5
15 10 15 6 0 10 5 10 11 0 8 -4 8 -14 0 -10 -9 -16 -8 -26 4 -12 14 -17 12
-48 -17 -19 -18 -32 -27 -28 -20 8 13 156 142 163 142 2 0 1 -4 -2 -10z m-211
-156 c47 -99 72 -141 78 -132 6 9 8 7 6 -7 -4 -28 22 -86 35 -78 6 4 8 0 4
-11 -4 -10 -3 -15 3 -11 6 3 10 1 10 -4 0 -6 5 -11 10 -11 6 0 6 7 -2 19 -10
16 -6 25 28 65 37 43 64 58 64 36 0 -15 36 -12 49 4 10 12 9 20 -5 41 -16 24
-16 26 2 40 27 20 29 19 41 -20 l11 -35 -91 -85 c-50 -47 -99 -85 -108 -85
-10 0 -29 15 -43 33 -32 42 -164 316 -172 357 -13 62 13 25 80 -116z m122 108
c-15 -15 -18 -15 -26 -2 -14 23 -12 28 13 32 28 4 34 -9 13 -30z m-58 -49
c-32 -33 -70 -42 -60 -13 2 8 18 29 35 47 28 30 31 31 43 15 11 -14 8 -22 -18
-49z m216 -30 c16 -35 16 -37 -1 -54 -18 -18 -19 -18 -46 16 l-28 36 23 19
c31 26 32 26 52 -17z m-134 -22 c0 -11 -61 -81 -70 -81 -5 0 -13 15 -18 33 -8
28 -6 36 22 65 l31 33 17 -22 c10 -11 18 -24 18 -28z m73 -37 c-8 -21 -31 -17
-38 6 -6 19 -10 17 -47 -25 -22 -25 -44 -45 -50 -45 -6 0 16 28 48 63 l59 63
17 -24 c9 -14 14 -31 11 -38z m1222 -149 c9 -77 20 -157 24 -177 11 -45 7 -46
-75 -17 -32 11 -78 21 -102 21 -27 1 -41 5 -38 12 33 78 129 292 147 330 l24
49 3 -39 c1 -22 9 -102 17 -179z m-1368 58 c-3 -2 -12 15 -22 39 -28 69 -27
78 0 19 14 -29 24 -55 22 -58z m111 66 l14 -21 14 21 c17 23 34 28 33 9 0 -13
-127 -123 -133 -117 -2 2 -9 15 -16 28 -11 21 -8 27 26 62 21 21 41 39 44 39
3 0 11 -10 18 -21z m-723 -19 c127 -6 245 -13 263 -16 31 -5 33 -7 19 -22 -8
-9 -34 -48 -57 -87 -23 -38 -75 -113 -114 -165 -141 -186 -184 -264 -193 -355
-9 -83 11 -138 66 -185 186 -160 205 -163 249 -48 36 96 37 103 9 140 -41 55
-57 94 -63 156 -8 69 16 190 45 239 19 30 151 143 168 143 12 0 64 -180 63
-222 0 -23 -18 -76 -49 -140 -129 -272 -204 -434 -232 -505 -34 -85 -53 -113
-79 -113 -10 0 -30 -12 -45 -27 -24 -25 -26 -33 -21 -73 6 -43 4 -47 -23 -63
-28 -16 -30 -21 -29 -78 l1 -60 -57 -53 c-46 -42 -56 -58 -55 -82 1 -16 -5
-46 -13 -68 l-14 -39 -112 177 -112 177 10 162 c5 89 21 378 35 642 14 264 28
503 31 531 l5 52 37 -4 c20 -2 141 -8 267 -14z m813 -37 c-5 -25 -29 -28 -35
-4 -3 12 -10 18 -17 14 -6 -4 -5 1 3 10 10 13 18 14 33 6 10 -6 18 -18 16 -26z
m-438 -55 c13 -51 13 -51 -16 -72 -97 -72 -136 -98 -133 -90 15 37 125 221
130 218 4 -2 13 -27 19 -56z m300 -19 c0 -6 -4 -8 -9 -5 -5 4 -11 1 -13 -6 -3
-8 -6 -7 -10 3 -4 10 1 15 13 16 10 1 19 -3 19 -8z m-469 -158 c-94 -185 -97
-368 -8 -485 22 -29 24 -34 11 -56 -7 -14 -18 -42 -24 -62 -6 -22 -17 -38 -25
-38 -8 0 -15 5 -15 10 0 6 -29 29 -65 52 -78 48 -96 79 -103 170 -7 96 27 165
186 381 35 48 66 87 68 87 2 0 -9 -26 -25 -59z m3888 2 c19 -21 79 -88 135
-149 56 -60 182 -200 282 -310 100 -109 324 -356 498 -547 174 -192 316 -352
316 -357 0 -5 -119 -199 -265 -432 -392 -627 -393 -628 -402 -628 -5 0 -28 46
-53 101 -59 134 -140 269 -239 404 -45 61 -84 121 -88 134 -3 14 3 61 14 105
31 127 13 163 -100 198 -64 19 -71 24 -88 62 -11 25 -19 64 -19 99 0 53 -3 61
-39 100 -56 62 -78 111 -111 259 -17 73 -50 208 -75 300 -49 183 -54 214 -24
152 20 -41 32 -50 100 -77 33 -14 37 -20 59 -96 20 -69 27 -81 46 -81 19 0 22
7 28 63 4 34 14 91 21 127 17 83 10 117 -55 263 -27 61 -48 113 -45 115 2 2
14 -3 27 -12 27 -19 68 -21 68 -3 0 21 -38 135 -59 175 -12 24 -32 44 -51 52
-55 23 -47 33 21 27 58 -5 67 -9 98 -44z m-219 -303 c12 -52 28 -124 36 -159
7 -35 12 -66 10 -68 -11 -12 -41 16 -58 56 -11 25 -30 60 -44 78 -17 22 -27
54 -34 106 -6 41 -20 106 -30 143 -32 109 -25 113 40 23 53 -75 62 -94 80
-179z m-2010 176 c47 -4 89 -11 93 -15 5 -5 -21 -14 -58 -20 -76 -14 -173 -47
-195 -67 -19 -18 -10 -18 85 6 44 11 105 20 135 20 l55 -1 -91 -38 c-115 -49
-175 -83 -241 -139 -73 -61 -243 -255 -529 -601 -125 -152 -242 -323 -308
-451 -72 -141 -100 -222 -117 -344 -11 -80 -11 -87 15 -166 30 -94 31 -120 11
-225 -10 -55 -11 -83 -4 -103 6 -15 33 -133 60 -262 l50 -234 -2 -206 c-1
-119 4 -239 11 -287 14 -94 21 -77 -94 -213 -110 -129 -182 -177 -271 -179
-58 -2 -76 -17 -28 -24 90 -14 190 30 270 118 30 33 62 72 71 88 9 15 21 26
26 24 6 -2 21 -30 34 -63 28 -69 26 -118 -8 -227 -15 -49 -27 -71 -43 -77
l-22 -9 22 0 c11 -1 33 -15 47 -32 28 -33 34 -86 16 -133 -7 -20 -5 -33 10
-59 19 -32 20 -41 9 -137 l-12 -102 -81 4 c-78 3 -87 6 -213 71 -73 37 -139
67 -147 67 -22 0 -27 14 -15 49 7 20 18 31 30 31 26 0 15 19 -50 87 -62 66
-78 108 -57 156 11 28 12 44 4 77 -10 38 -9 43 22 81 l32 40 -36 108 c-39 118
-40 169 -8 263 15 44 14 50 -11 145 -15 54 -46 161 -71 238 -24 77 -60 220
-80 318 -20 97 -43 198 -51 225 -8 26 -15 73 -15 105 0 46 -8 74 -37 135 -20
42 -47 89 -60 103 -22 24 -24 36 -28 155 -3 71 -7 166 -11 212 -5 78 -7 83
-27 80 -17 -2 -22 -9 -20 -28 1 -14 0 -18 -3 -7 -6 20 -15 22 -33 5 -11 -11
-12 1 -9 62 3 61 9 83 31 118 22 34 26 47 17 57 -9 11 -3 18 28 34 35 18 43
28 60 83 14 43 17 66 10 75 -14 17 -3 29 31 36 34 7 56 36 65 85 7 42 -9 33
-19 -10 l-7 -33 -14 30 c-21 47 -17 54 31 66 24 6 50 17 56 25 6 8 62 128 124
266 62 139 134 295 160 347 l47 95 35 -67 c97 -183 278 -297 498 -313 100 -7
195 12 297 59 151 70 264 185 365 368 41 75 50 85 63 74 8 -7 53 -15 100 -19z
m2176 -312 c15 -46 16 -59 4 -128 -8 -46 -17 -73 -22 -68 -5 5 -13 61 -18 124
-8 116 -36 222 -80 308 -11 22 -20 43 -19 47 1 13 115 -226 135 -283z m-1757
110 c70 -60 131 -123 163 -168 115 -163 283 -424 344 -536 l65 -120 -72 -143
c-39 -78 -75 -146 -79 -152 -4 -5 -89 -165 -188 -355 -99 -190 -225 -430 -279
-535 -55 -104 -160 -305 -233 -445 -73 -140 -145 -277 -160 -305 -14 -27 -109
-207 -209 -398 l-183 -348 -97 148 c-54 81 -128 191 -165 243 -79 111 -146
222 -146 243 0 8 13 46 30 85 42 98 45 134 22 222 -12 45 -23 127 -27 205 -8
150 -26 264 -60 385 -18 61 -25 108 -25 171 0 90 -9 131 -37 162 -14 14 -16
41 -16 145 1 126 1 128 48 255 45 122 51 131 126 213 43 48 121 148 174 223
126 180 363 458 565 662 83 83 285 239 311 239 9 0 67 -43 128 -96z m-491
-106 c-35 -40 -121 -138 -193 -217 -207 -230 -245 -276 -374 -459 -69 -97
-144 -190 -171 -213 -56 -47 -85 -97 -135 -239 -21 -58 -40 -107 -42 -109 -1
-2 -13 4 -25 15 l-22 19 22 -32 c33 -47 25 -114 -12 -100 -22 9 -21 5 13 -36
27 -34 28 -39 19 -89 -5 -29 -11 -55 -13 -56 -2 -2 12 -24 31 -49 33 -43 34
-48 34 -132 0 -61 6 -105 19 -144 36 -103 63 -261 71 -417 5 -85 16 -180 24
-210 22 -78 20 -95 -19 -196 -40 -101 -41 -117 -19 -174 17 -41 16 -66 -2
-203 -6 -42 -2 -57 35 -132 22 -46 41 -92 41 -103 0 -11 -18 -46 -40 -78 -22
-33 -40 -66 -40 -75 0 -8 13 -33 30 -55 33 -44 37 -74 14 -110 -15 -23 -15
-28 0 -67 22 -57 20 -80 -6 -104 -27 -25 -92 -59 -130 -68 -26 -7 -28 -5 -23
21 12 61 21 194 13 194 -19 0 -29 41 -18 80 13 48 1 102 -30 135 l-21 22 66
32 c45 23 76 46 96 73 42 58 36 61 -19 9 -48 -47 -117 -90 -127 -80 -3 3 4 32
16 65 32 91 29 168 -8 236 l-30 56 33 43 c33 43 79 147 70 157 -3 2 -15 -16
-28 -42 -12 -25 -25 -46 -29 -46 -15 0 -23 133 -21 332 l3 207 -47 227 c-25
125 -52 245 -60 267 -12 35 -12 51 2 125 17 93 14 140 -17 229 -24 70 -24 105
1 216 44 199 200 449 499 802 284 334 397 442 530 507 42 20 82 37 89 37 8 1
-15 -32 -50 -71z m1137 -853 l47 -86 -108 -202 c-59 -111 -128 -242 -154 -292
-147 -278 -689 -1302 -891 -1682 l-234 -441 -170 -1 c-93 -1 -175 2 -181 6 -6
5 -39 50 -72 102 -49 74 -60 97 -52 111 21 40 11 105 -29 186 l-40 79 13 73
c7 40 15 75 18 78 3 3 30 -32 61 -78 149 -223 308 -453 316 -456 5 -2 32 41
61 95 101 188 448 848 685 1303 70 135 174 334 231 443 57 108 151 286 208
395 57 108 133 254 170 325 37 70 69 127 71 127 2 0 24 -38 50 -85z m2720
-425 l139 -153 -40 -36 c-23 -20 -209 -189 -415 -376 -517 -471 -533 -485
-540 -485 -3 0 -9 16 -12 36 -6 33 4 52 112 223 64 102 178 283 253 401 75
118 170 269 212 335 41 66 88 141 103 167 16 27 32 46 38 45 5 -2 73 -73 150
-157z m-5575 -556 c-7 -19 -38 -70 -70 -112 -75 -100 -87 -126 -100 -208 -12
-77 -20 -108 -26 -101 -2 2 0 28 5 58 22 127 22 139 6 139 -24 0 -4 30 80 121
40 44 82 100 92 125 20 50 31 33 13 -22z m-45 -221 c-4 -10 -13 -70 -20 -133
-10 -85 -21 -133 -44 -185 -35 -81 -40 -75 -10 11 11 32 24 104 28 160 5 58
16 114 25 132 17 34 33 45 21 15z m55 -61 c0 -5 -7 -17 -15 -28 -14 -18 -14
-17 -4 9 12 27 19 34 19 19z m37 -44 c-3 -8 -6 -5 -6 6 -1 11 2 17 5 13 3 -3
4 -12 1 -19z m345 -1650 c20 -33 33 -67 36 -99 4 -45 3 -49 -17 -49 -14 0 -21
6 -21 20 0 22 15 27 23 8 4 -8 6 -9 6 -2 1 6 -6 17 -14 24 -8 7 -15 20 -15 30
0 9 -18 42 -40 73 -22 30 -40 58 -40 61 0 3 11 0 25 -6 14 -6 39 -33 57 -60z
m-69 20 c40 -50 57 -80 57 -102 0 -18 -25 -12 -52 12 -22 18 -23 36 -3 28 8
-3 15 -1 15 4 0 5 -10 10 -22 12 -37 5 -73 88 -38 88 5 0 24 -19 43 -42z m172
-64 c0 -10 -6 -19 -14 -19 -22 0 -25 23 -4 28 15 4 14 5 -4 6 -12 0 -25 -4
-29 -10 -6 -11 -54 54 -54 74 0 4 24 -8 53 -26 33 -21 52 -40 52 -53z m-221
33 c14 -20 23 -37 21 -37 -11 0 -85 33 -85 38 0 7 32 43 36 39 2 -1 14 -19 28
-40z m736 -90 c12 -49 22 -116 23 -149 2 -54 -1 -62 -23 -79 -40 -29 -128 -47
-380 -74 -129 -14 -323 -37 -430 -51 -107 -14 -220 -24 -250 -22 l-55 3 70 29
c396 166 501 229 596 354 23 31 27 32 57 21 53 -18 207 -7 269 20 28 13 59 32
69 42 22 25 25 20 54 -94z m-757 55 c47 -18 86 -47 76 -57 -3 -3 -32 9 -64 25
-64 33 -75 36 -57 18 16 -16 15 -28 -1 -28 -15 0 -39 44 -30 54 10 10 25 7 76
-12z m307 -2 c12 -8 4 -21 -45 -70 -99 -101 -235 -181 -459 -270 -71 -28 -146
-60 -167 -70 -55 -29 -79 -26 -79 8 0 39 18 98 34 111 20 17 46 2 46 -25 0
-33 31 -47 58 -28 30 21 28 48 -5 73 -24 17 -26 22 -13 31 13 8 13 13 2 31
-12 19 -12 20 10 14 37 -12 77 -45 72 -59 -7 -17 22 -46 46 -46 16 0 40 26 40
44 0 3 -14 21 -31 41 -17 19 -26 35 -20 35 6 0 8 7 5 15 -8 20 5 19 43 -4 18
-11 33 -30 35 -43 2 -17 11 -24 30 -26 22 -3 29 2 34 24 6 22 1 31 -25 51 -17
13 -31 33 -31 44 0 10 2 19 5 19 19 0 54 -27 73 -55 12 -19 28 -35 35 -35 17
0 37 20 37 37 0 16 -65 83 -80 83 -5 0 -10 4 -10 10 0 5 7 7 15 4 8 -4 15 -1
15 5 0 33 77 -5 82 -41 4 -27 18 -32 42 -15 15 11 17 17 7 35 -10 18 -9 21 4
16 8 -4 15 -14 15 -24 0 -10 7 -24 16 -31 26 -21 54 20 47 69 -6 33 -5 36 10
24 19 -16 57 -7 57 14 0 16 28 18 50 4z m-390 -19 c17 -33 12 -42 -17 -29 -38
16 -37 16 -23 33 17 20 27 19 40 -4z m4848 -16 c2 -2 12 -54 23 -117 19 -111
39 -488 25 -488 -3 0 -27 15 -54 34 -40 29 -92 97 -92 121 0 12 45 -8 58 -26
18 -26 49 -24 57 3 9 25 -19 50 -76 67 -30 9 -40 19 -49 45 -12 37 -51 53 -92
36 -22 -8 -21 -9 7 -11 17 -1 35 -3 40 -4 6 -2 15 -3 21 -4 7 0 14 -10 17 -22
4 -16 2 -19 -11 -14 -9 4 -52 19 -94 34 -43 14 -78 29 -78 32 0 16 86 18 153
4 39 -8 73 -15 75 -15 1 0 7 -11 12 -25 9 -24 50 -37 50 -16 0 5 -7 8 -16 7
-9 0 -19 4 -21 10 -2 7 8 9 27 6 52 -7 34 16 -37 49 -53 25 -86 33 -149 36
-45 3 -89 1 -97 -3 -10 -6 17 -9 71 -9 69 0 99 -5 147 -24 101 -42 103 -56 2
-21 -68 24 -201 38 -219 23 -22 -18 -108 -52 -108 -44 0 5 19 18 43 29 23 12
34 21 24 22 -12 0 -16 4 -11 13 4 6 -5 0 -21 -15 -15 -16 -33 -28 -40 -28 -19
0 -48 -38 -42 -55 8 -19 21 -19 39 -2 7 8 23 19 34 25 19 10 21 9 17 -13 -4
-19 -15 -26 -62 -37 -49 -12 -56 -17 -56 -38 0 -15 6 -25 15 -26 9 0 10 1 3 3
-42 14 33 62 78 50 10 -3 22 -1 25 4 8 14 203 10 260 -5 93 -25 136 -55 98
-70 -22 -8 -33 2 -14 14 17 11 13 12 -70 29 -59 11 -297 17 -307 7 -4 -3 -20
-7 -37 -7 -17 -1 -23 -3 -13 -6 9 -2 17 -6 17 -9 0 -2 -33 -38 -74 -80 l-75
-75 19 58 c10 32 30 89 44 127 34 86 66 219 66 269 0 67 46 127 97 127 34 0
28 -14 -17 -44 -22 -14 -40 -30 -40 -35 0 -10 46 -8 73 4 36 15 1 -39 -39 -60
-25 -13 -40 -28 -42 -43 -4 -26 5 -28 36 -6 13 9 26 14 28 11 3 -3 -13 -18
-35 -33 -53 -38 -54 -88 -1 -54 11 7 12 12 3 21 -9 9 -4 18 24 40 36 29 63 37
63 19 0 -5 -6 -10 -14 -10 -8 0 -28 -12 -43 -26 -27 -24 -27 -25 -3 -12 14 7
30 13 35 14 6 0 23 6 38 12 29 12 77 7 77 -9 0 -5 7 -9 16 -9 8 0 12 5 8 11
-10 17 50 1 100 -27 48 -27 79 -23 74 9 -2 13 -14 23 -32 28 -16 5 -42 20 -58
36 -26 25 -97 51 -141 53 -10 0 -50 -16 -88 -35 -76 -38 -79 -39 -79 -27 0 4
33 25 74 46 79 41 101 43 194 16 75 -22 68 5 -18 70 -47 35 -57 46 -44 53 10
6 26 0 52 -19 65 -48 93 -77 81 -85 -17 -10 12 -63 36 -67 20 -4 20 -4 0 12
-18 14 -18 15 -2 16 35 0 15 37 -54 95 -59 49 -67 61 -52 67 16 6 132 0 141
-7z m89 -91 c44 -103 93 -313 93 -395 0 -27 -8 -58 -21 -79 -20 -34 -66 -79
-81 -80 -4 0 -7 75 -7 168 1 155 -14 306 -41 427 -24 103 5 83 57 -41z m-4888
31 c8 -8 12 -17 9 -20 -8 -8 -128 53 -128 65 0 13 99 -25 119 -45z m-121 9 c2
-15 -4 -20 -24 -22 -35 -3 -45 -12 -13 -12 33 0 131 -69 127 -89 -4 -20 -40
-21 -46 -2 -3 10 0 12 12 8 11 -4 16 -3 14 3 -2 6 -37 26 -78 45 -41 19 -76
40 -78 48 -4 18 28 31 42 17 15 -15 30 -12 17 3 -6 8 -8 17 -4 21 11 11 28 1
31 -20z m4618 -15 c-37 -22 -72 -39 -79 -36 -6 2 10 16 36 31 26 15 47 32 47
37 0 5 14 9 32 9 30 0 28 -2 -36 -41z m-4366 16 c0 -8 -7 -15 -15 -15 -8 0
-15 7 -15 15 0 8 7 15 15 15 8 0 15 -7 15 -15z m4513 -34 c47 -34 63 -59 30
-47 -89 35 -110 38 -148 22 -46 -20 -44 -20 -38 4 6 24 82 72 98 62 6 -4 32
-22 58 -41z m-4865 -20 c1 -29 0 -29 -31 -19 -43 15 -43 14 -10 31 39 21 40
21 41 -12z m45 -8 c-7 -3 -9 -11 -6 -20 4 -10 2 -14 -7 -11 -7 2 -15 13 -16
25 -3 17 0 20 18 15 13 -3 17 -7 11 -9z m204 -3 c1 -11 -2 -18 -8 -15 -11 7
-12 35 -1 35 4 0 8 -9 9 -20z m25 -12 c-9 -9 -12 -7 -12 12 0 19 3 21 12 12 9
-9 9 -15 0 -24z m4716 -7 c3 -8 -1 -12 -9 -9 -7 2 -15 10 -17 17 -3 8 1 12 9
9 7 -2 15 -10 17 -17z m-5005 -4 c51 -22 98 -67 95 -91 -4 -27 -41 -29 -47 -1
-3 17 -1 18 13 6 9 -8 19 -12 21 -9 11 11 -91 79 -127 84 -21 4 -41 11 -44 15
-8 14 53 11 89 -4z m-79 -23 c34 -34 14 -44 -36 -18 -24 12 -28 18 -17 25 21
13 36 11 53 -7z m4921 5 c47 -12 85 -30 85 -40 0 -3 -19 0 -42 8 -29 10 -64
13 -108 9 l-65 -6 40 20 c48 23 40 22 90 9z m-4957 -39 c23 -10 42 -23 42 -29
0 -21 -21 -22 -46 -2 -14 11 -41 23 -60 27 -19 3 -31 10 -28 15 9 14 46 10 92
-11z m5036 -18 c27 -9 51 -23 53 -29 3 -7 9 -13 15 -13 5 0 6 5 2 11 -4 7 -1
10 6 7 8 -2 16 -10 18 -16 6 -19 -37 -14 -67 7 -17 12 -62 25 -117 33 -70 10
-83 14 -59 19 38 8 87 2 149 -19z m-5071 -11 c7 -7 4 -19 -8 -37 -10 -15 -21
-38 -24 -51 -6 -24 -7 -24 -31 14 -14 21 -40 45 -57 54 l-33 16 33 11 c36 12
104 9 120 -7z m-156 -22 c38 -14 71 -46 94 -91 30 -60 28 -62 -58 -54 -81 7
-226 30 -277 44 -69 19 -26 56 104 89 101 26 101 26 137 12z m273 -14 c10 -12
10 -18 0 -30 -17 -21 -37 -19 -45 5 -12 37 20 55 45 25z m1110 -12 c0 -39 -9
-49 -61 -72 -70 -31 -168 -48 -344 -60 -177 -12 -270 -26 -422 -65 -125 -32
-153 -33 -153 -7 0 11 -5 23 -11 27 -8 4 -10 -13 -7 -57 l3 -64 -45 -7 c-25
-3 -108 -7 -185 -7 -210 -1 -416 31 -483 75 -22 15 -24 20 -17 72 4 32 14 65
22 74 14 16 19 16 51 2 44 -18 244 -50 367 -59 101 -7 244 3 545 40 113 13
289 34 392 45 190 21 315 50 325 76 9 24 23 16 23 -13z m3560 3 c0 -3 -4 -8
-10 -11 -5 -3 -10 -1 -10 4 0 6 5 11 10 11 6 0 10 -2 10 -4z m182 -92 c45 -18
53 -23 29 -19 -19 3 -65 8 -101 11 -61 6 -67 9 -62 26 6 24 41 20 134 -18z
m-213 -3 c-15 -5 -22 6 -14 19 6 9 10 9 16 -1 5 -8 4 -15 -2 -18z m-3529 11
c0 -23 -37 -53 -87 -72 -55 -21 -103 -27 -398 -49 -89 -7 -182 -23 -295 -51
-91 -22 -171 -40 -177 -40 -7 0 -13 10 -13 23 0 20 9 24 83 39 45 9 136 28
202 42 66 14 192 30 280 36 175 12 288 32 350 60 46 21 55 23 55 12z m3658
-29 c-10 -2 -28 -2 -40 0 -13 2 -5 4 17 4 22 1 32 -1 23 -4z m168 -59 c12 -3
30 -24 41 -48 l21 -42 -57 19 c-78 28 -216 34 -277 13 -63 -21 -63 -21 -25 18
19 19 46 37 60 39 42 6 214 7 237 1z m-1 -89 c59 -20 175 -100 175 -120 0 -16
-83 -42 -180 -57 -35 -6 -123 -8 -195 -6 -141 5 -206 23 -227 61 -10 19 -5 27
40 68 72 66 114 79 237 75 60 -2 120 -10 150 -21z m335 -84 c0 -32 -5 -73 -11
-92 -33 -97 -180 -168 -382 -185 -143 -11 -374 32 -397 76 -5 10 -10 51 -10
91 l0 73 28 -27 c45 -43 105 -59 237 -64 242 -10 457 56 504 154 9 18 19 33
24 33 4 0 7 -26 7 -59z"/>
<path d="M3645 12301 c-98 -45 -174 -180 -135 -241 7 -11 10 -5 10 25 1 105
105 218 202 218 21 0 35 4 32 8 -9 15 -67 10 -109 -10z"/>
<path d="M3586 12165 c-3 -9 -5 -40 -5 -68 l2 -52 7 65 c8 67 7 82 -4 55z"/>
<path d="M4013 10676 c-43 -75 -63 -134 -62 -176 1 -21 2 -19 11 10 5 19 30
79 55 133 25 54 44 100 42 102 -3 2 -23 -29 -46 -69z"/>
<path d="M6572 9924 c-12 -8 -22 -22 -22 -29 0 -8 -10 -21 -22 -28 -13 -8 -87
-51 -165 -97 -78 -46 -141 -86 -139 -87 2 -2 73 37 160 87 148 85 185 102 171
81 -7 -12 33 -41 56 -41 21 0 59 46 59 71 0 24 -34 59 -58 59 -10 0 -28 -7
-40 -16z m74 -23 c23 -46 -22 -96 -62 -67 -15 12 -14 13 13 19 41 8 51 36 21
61 -21 17 -21 18 -3 15 11 -2 25 -15 31 -28z m-54 -12 c15 -8 19 -8 14 0 -4 6
-3 11 3 11 18 0 22 -19 5 -28 -22 -12 -54 -4 -54 14 0 17 5 17 32 3z"/>
<path d="M3516 9325 c-12 -18 -16 -51 -17 -132 -2 -100 -2 -103 -10 -48 -4 33
-9 88 -10 123 -3 42 -8 62 -17 62 -16 0 -31 -38 -47 -125 l-13 -70 -1 88 c-1
48 -4 87 -7 87 -27 0 -43 -26 -55 -89 -6 -39 -15 -68 -20 -66 -4 3 -10 27 -14
53 -13 99 -37 96 -43 -6 -1 -37 -5 -77 -8 -90 -5 -23 -5 -23 -29 7 -14 16 -25
41 -25 55 0 28 14 35 24 11 3 -8 10 -15 16 -15 17 0 11 33 -11 70 l-21 34 -19
-34 c-27 -52 -25 -118 6 -150 21 -22 24 -31 16 -51 -10 -24 -10 -24 -10 5 -1
25 -4 27 -26 22 l-25 -6 0 90 c0 53 -4 90 -10 90 -5 0 -10 -12 -10 -27 l0 -27
-33 32 c-18 18 -36 30 -38 27 -3 -2 -2 -28 2 -57 10 -70 9 -177 -1 -208 -6
-17 -7 -9 -3 24 6 49 6 49 -21 42 -30 -7 -31 -7 -11 41 16 38 21 158 6 167 -8
5 -21 -48 -40 -174 l-8 -55 -13 33 c-14 37 -26 41 -35 11 -8 -26 -29 -20 -33
10 -4 25 16 81 29 81 4 0 10 -9 14 -19 3 -11 12 -25 20 -31 13 -11 14 -5 12
40 -2 28 -8 55 -13 58 -6 4 -18 18 -27 31 -15 23 -17 23 -23 5 -3 -10 -22 -51
-41 -90 -30 -61 -34 -76 -26 -100 6 -16 8 -54 5 -85 -4 -54 11 -129 27 -129 4
0 27 29 50 65 24 36 45 65 47 65 2 0 1 -20 -2 -44 -4 -24 -2 -51 3 -61 8 -13
14 -4 28 47 17 57 19 60 24 34 8 -41 26 -43 38 -4 6 18 11 25 12 16 1 -18 31
-26 31 -9 0 13 48 61 62 61 9 0 9 -3 0 -12 -13 -13 -17 -118 -4 -118 5 0 24
37 43 82 l34 81 5 -64 c6 -82 17 -65 26 40 4 45 10 84 15 86 4 3 10 -33 14
-80 4 -47 11 -83 15 -80 4 2 13 46 20 97 l14 93 7 -70 c13 -115 19 -139 32
-126 7 7 12 45 12 97 l0 86 18 -78 c9 -43 20 -80 23 -83 4 -3 3 28 -1 70 -4
46 -3 79 3 83 10 6 22 -61 22 -123 1 -102 39 -49 47 67 3 40 9 75 13 77 4 3
16 -35 25 -83 10 -48 22 -94 26 -102 16 -28 8 104 -10 172 l-17 67 28 28 27
28 -29 44 c-17 24 -30 48 -30 53 0 16 -18 8 -34 -17z m38 -88 c-10 -28 -24
-19 -24 15 0 29 2 31 15 17 9 -9 13 -23 9 -32z m-94 -52 c0 -14 -4 -25 -10
-25 -5 0 -10 11 -10 25 0 14 5 25 10 25 6 0 10 -11 10 -25z m-340 -95 c0 -22
-3 -40 -8 -40 -4 0 -6 18 -4 40 2 22 6 40 8 40 2 0 4 -18 4 -40z m-207 -131
c-10 -16 -21 -29 -25 -29 -9 0 -10 36 -2 68 6 22 8 22 25 6 18 -16 18 -18 2
-45z"/>
<path d="M3470 8810 c-194 -57 -337 -105 -486 -164 l-132 -51 -6 -49 c-3 -28
-3 -52 0 -55 3 -3 16 1 29 9 206 130 231 139 396 149 104 7 135 12 182 34 47
21 58 31 63 56 5 26 15 34 63 51 58 23 81 37 81 51 0 17 -56 8 -190 -31z"/>
<path d="M2965 8304 c-44 -24 -89 -44 -99 -44 -15 0 -17 -3 -9 -11 19 -19 77
-1 142 42 34 22 61 45 61 50 0 14 -9 10 -95 -37z"/>
<path d="M3424 10084 c-8 -20 -14 -40 -12 -45 2 -6 11 10 20 36 20 53 14 61
-8 9z"/>
<path d="M4572 9419 c-31 -12 -19 -29 21 -29 34 0 35 -1 165 -73 131 -73 95
-22 -43 59 -79 47 -110 56 -143 43z"/>
<path d="M3672 8098 c-5 -7 -13 -23 -16 -35 -4 -11 -13 -24 -21 -27 -19 -7
-19 -55 1 -81 11 -15 18 -17 32 -9 14 9 17 26 17 88 0 42 -1 76 -1 76 -1 0 -6
-6 -12 -12z m-6 -114 c-5 -13 -10 -14 -18 -6 -6 6 -8 18 -4 28 5 13 10 14 18
6 6 -6 8 -18 4 -28z"/>
<path d="M4222 9068 c48 -87 192 -217 215 -195 2 3 -27 30 -66 61 -38 31 -90
83 -116 116 -25 33 -48 60 -51 60 -3 0 5 -19 18 -42z"/>
<path d="M4275 8556 c-167 -52 -292 -105 -268 -113 16 -6 281 72 347 101 66
30 125 66 106 65 -8 0 -91 -24 -185 -53z"/>
<path d="M5034 8894 c-18 -14 -18 -15 4 -4 12 6 22 13 22 15 0 8 -5 6 -26 -11z"/>
<path d="M5248 8773 c7 -3 16 -2 19 1 4 3 -2 6 -13 5 -11 0 -14 -3 -6 -6z"/>
<path d="M5350 8463 c0 -19 41 -73 55 -73 9 0 13 -4 10 -10 -3 -5 14 -38 39
-73 46 -64 86 -107 86 -91 0 10 -126 200 -154 232 -19 22 -36 29 -36 15z"/>
<path d="M5310 8346 c0 -2 7 -9 15 -16 9 -7 15 -8 15 -2 0 5 -7 12 -15 16 -8
3 -15 4 -15 2z"/>
<path d="M5220 8272 c0 -12 30 -37 68 -56 43 -22 40 -8 -8 32 -38 31 -60 40
-60 24z"/>
<path d="M5339 8186 c6 -8 43 -32 82 -55 83 -47 72 -25 -15 31 -61 39 -87 49
-67 24z"/>
<path d="M5150 8175 c0 -16 22 -30 39 -23 5 1 -2 11 -15 21 -21 16 -24 16 -24
2z"/>
<path d="M2682 7973 c-15 -48 -8 -55 8 -8 7 20 10 38 8 41 -3 2 -10 -13 -16
-33z"/>
<path d="M2651 7889 c-6 -18 -9 -34 -7 -36 2 -2 9 10 15 28 6 18 9 34 7 36 -2
2 -9 -10 -15 -28z"/>
<path d="M2416 7882 c4 -15 11 -33 17 -39 18 -24 148 -116 154 -109 5 5 -13
24 -135 136 -42 39 -42 39 -36 12z"/>
<path d="M5068 8025 c-26 -14 -50 -30 -53 -35 -5 -9 94 41 114 57 15 11 -22
-2 -61 -22z"/>
<path d="M4320 7340 c-47 -10 -116 -30 -155 -44 -75 -28 -72 -28 115 5 63 11
157 21 208 22 93 2 113 10 66 27 -39 15 -139 11 -234 -10z"/>
<path d="M4122 7219 c-97 -9 -292 -56 -292 -70 0 -12 16 -11 104 6 42 8 154
22 249 31 197 19 222 24 152 35 -61 9 -94 9 -213 -2z"/>
<path d="M4345 7141 c-11 -5 -17 -10 -14 -10 3 -1 68 -17 145 -36 145 -37 177
-38 153 -8 -27 32 -100 55 -183 59 -45 2 -90 0 -101 -5z"/>
<path d="M1768 6645 c-5 -71 -3 -94 9 -110 15 -19 15 -19 9 6 -3 14 -2 39 3
56 6 19 4 50 -3 84 l-13 54 -5 -90z"/>
<path d="M3875 6667 c-44 -23 -100 -57 -125 -74 -66 -49 -22 -42 85 13 100 51
145 81 145 95 0 17 -24 9 -105 -34z"/>
<path d="M4275 6310 c-90 -19 -362 -129 -338 -137 6 -2 77 18 159 45 82 27
182 57 222 67 39 9 72 21 72 26 0 11 -60 10 -115 -1z"/>
<path d="M4202 6128 c-106 -15 -447 -137 -430 -154 3 -3 45 9 94 26 147 51
313 90 411 97 115 7 125 22 23 36 -19 2 -63 0 -98 -5z"/>
<path d="M4154 5870 c-116 -41 -415 -202 -484 -260 l-25 -22 30 7 c17 4 82 35
145 69 63 35 179 96 257 137 79 41 143 77 143 82 0 10 -7 8 -66 -13z"/>
<path d="M4518 5644 c-64 -19 -68 -32 -26 -68 46 -40 187 -121 195 -112 10 10
-35 53 -105 98 -60 39 -63 43 -41 49 13 4 47 7 76 8 59 1 77 16 38 31 -35 13
-80 12 -137 -6z"/>
<path d="M3445 5412 c6 -5 69 -20 140 -32 72 -12 226 -46 344 -76 118 -30 216
-52 218 -50 6 6 -131 61 -222 89 -44 14 -127 35 -185 47 -114 24 -312 39 -295
22z"/>
<path d="M3790 5151 c0 -29 539 -345 557 -327 9 9 -17 27 -152 105 -66 38
-176 102 -245 143 -134 79 -160 92 -160 79z"/>
<path d="M4885 4679 c-34 -76 -145 -400 -145 -424 1 -31 24 17 86 179 55 141
98 285 89 294 -3 3 -16 -19 -30 -49z"/>
<path d="M4777 4603 c-3 -5 -28 -67 -56 -138 -48 -124 -92 -205 -110 -205 -5
0 -103 66 -218 146 -114 80 -212 148 -218 151 -5 2 17 -21 50 -53 76 -72 342
-272 373 -280 34 -9 66 26 103 115 50 118 105 311 76 264z"/>
<path d="M4943 4331 c-59 -59 -133 -124 -164 -144 -69 -43 -85 -63 -43 -53 75
18 260 180 304 265 11 23 18 41 16 41 -3 0 -54 -49 -113 -109z"/>
<path d="M5030 4100 c0 -6 7 -22 16 -35 20 -31 13 -50 -28 -75 -42 -25 -83
-25 -115 0 -14 11 -39 20 -54 20 -28 0 -29 -1 -26 -53 3 -67 -9 -82 -76 -97
-58 -14 -97 -45 -134 -108 -58 -98 -61 -174 -11 -238 13 -15 32 -49 44 -75 12
-26 44 -70 71 -98 56 -58 81 -63 138 -30 27 16 62 23 147 30 61 4 114 11 118
16 4 4 32 36 64 70 42 47 56 70 56 93 0 43 -24 39 -99 -20 -36 -28 -66 -50
-68 -50 -10 0 5 15 77 74 73 61 81 71 99 129 17 58 25 102 22 135 -1 10 -6 10
-23 1 -33 -18 -176 -124 -252 -187 -138 -115 -138 -114 -138 -157 -1 -22 2
-50 7 -63 7 -22 6 -22 -36 -17 -113 15 -109 14 -128 58 -10 23 -35 64 -56 91
-44 57 -60 98 -51 129 14 45 125 127 241 177 148 63 191 85 251 131 l52 38 18
-41 18 -40 -25 -19 c-13 -10 -29 -19 -35 -19 -13 0 -54 -93 -54 -122 0 -23 18
-15 79 36 34 29 48 34 72 29 27 -5 29 -3 29 23 0 30 -70 157 -112 205 -29 33
-98 75 -98 59z"/>
<path d="M5023 3845 c-49 -33 -160 -88 -331 -165 -94 -43 -103 -54 -60 -76 87
-45 314 16 363 98 18 31 86 178 82 178 -1 0 -26 -16 -54 -35z"/>
<path d="M5430 3412 c-8 -3 -49 -37 -91 -77 -97 -92 -206 -169 -272 -191 l-52
-18 44 -11 c25 -6 46 -16 48 -22 2 -6 -14 -28 -36 -49 -44 -40 -48 -57 -27
-113 18 -49 36 -51 36 -4 0 54 18 82 78 123 86 60 108 86 126 151 10 37 23 62
34 66 9 4 32 19 50 35 47 40 76 45 135 20 28 -12 53 -19 56 -17 5 6 -76 93
-99 104 -8 5 -22 6 -30 3z"/>
<path d="M5466 2960 c-17 -25 -42 -67 -57 -95 -40 -75 -65 -89 -162 -93 -45
-2 -86 -7 -90 -12 -13 -11 40 -48 87 -61 83 -23 187 15 242 86 26 35 27 37 18
128 l-9 92 -29 -45z"/>
<path d="M5199 2503 c14 -27 50 -57 126 -105 101 -64 283 -160 296 -156 14 5
-35 37 -186 123 -66 37 -146 87 -177 111 -62 48 -74 53 -59 27z"/>
<path d="M5931 2403 c-28 -82 -78 -168 -165 -288 -36 -49 -66 -95 -66 -102 0
-22 49 -26 98 -8 57 21 88 48 113 97 25 48 69 231 69 283 0 45 -9 85 -19 85
-3 0 -17 -30 -30 -67z"/>
<path d="M6110 1930 c-7 -30 -18 -66 -26 -80 -16 -34 -95 -109 -165 -159 -63
-45 -77 -67 -55 -89 45 -45 264 -9 315 52 17 21 8 20 -37 -3 -65 -33 -201 -52
-246 -35 -17 6 5 27 107 103 73 53 114 116 122 186 10 76 1 90 -15 25z"/>
<path d="M5966 1927 c-24 -43 -63 -76 -198 -171 -61 -42 -83 -66 -60 -66 21 0
194 124 229 164 31 36 72 116 58 116 -2 0 -15 -20 -29 -43z"/>
<path d="M5870 1506 c0 -8 168 -65 229 -77 68 -13 148 -2 185 26 30 23 17 25
-56 8 -66 -15 -70 -14 -202 16 -134 31 -156 35 -156 27z"/>
<path d="M6374 1399 c-49 -51 -137 -87 -242 -98 -91 -10 -151 -32 -159 -58 -3
-8 11 -6 39 7 24 11 61 20 83 20 132 1 249 46 293 113 32 47 24 56 -14 16z"/>
<path d="M6366 1329 c-55 -34 -85 -46 -206 -83 -92 -27 -154 -63 -228 -132
l-47 -44 36 0 c23 0 70 18 135 51 l99 51 83 -7 c77 -6 83 -5 80 12 -2 13 -19
21 -63 29 l-60 11 58 2 c70 1 90 11 122 59 14 20 32 47 41 60 22 30 7 28 -50
-9z"/>
<path d="M2457 5804 c-4 -4 -7 -14 -7 -23 0 -11 3 -12 11 -4 6 6 10 16 7 23
-2 6 -7 8 -11 4z"/>
<path d="M2019 5803 c-13 -16 -12 -17 4 -4 16 13 21 21 13 21 -2 0 -10 -8 -17
-17z"/>
<path d="M1914 5688 l-29 -33 33 29 c30 28 37 36 29 36 -2 0 -16 -15 -33 -32z"/>
<path d="M1755 4893 c-16 -3 -34 -9 -40 -15 -7 -7 0 -9 24 -4 18 3 54 6 79 6
25 0 43 2 41 4 -8 7 -75 13 -104 9z"/>
<path d="M2220 4418 c-80 -27 -214 -67 -299 -89 -85 -21 -156 -41 -159 -44
-12 -12 77 -4 170 15 160 33 424 129 444 162 7 12 4 11 -156 -44z"/>
<path d="M1730 4163 c0 -5 15 -20 34 -35 21 -17 42 -48 55 -80 11 -29 20 -46
20 -37 1 30 -22 84 -47 112 -32 34 -21 34 43 -1 l50 -27 5 -70 5 -70 13 40
c13 45 15 75 5 100 -13 35 -183 97 -183 68z"/>
<path d="M1347 4153 c-3 -4 -8 -26 -12 -48 -4 -22 -15 -48 -24 -58 -16 -19
-39 -110 -40 -161 -1 -31 40 -104 97 -175 l35 -43 84 4 c74 4 93 9 171 49 74
38 162 107 162 128 0 3 -75 6 -168 6 -164 1 -202 6 -330 46 -33 11 -33 11 -26
57 4 26 8 49 9 50 2 2 16 -5 32 -16 60 -43 217 -53 406 -26 41 6 46 9 35 22
-21 25 -254 132 -321 147 -34 8 -72 17 -83 20 -12 4 -24 3 -27 -2z"/>
<path d="M1895 3872 c-64 -35 -72 -43 -91 -90 -15 -39 -23 -49 -32 -40 -20 20
-111 -30 -142 -79 -25 -39 -28 -41 -43 -25 -15 14 -21 14 -52 3 -28 -10 -39
-10 -51 -1 -8 8 -28 10 -48 7 -31 -5 -37 -2 -62 34 -28 41 -61 66 -72 55 -3
-4 9 -21 28 -39 18 -17 40 -42 48 -55 13 -20 21 -23 48 -17 23 4 41 1 59 -11
23 -15 27 -15 49 0 27 17 51 13 60 -10 9 -24 23 -16 43 24 12 25 36 47 72 69
49 29 55 31 66 16 17 -23 32 -10 40 34 9 49 36 78 107 114 57 29 80 49 56 49
-7 0 -44 -17 -83 -38z"/>
<path d="M1310 3487 c0 -7 12 -30 27 -52 15 -21 39 -72 53 -111 28 -75 85
-184 118 -224 l19 -23 40 59 c55 81 115 202 111 224 -3 18 -8 17 -76 -11 -92
-37 -115 -37 -141 -1 -24 35 -136 152 -145 152 -3 0 -6 -6 -6 -13z"/>
<path d="M1570 3031 c0 -25 182 -119 246 -127 l39 -5 -55 27 c-30 15 -94 47
-142 71 -49 24 -88 39 -88 34z"/>
<path d="M1885 2654 c-63 -56 -161 -123 -194 -131 -20 -5 -30 0 -53 28 -30 36
-40 20 -12 -19 35 -50 84 -44 167 20 56 42 126 109 138 131 13 24 11 22 -46
-29z"/>
<path d="M1891 2432 c-19 -48 -74 -165 -122 -261 -49 -96 -87 -176 -85 -179
10 -9 71 89 121 193 51 107 132 321 124 330 -2 2 -20 -35 -38 -83z"/>
<path d="M1947 2253 c-92 -158 -152 -279 -163 -328 -10 -45 2 -28 68 97 149
280 199 378 190 378 -6 0 -49 -66 -95 -147z"/>
<path d="M1727 1580 c93 -56 263 -128 263 -110 0 13 -55 40 -179 90 -113 45
-131 49 -84 20z"/>
<path d="M1660 1474 c0 -7 53 -67 95 -107 66 -62 136 -90 240 -95 82 -4 88 -3
76 12 -20 24 -76 56 -171 99 -148 67 -240 102 -240 91z"/>
<path d="M1830 1209 c14 -7 77 -13 140 -15 l115 -2 -95 7 c-52 5 -115 11 -140
15 -39 5 -42 5 -20 -5z"/>
<path d="M2224 1294 c-18 -14 -18 -15 4 -4 12 6 22 13 22 15 0 8 -5 6 -26 -11z"/>
<path d="M2007 773 c-12 -11 -7 -41 7 -46 8 -3 22 0 32 8 15 11 16 15 5 29
-14 17 -33 21 -44 9z m33 -18 c0 -8 -7 -15 -15 -15 -8 0 -15 7 -15 15 0 8 7
15 15 15 8 0 15 -7 15 -15z"/>
<path d="M1854 746 c-9 -24 4 -48 23 -44 12 2 18 12 18 28 0 29 -32 41 -41 16z
m31 -26 c-5 -8 -11 -8 -17 -2 -6 6 -7 16 -3 22 5 8 11 8 17 2 6 -6 7 -16 3
-22z"/>
<path d="M5980 868 c0 -11 22 -10 40 2 11 8 9 9 -12 8 -16 -1 -28 -6 -28 -10z"/>
<path d="M1285 730 c-3 -5 1 -10 9 -10 9 0 16 5 16 10 0 6 -4 10 -9 10 -6 0
-13 -4 -16 -10z"/>
<path d="M4692 12633 c139 -152 307 -335 372 -407 65 -72 148 -162 183 -199
l64 -69 82 74 c180 161 846 765 904 820 59 56 61 59 34 56 -22 -2 -138 -102
-487 -418 -252 -228 -474 -430 -495 -448 l-38 -33 -43 48 c-70 77 -364 399
-478 523 -58 63 -149 163 -204 223 -73 80 -104 107 -122 107 -21 0 17 -45 228
-277z"/>
<path d="M8060 11253 c-140 -278 -362 -715 -492 -972 -131 -256 -238 -468
-238 -471 0 -5 145 -166 393 -438 75 -83 137 -155 137 -159 0 -5 -38 -21 -84
-36 l-84 -27 -64 67 c-36 38 -136 146 -222 241 -87 94 -160 172 -164 172 -4 0
-49 -82 -100 -183 -50 -100 -170 -333 -265 -517 -479 -926 -759 -1472 -755
-1474 3 -3 153 -19 948 -107 429 -47 1129 -125 1199 -135 44 -6 51 -4 51 10 0
9 -6 19 -12 21 -7 3 -195 25 -418 50 -346 39 -1462 163 -1630 181 -30 3 -61 8
-68 10 -13 4 33 98 415 839 80 154 150 285 156 291 11 11 84 35 632 209 116
36 256 81 312 100 l103 34 247 -272 c136 -150 250 -276 255 -282 4 -5 8 4 8
20 0 31 -50 89 -366 433 -57 62 -104 116 -104 120 0 4 41 18 92 31 l92 23 20
-24 c36 -44 259 -288 262 -288 2 0 4 11 4 24 0 16 -39 66 -120 157 -66 73
-120 136 -120 139 0 3 54 24 120 45 l120 39 0 124 c0 96 -3 123 -13 119 -49
-19 -390 -127 -400 -127 -8 0 -96 91 -198 202 -101 111 -219 240 -261 286
l-78 84 99 192 c54 105 208 407 341 671 134 264 303 599 377 744 113 222 134
270 131 301 -3 34 -29 -13 -258 -467z m-667 -1837 c76 -82 160 -175 188 -207
l50 -58 -343 -111 c-189 -61 -349 -113 -355 -115 -7 -3 -13 -2 -13 1 0 3 72
145 160 316 88 171 160 315 160 320 0 19 18 1 153 -146z"/>
<path d="M769 11469 c-167 -111 -304 -207 -304 -214 0 -14 566 -627 572 -621
10 9 54 1019 45 1028 -5 5 -130 -71 -313 -193z m261 -305 c-12 -242 -24 -441
-26 -443 -2 -3 -10 3 -17 11 -6 9 -115 127 -242 263 -126 137 -230 251 -230
256 0 4 65 50 145 101 80 52 199 130 265 175 66 44 121 79 123 78 2 -2 -7
-200 -18 -441z"/>
<path d="M0 11460 c0 -17 21 -48 61 -93 69 -76 70 -67 -18 -124 -29 -19 -43
-35 -43 -50 0 -20 9 -16 91 38 l91 60 -68 72 c-37 40 -78 83 -91 97 l-23 25 0
-25z"/>
<path d="M148 11059 c-107 -72 -148 -105 -148 -119 0 -11 3 -20 6 -20 3 0 54
33 112 73 59 41 124 84 144 96 l38 22 57 -62 c32 -35 188 -202 347 -373 l289
-310 -7 -135 c-4 -75 -14 -269 -22 -431 -8 -162 -30 -591 -48 -953 -18 -361
-35 -659 -37 -661 -2 -2 -60 5 -129 14 -69 10 -253 34 -410 54 -157 20 -297
39 -313 42 -22 5 -27 2 -27 -15 0 -12 4 -21 8 -21 16 0 857 -110 885 -116 23
-5 27 -2 27 18 0 22 36 744 85 1722 l25 488 -23 28 c-12 15 -157 173 -322 350
-165 177 -317 342 -338 366 -21 24 -42 44 -45 43 -4 0 -73 -45 -154 -100z"/>
<path d="M1162 9738 c-13 -255 -34 -674 -48 -933 -13 -258 -24 -478 -24 -488
0 -12 44 22 138 106 75 68 207 188 293 265 l156 141 103 312 c92 282 101 315
89 335 -19 30 -668 724 -677 724 -4 0 -18 -208 -30 -462z m209 225 c79 -87
207 -225 283 -308 77 -82 151 -162 164 -176 l24 -27 -98 -301 -98 -301 -170
-153 c-94 -84 -210 -188 -258 -231 l-88 -77 5 88 c3 48 17 315 30 593 43 868
53 1050 59 1050 2 0 68 -71 147 -157z"/>
<path d="M1986 9278 c-9 -24 -31 -87 -49 -140 -38 -111 -41 -111 83 4 l84 77
-44 48 c-24 26 -47 49 -51 51 -4 2 -14 -16 -23 -40z m53 -46 c8 -15 4 -23 -21
-42 -26 -19 -30 -20 -25 -6 4 10 10 29 13 42 7 29 20 31 33 6z"/>
<path d="M1514 8452 c-23 -20 -114 -102 -203 -181 -89 -79 -158 -147 -154
-151 9 -8 244 -43 249 -37 2 2 29 71 59 155 30 83 64 174 75 201 11 28 19 51
17 51 -1 -1 -21 -18 -43 -38z m-85 -204 c-22 -62 -43 -116 -47 -120 -4 -4 -40
-2 -80 4 -71 10 -73 11 -55 29 22 22 217 198 220 198 1 1 -16 -50 -38 -111z"/>
<path d="M0 8102 c0 -23 -30 -18 375 -68 165 -20 304 -40 308 -44 5 -4 -108
-111 -250 -237 -438 -391 -433 -386 -433 -412 0 -22 2 -23 18 -9 150 128 762
683 756 685 -11 3 -492 68 -619 83 -50 6 -105 13 -122 16 -28 5 -33 3 -33 -14z"/>
<path d="M1066 7864 c-4 -66 -11 -193 -16 -284 -5 -91 -12 -232 -15 -315 l-6
-150 111 274 c159 397 213 542 203 551 -4 4 -51 13 -103 19 -52 7 -111 14
-131 18 l-37 5 -6 -118z m152 60 c40 -4 75 -10 77 -15 6 -9 -202 -558 -217
-574 -6 -6 -7 -5 -4 5 2 8 10 128 16 265 13 313 16 337 38 331 9 -3 50 -8 90
-12z"/>
<path d="M540 7569 c-534 -482 -540 -487 -540 -515 0 -24 73 39 610 525 52 48
130 117 173 155 l77 68 0 -68 c0 -38 -7 -190 -15 -339 -8 -148 -19 -380 -25
-515 -7 -161 -15 -255 -24 -275 -7 -16 -37 -86 -66 -155 -29 -69 -76 -179
-105 -245 -29 -66 -70 -160 -90 -210 -21 -49 -42 -94 -46 -99 -6 -7 -364 7
-457 19 -26 3 -32 0 -32 -16 0 -10 1 -19 3 -19 1 0 101 -7 222 -15 121 -8 235
-15 253 -15 38 0 15 -45 224 440 l140 325 9 170 c5 94 18 348 29 565 11 217
22 428 25 468 3 39 2 72 -2 71 -4 0 -168 -144 -363 -320z"/>
<path d="M5821 6888 c-124 -238 -300 -578 -393 -755 -92 -177 -168 -325 -168
-330 1 -12 95 -119 465 -528 261 -288 448 -496 799 -885 171 -190 358 -397
416 -460 58 -64 152 -168 210 -233 58 -64 107 -117 110 -117 3 0 144 125 312
279 169 153 406 368 527 477 176 158 221 203 221 223 l0 25 -27 -25 c-16 -14
-111 -100 -213 -191 -102 -91 -327 -294 -500 -451 -173 -157 -318 -283 -321
-281 -11 6 -329 363 -329 368 0 4 56 94 338 541 52 83 164 263 249 400 86 138
163 258 172 267 15 16 32 16 251 3 129 -8 268 -17 308 -20 l72 -6 0 119 0 119
-67 7 c-38 3 -126 8 -198 11 -71 3 -149 8 -172 11 l-42 5 156 247 c86 136 194
309 240 384 l83 136 -2 226 -3 226 -81 -132 c-45 -73 -176 -284 -291 -468
-115 -184 -223 -357 -240 -385 -143 -230 -131 -215 -166 -215 -18 0 -140 7
-272 15 -434 27 -896 55 -1140 70 -132 8 -331 20 -442 27 l-202 12 -90 99 -90
100 26 51 c14 28 138 267 276 531 137 264 295 568 350 675 55 107 106 201 113
209 13 15 23 14 1612 -163 578 -65 642 -70 642 -55 0 11 -12 18 -39 23 -21 3
-445 51 -942 106 -497 55 -985 109 -1084 120 -99 11 -187 20 -195 20 -10 0
-97 -158 -239 -432z m479 -1573 c217 -13 557 -34 755 -46 198 -12 361 -23 363
-24 2 -1 -52 -90 -119 -196 -67 -107 -212 -338 -322 -514 -109 -176 -204 -325
-211 -332 -11 -12 -29 6 -501 532 -55 61 -203 225 -329 364 l-228 253 98 -7
c55 -3 277 -17 494 -30z"/>
<path d="M792 6142 c-12 -26 -46 -103 -75 -172 l-54 -125 66 -7 c36 -4 67 -5
69 -3 6 5 24 347 19 351 -2 2 -13 -17 -25 -44z m-22 -207 c0 -41 -4 -57 -16
-62 -29 -11 -32 12 -11 64 12 29 23 53 25 53 1 0 2 -25 2 -55z"/>
<path d="M0 5656 c0 -45 9 -65 117 -240 l117 -190 37 79 c79 168 161 366 155
373 -4 4 -101 11 -217 17 l-209 10 0 -49z m273 -2 c59 -4 107 -8 107 -9 0 -1
-27 -65 -61 -141 -34 -77 -66 -151 -72 -166 -6 -16 -14 -28 -17 -28 -3 0 -24
30 -45 68 -22 37 -70 114 -107 171 -37 58 -68 109 -68 114 0 5 33 7 78 3 42
-3 125 -9 185 -12z"/>
<path d="M584 5668 c-12 -19 -247 -556 -251 -573 -4 -17 133 -246 365 -608
l30 -48 6 63 c3 35 10 160 16 278 5 118 17 362 27 542 9 180 13 331 9 335 -10
10 -197 20 -202 11z m166 -100 c0 -35 -5 -137 -10 -228 -5 -91 -16 -302 -25
-470 -9 -168 -18 -306 -19 -307 -3 -4 -326 517 -326 525 0 5 28 71 63 148 35
76 88 196 118 266 l54 128 73 0 72 0 0 -62z"/>
<path d="M0 5242 c0 -21 18 -61 54 -119 l54 -86 -36 -74 -37 -73 -17 22 -18
23 1 -25 c0 -23 29 -70 43 -70 3 0 28 45 56 99 l49 99 -71 114 c-39 62 -72
115 -74 117 -2 2 -4 -10 -4 -27z"/>
<path d="M191 4794 l-45 -94 24 -33 c43 -59 531 -667 536 -667 2 0 4 31 4 68
l0 68 -120 195 c-66 107 -171 276 -233 376 -61 100 -114 182 -117 182 -3 0
-25 -42 -49 -95z m201 -216 c228 -367 282 -458 276 -463 -3 -3 -112 128 -243
290 l-237 296 24 54 c12 30 26 55 29 55 4 0 72 -105 151 -232z"/>
<path d="M8143 4149 c-94 -85 -304 -273 -467 -419 -162 -146 -294 -270 -293
-277 2 -11 102 -125 587 -662 102 -113 217 -242 257 -287 85 -97 93 -103 93
-72 0 25 -144 189 -720 827 -91 100 -166 186 -168 190 -1 4 75 76 170 161 95
85 274 247 398 360 124 113 247 224 274 247 35 31 47 48 44 64 -3 20 -27 1
-175 -132z"/>
<path d="M860 3853 l0 -61 97 -124 c123 -157 194 -240 201 -234 2 3 -11 31
-30 63 -61 101 -250 398 -259 408 -5 5 -9 -16 -9 -52z"/>
</g>
</svg>
