<?xml version="1.0" standalone="no"?>
<!DOCTYPE svg PUBLIC "-//W3C//DTD SVG 20010904//EN"
 "http://www.w3.org/TR/2001/REC-SVG-20010904/DTD/svg10.dtd">
<svg version="1.0" xmlns="http://www.w3.org/2000/svg"
 width="960.000000pt" height="1099.000000pt" viewBox="0 0 960.000000 1099.000000"
 preserveAspectRatio="xMidYMid meet">

<g transform="translate(0.000000,1099.000000) scale(0.100000,-0.100000)"
fill="currentColor" stroke="none">
<path d="M89 10868 c53 -112 396 -826 469 -976 l30 -62 -66 -39 c-37 -21 -93
-53 -125 -71 l-57 -32 -116 108 c-195 185 -224 209 -224 187 0 -11 65 -81 165
-176 l166 -157 37 19 c20 11 80 44 132 75 106 62 106 62 139 -16 l20 -47 -109
-63 -109 -64 262 -250 262 -251 108 -227 107 -228 -35 -657 c-19 -361 -39
-739 -45 -840 -5 -102 -8 -186 -6 -188 2 -2 138 98 302 222 240 180 303 233
321 266 l22 41 45 -90 c37 -73 42 -91 32 -103 -16 -18 -230 -518 -224 -524 4
-4 491 -65 518 -65 5 0 26 -32 46 -71 l36 -72 -39 6 c-34 5 -544 65 -601 70
-22 2 -39 -31 -218 -423 -107 -234 -223 -486 -257 -560 -59 -131 -61 -138 -65
-232 -4 -90 -6 -98 -32 -123 -16 -15 -33 -24 -39 -20 -6 3 -36 38 -65 77 l-54
72 23 55 c22 52 25 87 45 446 31 583 37 690 33 694 -3 5 -123 -85 -418 -312
l-219 -170 -29 34 c-16 19 -37 46 -48 61 l-19 26 143 109 c309 234 456 348
457 354 0 3 -170 24 -377 48 -208 23 -386 45 -396 47 -11 4 -17 0 -17 -10 0
-20 -6 -19 370 -62 179 -20 329 -40 334 -44 4 -5 -63 -62 -150 -128 -88 -65
-209 -158 -271 -205 l-111 -86 -74 97 c-106 140 -97 131 -98 105 0 -22 110
-172 510 -698 100 -132 237 -313 304 -402 66 -89 124 -161 128 -160 4 1 141
135 305 297 758 749 993 984 993 993 0 12 -124 271 -365 762 -244 497 -440
902 -762 1575 -151 316 -344 717 -428 890 -253 522 -566 1171 -592 1233 -18
39 -31 57 -44 57 -15 0 -9 -19 40 -122z m631 -1310 c24 -51 79 -164 121 -250
43 -87 75 -158 72 -158 -4 0 -48 39 -97 88 -50 48 -144 137 -208 199 l-117
112 87 50 c48 28 90 51 93 51 3 0 25 -42 49 -92z m696 -1448 c328 -676 303
-618 287 -666 -8 -23 -24 -50 -36 -61 -28 -26 -536 -413 -542 -413 -2 0 -2 30
1 68 11 156 74 1373 74 1432 0 40 4 60 9 55 6 -6 98 -192 207 -415z m559
-1150 c74 -148 129 -270 123 -269 -7 0 -114 12 -238 28 -181 22 -224 30 -222
42 4 18 195 469 199 469 2 0 64 -121 138 -270z m-83 -435 c167 -20 306 -39
310 -43 4 -4 -256 -268 -579 -587 l-586 -579 5 79 c5 72 12 94 65 210 99 212
295 639 368 803 60 132 72 152 92 152 13 0 159 -16 325 -35z m-1011 -250 c-6
-110 -18 -328 -26 -485 -15 -276 -30 -377 -56 -368 -5 2 -119 149 -254 326
l-245 324 293 224 c257 197 292 221 296 201 2 -12 -2 -112 -8 -222z"/>
<path d="M209 10888 c118 -250 279 -585 553 -1153 162 -335 410 -851 552
-1145 490 -1022 992 -2045 1004 -2045 6 0 147 135 314 300 255 253 1480 1452
1772 1736 l88 86 -78 50 c-44 27 -389 248 -769 490 -739 471 -1059 675 -1635
1043 -1053 673 -1162 741 -1186 738 -19 -2 10 -25 133 -103 l158 -100 0 -50
c0 -28 -7 -177 -15 -332 l-14 -283 -174 -101 c-96 -56 -181 -102 -189 -103 -9
-1 -96 169 -256 504 -134 278 -249 520 -256 538 -8 19 -20 32 -32 32 -16 0
-11 -14 30 -102z m1034 -184 l48 -29 -5 -50 c-3 -27 -8 -115 -11 -195 -3 -80
-8 -164 -11 -187 -4 -34 -2 -43 10 -43 8 0 97 48 197 106 100 59 190 109 199
111 10 3 43 -12 75 -33 53 -36 56 -39 39 -52 -11 -7 -132 -79 -271 -159 -236
-135 -253 -147 -257 -176 -3 -18 -17 -266 -31 -552 -14 -286 -27 -524 -28
-529 -2 -4 -31 52 -66 124 l-64 133 20 381 c11 210 19 382 18 383 0 1 -72 -38
-159 -88 -86 -50 -159 -90 -160 -88 -6 6 -56 108 -56 113 0 2 84 53 188 112
103 59 189 109 192 111 2 2 12 151 22 331 9 180 17 329 17 331 1 2 11 -3 24
-11 12 -8 44 -27 70 -44z m237 -151 c85 -54 153 -102 152 -108 -1 -13 -321
-200 -328 -192 -8 8 7 397 16 397 4 0 76 -44 160 -97z m700 -448 c179 -114
339 -216 356 -226 l31 -19 -139 -398 c-134 -384 -369 -1051 -430 -1220 l-30
-82 -56 51 c-51 46 -324 307 -592 564 l-95 92 17 314 c9 173 22 428 29 567 12
239 14 255 33 267 100 66 524 304 536 302 8 -2 161 -98 340 -212z m-1114 -372
c-9 -197 -26 -487 -29 -490 -3 -3 -225 457 -229 475 -3 12 233 160 256 161 5
1 6 -62 2 -146z m1624 46 l23 -15 -162 -465 c-90 -255 -230 -652 -313 -883
l-150 -418 39 -40 c21 -22 67 -66 103 -98 l66 -58 124 75 c69 42 440 266 825
498 385 232 731 440 769 463 37 23 72 42 77 42 5 0 40 -20 79 -44 l70 -43
-818 -491 c-449 -270 -861 -517 -914 -549 -54 -32 -96 -61 -95 -65 1 -4 114
-122 251 -263 l249 -257 -50 -50 -50 -50 -210 213 c-115 118 -231 238 -258
267 -31 34 -55 52 -65 49 -9 -2 -87 -57 -174 -122 -86 -65 -160 -114 -164
-109 -4 5 -36 68 -71 140 l-64 131 58 157 58 157 -39 41 c-21 22 -133 130
-249 240 l-210 200 -86 177 c-48 97 -85 178 -83 180 2 2 48 -38 101 -90 406
-391 617 -589 624 -582 10 11 202 551 474 1333 68 195 126 363 130 372 7 17
10 16 44 -5 21 -12 48 -29 61 -38z m580 -369 c278 -177 569 -363 648 -413 79
-49 140 -93 135 -98 -4 -4 -325 -198 -713 -431 -388 -234 -781 -470 -874 -527
l-168 -102 -72 67 c-110 104 -107 99 -91 137 28 68 378 1054 528 1490 55 159
76 207 87 204 8 -3 242 -150 520 -327z m1088 -693 l83 -54 -408 -399 c-224
-219 -563 -552 -752 -738 l-344 -339 -238 244 c-131 134 -237 248 -236 253 3
10 1787 1084 1802 1085 6 0 47 -23 93 -52z m-2675 -570 l207 -202 -46 -125
c-26 -69 -50 -129 -54 -133 -4 -4 -22 25 -40 65 -18 40 -91 191 -161 336 -70
144 -125 262 -121 262 4 -1 100 -92 215 -203z m857 -844 l253 -258 -198 -192
c-210 -204 -207 -202 -285 -187 -31 7 -38 19 -191 332 -127 260 -157 328 -147
338 24 22 302 224 309 224 4 0 121 -116 259 -257z m-197 -695 c-16 -18 -18
-18 -30 -2 -19 26 -16 31 17 26 30 -4 30 -5 13 -24z"/>
<path d="M1983 7713 c-28 -76 -54 -149 -58 -163 l-8 -24 34 25 c19 14 76 56
127 94 l94 68 -68 68 c-38 38 -69 69 -70 69 -1 0 -24 -62 -51 -137z m104 45
c18 -18 33 -35 33 -38 0 -8 -130 -103 -134 -99 -5 6 56 169 62 169 3 0 21 -14
39 -32z"/>
<path d="M1316 10787 c175 -112 483 -309 684 -437 1914 -1224 2542 -1621 2553
-1617 7 3 248 236 537 518 289 283 588 575 665 650 l139 136 -59 65 c-33 36
-240 250 -460 476 -303 312 -406 412 -424 412 -18 0 59 -84 366 -397 214 -219
421 -433 462 -475 l73 -76 -254 -248 c-139 -137 -361 -355 -493 -484 -132
-129 -311 -305 -398 -390 l-158 -155 -42 24 c-45 26 -233 145 -872 553 -220
140 -497 317 -615 392 -118 76 -219 141 -223 145 -5 5 31 120 79 257 236 678
294 855 277 852 -19 -4 -13 12 -212 -568 -88 -256 -164 -477 -170 -493 l-11
-27 -57 36 c-32 21 -59 38 -61 39 -1 1 77 229 173 506 96 277 175 505 175 506
0 2 -14 3 -31 3 -29 0 -106 -43 -865 -481 l-152 -87 -61 41 c-34 22 -58 43
-54 47 4 4 190 112 413 240 223 128 407 234 409 236 2 2 -9 4 -25 4 -19 0 -94
-38 -214 -107 -102 -59 -284 -164 -404 -233 l-220 -127 -75 48 c-42 27 -145
93 -230 147 l-154 98 2 87 c2 73 0 87 -13 87 -13 0 -16 -14 -16 -75 0 -41 -2
-75 -5 -75 -3 0 -35 18 -70 41 -59 37 -65 44 -65 75 0 24 -5 34 -15 34 -8 0
-15 -9 -15 -20 0 -25 -7 -25 -45 0 -16 11 -43 20 -59 20 -22 0 43 -46 290
-203z m1468 -305 c-92 -265 -170 -482 -174 -482 -14 0 -623 396 -622 404 0 5
195 121 434 258 238 137 453 262 478 278 24 16 46 28 47 26 2 -2 -72 -220
-163 -484z"/>
<path d="M5371 10699 c156 -160 352 -361 434 -447 l151 -156 453 445 c320 313
448 445 436 447 -19 4 -27 -4 -375 -343 -118 -116 -282 -276 -365 -357 l-150
-146 -249 256 c-474 488 -579 592 -599 592 -13 0 72 -94 264 -291z"/>
<path d="M6495 10516 l-480 -473 237 -244 c130 -134 378 -390 552 -569 173
-179 320 -326 325 -328 5 -2 52 28 103 66 51 38 158 116 238 174 80 58 368
266 640 463 272 198 648 470 835 605 624 452 650 471 653 492 5 26 42 51 -403
-272 -551 -400 -553 -402 -543 -384 10 15 396 901 403 923 4 15 2 21 -8 21 -9
0 -92 -178 -231 -497 l-218 -498 -95 -68 c-52 -38 -97 -67 -98 -65 -2 2 29 80
70 173 301 689 413 950 410 954 -17 16 -63 -78 -285 -591 l-254 -584 -90 -65
c-102 -73 -715 -517 -931 -674 -77 -56 -152 -109 -166 -119 l-27 -17 -194 198
c-432 441 -873 895 -876 902 -1 4 214 219 478 477 264 257 480 470 480 471 0
2 -10 3 -22 3 -17 -1 -162 -138 -503 -474z"/>
<path d="M9210 10308 c-212 -153 -495 -359 -630 -457 -238 -172 -342 -248
-1050 -761 -184 -133 -337 -244 -339 -246 -6 -5 70 -85 814 -860 363 -378 718
-750 790 -826 71 -75 132 -134 136 -130 3 4 155 316 338 693 247 512 331 694
330 720 0 30 -8 19 -58 -85 l-56 -119 -605 -243 -605 -244 -207 213 c-114 116
-210 220 -213 229 -4 11 43 129 119 300 69 156 226 511 348 790 l223 507 280
202 c154 111 390 281 523 377 231 166 259 189 250 210 -1 5 -176 -117 -388
-270z m-754 -645 c-110 -255 -627 -1425 -633 -1432 -5 -7 -93 81 -93 93 0 9
116 274 457 1046 l103 235 93 67 c50 36 95 67 99 67 4 1 -8 -34 -26 -76z
m-229 -125 c-3 -7 -91 -209 -197 -448 -106 -239 -221 -502 -257 -585 -36 -82
-67 -151 -68 -153 -2 -3 -229 227 -397 403 l-77 81 292 211 c161 117 382 277
492 357 110 80 204 145 209 146 4 0 6 -6 3 -12z m1177 -1465 c-30 -65 -61
-123 -67 -129 -7 -7 -212 -92 -457 -189 l-444 -178 -69 73 c-37 40 -66 74 -64
77 6 5 1140 462 1149 463 4 0 -18 -53 -48 -117z m-98 -200 c-20 -50 -382 -793
-387 -793 -8 0 -442 457 -447 469 -2 8 809 339 832 341 4 0 5 -8 2 -17z"/>
<path d="M5803 9839 c-81 -79 -233 -228 -338 -330 -104 -102 -336 -329 -515
-503 -179 -175 -326 -320 -327 -324 -2 -4 58 -45 132 -91 74 -46 135 -89 135
-95 -1 -6 -6 -24 -13 -39 l-12 -28 -149 95 c-83 53 -153 96 -157 96 -10 0
-1932 -1883 -2146 -2102 l-62 -63 121 -245 c66 -135 214 -435 329 -667 l207
-423 -36 -10 c-20 -5 -40 -10 -44 -10 -6 0 -31 50 -407 814 -127 258 -233 472
-236 474 -6 7 -1285 -1259 -1285 -1272 0 -6 23 -43 51 -81 l51 -70 -48 -3
c-50 -3 -49 -4 -111 77 -10 14 -18 10 -60 -32 -44 -43 -53 -47 -96 -47 -26 0
-47 3 -47 7 0 4 32 40 71 79 l72 72 -439 581 c-304 403 -440 575 -442 561 -2
-11 10 -40 27 -64 l31 -45 -30 -21 c-16 -12 -30 -28 -30 -36 0 -18 14 -18 30
2 34 40 47 37 94 -25 l46 -59 -85 -64 c-48 -36 -84 -71 -85 -80 0 -10 3 -18 6
-18 3 0 44 29 89 65 46 36 87 65 92 64 4 0 51 -57 103 -127 52 -70 172 -229
267 -354 l173 -226 -70 -143 c-38 -79 -71 -147 -72 -151 -3 -8 -112 -9 -211
-1 -65 5 -68 4 -97 -27 -39 -42 -67 -121 -81 -231 l-12 -92 -93 6 c-77 5 -94
4 -94 -7 0 -14 19 -17 155 -28 30 -3 30 -4 27 -53 -5 -73 -35 -96 -120 -93
-34 2 -62 1 -62 -1 0 -2 12 -20 26 -38 l26 -35 -26 -27 c-14 -15 -26 -38 -26
-51 0 -21 11 -13 83 58 45 45 85 82 87 82 3 0 4 -29 2 -63 l-4 -64 -84 -84
c-76 -75 -98 -111 -76 -121 4 -1 27 -29 51 -62 l44 -59 -23 -46 c-21 -44 -23
-45 -36 -26 -7 11 -20 29 -28 40 -15 20 -15 20 -16 -3 0 -24 47 -102 61 -102
12 0 69 115 69 137 0 10 -23 47 -50 83 l-49 65 52 53 c28 28 54 52 57 52 4 0
21 -21 40 -46 22 -31 36 -42 43 -35 7 7 28 -2 66 -26 31 -19 58 -37 60 -39 2
-1 -6 -18 -18 -37 -11 -19 -21 -40 -21 -47 0 -7 34 -60 75 -116 l75 -104 -60
-30 c-33 -16 -65 -30 -72 -30 -7 0 -28 23 -47 50 -55 81 -57 81 -92 6 -29 -62
-30 -68 -15 -85 9 -10 16 -22 16 -27 0 -5 -43 -29 -95 -53 -52 -24 -95 -50
-95 -57 0 -8 2 -14 5 -14 3 0 174 77 380 170 l375 171 85 -3 85 -3 -113 -51
c-823 -374 -834 -380 -815 -400 3 -2 33 9 68 25 l64 28 199 -256 c110 -141
234 -301 274 -355 l74 -99 -6 -61 c-5 -61 -17 -261 -75 -1351 -17 -313 -41
-749 -53 -967 -17 -309 -20 -398 -10 -398 17 0 20 29 38 355 45 842 98 1818
114 2105 l19 325 -45 64 c-42 61 -323 427 -440 573 -29 37 -53 71 -53 76 0 5
25 20 56 32 54 23 56 23 74 4 10 -10 102 -127 205 -259 103 -132 194 -246 201
-254 10 -11 13 -1 19 52 l7 66 -158 223 c-86 123 -161 228 -166 235 -7 9 9 21
57 42 37 17 71 29 75 26 5 -3 50 -64 102 -135 80 -113 114 -151 106 -122 -4
13 13 327 19 350 4 16 24 31 71 53 36 16 67 27 70 25 2 -3 -1 -89 -7 -193 -6
-103 -14 -243 -17 -310 l-7 -121 135 -194 c74 -106 213 -308 310 -448 242
-354 416 -607 597 -870 85 -124 176 -256 201 -293 l46 -68 -38 -75 c-20 -41
-40 -75 -43 -77 -5 -2 -204 287 -588 851 -300 440 -483 709 -551 809 -39 56
-74 100 -78 97 -4 -3 -8 -34 -8 -70 l0 -64 122 -168 c67 -92 201 -273 298
-402 181 -242 467 -637 673 -932 l117 -168 -33 -66 -33 -65 -55 78 c-31 43
-150 209 -264 368 -547 761 -815 1128 -833 1138 -5 4 -12 -33 -16 -91 -11
-174 -136 -2431 -136 -2467 0 -24 5 -35 15 -35 11 0 15 11 15 38 0 21 20 400
45 842 25 443 54 981 65 1195 12 215 24 403 28 418 7 27 10 25 83 -75 130
-176 882 -1218 983 -1362 l58 -83 -45 -139 c-25 -76 -71 -251 -102 -389 -47
-213 -88 -369 -111 -430 -4 -9 0 -15 9 -15 19 0 60 142 132 455 105 455 143
552 421 1066 246 456 308 593 364 801 59 221 56 330 -15 698 -49 256 -87 513
-106 712 -15 161 -7 542 13 612 16 59 45 79 34 25 -36 -181 -43 -429 -17 -674
20 -188 72 -524 106 -687 47 -221 66 -404 55 -515 -25 -232 -125 -474 -428
-1028 -247 -452 -308 -602 -381 -940 -43 -198 -115 -476 -132 -507 -7 -14 -6
-18 5 -18 22 0 75 176 137 452 43 197 98 402 116 431 3 4 41 -43 85 -105 69
-95 189 -259 523 -710 29 -39 58 -67 68 -68 23 0 44 -30 -238 350 -132 179
-282 382 -332 451 l-91 125 27 63 c14 34 29 63 33 64 3 1 66 -81 140 -183 270
-373 649 -870 663 -870 8 0 15 2 15 5 0 2 -127 175 -283 382 -242 325 -487
660 -511 700 -6 11 62 163 74 163 4 0 201 -281 439 -625 365 -528 461 -657
461 -620 0 5 -299 442 -690 1005 -97 140 -180 261 -184 268 -5 8 29 80 87 185
286 522 367 714 424 1005 l8 42 44 -57 c25 -32 135 -175 245 -318 109 -143
252 -327 316 -410 183 -236 210 -273 210 -285 0 -48 -98 -428 -127 -494 -30
-67 -34 -82 -24 -104 10 -21 9 -28 -11 -49 -17 -18 -23 -37 -24 -81 -2 -57
-15 -130 -27 -149 -3 -5 -13 -59 -22 -119 -15 -98 -19 -112 -46 -136 -33 -31
-38 -71 -13 -106 14 -20 14 -30 4 -70 -6 -26 -20 -66 -30 -89 l-19 -43 23 0
c27 0 36 18 62 117 16 63 22 73 51 87 18 9 33 12 33 7 0 -5 -8 -12 -17 -15
-12 -5 -14 -9 -5 -14 14 -10 -3 -82 -20 -82 -7 0 -6 -5 2 -15 14 -16 4 -55
-18 -71 -13 -9 -12 -11 4 -9 11 0 24 4 31 8 6 4 25 2 42 -4 33 -12 56 -4 32
10 -9 6 -7 10 9 14 17 4 20 2 15 -14 -5 -15 -2 -19 17 -18 13 0 18 3 12 5 -17
7 -5 44 13 44 11 0 13 4 5 13 -5 6 -7 27 -5 44 4 28 8 31 23 23 25 -14 63 -13
78 2 19 19 14 52 -14 94 -25 36 -26 42 -15 84 22 83 36 94 142 106 52 6 105
14 118 19 22 7 23 5 16 -27 -8 -40 -25 -64 -183 -257 -107 -132 -119 -151 -98
-151 18 0 46 27 122 122 208 257 581 720 873 1084 168 208 366 456 441 549 75
94 320 402 545 685 381 479 858 1079 1034 1300 121 151 223 275 230 278 4 1
20 -11 36 -28 19 -20 39 -30 57 -30 43 0 43 -22 0 -66 -20 -22 -159 -191 -307
-375 -148 -184 -337 -418 -419 -520 -83 -102 -252 -311 -376 -464 -124 -153
-351 -434 -505 -624 -304 -376 -1506 -1878 -1519 -1899 -6 -10 -2 -13 17 -10
20 2 73 62 238 268 117 146 215 265 217 265 5 0 48 -54 300 -382 75 -99 123
-153 135 -153 22 0 16 8 -98 155 -39 50 -126 163 -194 252 l-123 162 23 30
c13 16 26 30 29 30 3 0 50 -59 105 -131 77 -101 238 -312 381 -496 1 -2 10 -2
19 0 16 3 -66 116 -394 537 -36 47 -71 92 -78 102 -11 14 8 41 127 190 77 96
143 175 148 176 4 2 113 -223 242 -498 129 -276 241 -503 248 -506 7 -3 15 -3
17 -1 4 4 -87 201 -425 917 l-59 124 26 33 c14 19 29 34 33 34 4 0 69 -132
145 -292 76 -161 180 -381 230 -488 51 -107 106 -225 123 -262 20 -45 37 -68
47 -68 10 0 15 5 12 13 -5 11 -355 755 -480 1017 l-54 116 39 49 c63 80 59 78
101 60 48 -20 168 -19 237 1 l53 16 33 -39 c21 -24 35 -53 39 -78 44 -320 45
-334 45 -653 0 -301 11 -475 31 -496 12 -13 11 -4 -3 69 -7 37 -12 202 -13
430 -1 322 -4 388 -23 510 -12 76 -20 141 -17 143 14 14 35 -63 51 -183 14
-111 18 -213 19 -490 1 -345 11 -485 37 -485 5 0 7 12 4 28 -20 97 -26 213
-25 492 1 245 -2 339 -15 424 -9 60 -16 118 -16 128 0 23 3 20 237 -270 l181
-223 -108 -227 c-59 -125 -116 -245 -127 -267 -31 -61 -37 -85 -20 -85 9 0 48
72 102 188 158 336 172 362 183 349 6 -6 13 -37 17 -67 6 -54 4 -59 -89 -259
-53 -112 -96 -205 -96 -207 0 -2 7 -4 15 -4 8 0 21 15 29 32 8 18 43 95 79
170 l64 137 7 -61 c3 -34 6 -110 6 -169 0 -76 4 -109 12 -109 8 0 9 57 4 223
-4 122 -10 233 -13 247 -5 21 -3 23 8 12 9 -8 16 -77 25 -243 7 -127 15 -234
18 -237 15 -14 16 20 5 212 -6 114 -9 209 -6 212 8 8 199 -237 194 -250 -3 -6
-32 -47 -66 -89 -34 -42 -61 -79 -61 -82 0 -3 8 -5 18 -5 9 1 43 35 77 81 l60
80 22 -28 c29 -36 29 -42 -7 -83 -34 -41 -37 -50 -12 -50 9 0 28 17 41 37 l23
36 32 -37 c22 -27 38 -37 54 -34 19 3 -16 50 -264 358 -510 633 -777 960 -783
960 -3 -1 -31 -9 -61 -20 -32 -11 -82 -19 -121 -20 -66 0 -133 16 -127 30 2 4
95 122 208 261 l205 255 3 -210 2 -210 29 -31 c16 -16 179 -217 363 -446 756
-945 742 -928 766 -928 12 -1 22 2 22 5 0 4 -125 164 -176 224 -11 14 14 50
174 256 103 132 219 271 259 308 l72 67 26 -83 c14 -47 40 -110 59 -140 18
-31 36 -69 39 -85 13 -65 50 -150 76 -174 16 -15 36 -51 46 -80 10 -30 43
-109 73 -176 43 -96 59 -123 74 -123 25 0 21 13 -42 150 -27 58 -57 128 -68
156 l-19 51 94 13 c108 15 108 15 137 -76 16 -49 15 -54 -4 -99 -35 -82 -17
-153 35 -139 14 3 26 -4 40 -26 21 -31 39 -41 29 -15 -5 11 1 15 25 15 31 0
42 -14 19 -23 -7 -3 -3 -6 9 -6 12 -1 25 4 28 9 8 12 52 13 59 1 7 -11 56 -11
56 0 0 4 -7 9 -16 11 -11 2 -21 21 -29 51 -12 46 -11 47 9 42 21 -6 21 -6 -1
12 -21 17 -48 71 -40 80 3 2 18 -4 35 -14 24 -14 32 -26 37 -62 11 -72 43
-131 71 -131 l24 0 -26 49 c-14 27 -25 64 -24 83 0 18 2 53 3 78 1 34 -4 54
-22 78 -14 21 -28 63 -37 115 -8 45 -21 100 -29 122 -10 27 -14 71 -12 137 2
87 0 99 -21 125 -12 15 -29 37 -37 48 -8 11 -39 137 -70 279 -43 199 -53 262
-44 272 17 20 639 578 649 582 4 2 160 -156 346 -350 187 -194 452 -470 589
-613 138 -143 336 -350 440 -459 132 -138 191 -193 193 -181 2 10 -23 45 -65
88 -158 167 -949 993 -1202 1257 -150 157 -280 289 -288 293 -10 6 -34 -9 -81
-50 -133 -117 -587 -527 -594 -537 -8 -12 -11 -5 -33 83 -16 64 -16 64 7 86
13 12 131 118 263 236 132 118 260 233 284 255 l45 42 -58 63 c-33 35 -62 65
-67 67 -4 2 -119 -139 -255 -313 -136 -174 -250 -312 -254 -308 -4 4 -12 23
-18 41 -11 33 -10 36 80 150 325 414 378 483 378 493 0 6 -139 156 -310 334
-170 178 -310 328 -310 334 0 10 46 109 56 120 4 4 279 -277 518 -529 70 -74
133 -136 140 -137 6 -1 27 19 47 45 19 26 177 226 350 446 173 219 417 530
543 690 l228 291 54 5 c30 3 54 5 54 4 0 -1 -310 -395 -511 -650 -455 -575
-699 -890 -699 -899 0 -6 33 -43 73 -82 l72 -72 125 111 c116 103 361 318
1125 988 256 224 332 300 300 300 -4 0 -117 -98 -253 -218 -136 -120 -463
-407 -727 -639 -264 -231 -501 -438 -526 -461 l-46 -41 -53 54 c-31 31 -51 59
-47 67 3 8 182 239 398 514 216 274 500 636 632 804 236 299 340 420 363 420
6 0 38 -12 70 -26 164 -74 194 -84 194 -66 0 12 -33 31 -115 66 -63 26 -115
51 -115 55 0 3 9 17 20 31 21 28 18 28 158 -28 49 -21 52 -21 52 -3 0 12 -13
22 -41 31 -56 19 -58 30 -5 30 36 0 46 4 46 16 0 15 -11 16 -95 10 l-95 -6 0
48 c0 115 7 132 101 252 61 78 89 122 89 139 -1 23 -2 24 -13 10 -153 -200
-162 -210 -169 -187 -3 13 -6 51 -7 84 -1 62 -23 205 -42 278 -13 47 -48 81
-95 93 l-36 8 182 258 c128 182 180 264 178 280 -2 17 -49 -43 -192 -247 -105
-148 -199 -280 -210 -293 -20 -22 -27 -24 -113 -21 l-93 3 275 387 c151 213
275 391 275 396 0 4 -75 15 -167 25 -688 73 -873 94 -878 99 -3 3 6 31 22 62
18 37 33 56 45 56 10 0 242 -25 516 -55 273 -30 503 -55 510 -55 6 0 12 6 12
14 0 15 27 11 -620 82 -228 25 -416 46 -417 47 -2 3 45 102 245 515 121 252
158 320 167 310 7 -7 81 -87 166 -178 173 -184 340 -367 412 -450 42 -49 47
-52 47 -30 -1 18 -38 66 -128 166 -207 229 -514 555 -519 550 -4 -3 -216 -444
-513 -1061 -172 -358 -250 -515 -257 -515 -4 0 -18 15 -31 34 l-22 33 48 104
c27 57 199 414 381 793 l332 688 -168 176 c-178 187 -744 776 -1281 1334
l-325 338 -61 -43 c-34 -24 -252 -182 -485 -351 -233 -169 -427 -303 -431
-299 -4 4 -10 22 -13 38 -5 29 2 35 272 229 654 473 661 478 648 496 -12 17
-968 999 -1051 1079 l-46 45 -147 -145z m628 -386 c579 -596 585 -602 573
-612 -9 -8 -242 -177 -579 -419 -88 -64 -192 -140 -231 -169 -39 -29 -73 -53
-76 -53 -3 0 -11 20 -18 45 -7 25 -17 48 -21 51 -19 11 -8 24 21 24 17 0 30 1
30 3 0 2 -24 28 -53 58 -37 38 -71 91 -115 179 -35 68 -83 147 -107 176 -45
53 -169 144 -229 169 -45 19 -129 19 -165 1 -24 -13 -34 -13 -75 -1 -37 11
-59 12 -94 4 -65 -14 -157 -66 -207 -116 -45 -44 -117 -148 -154 -221 l-22
-42 -52 33 c-28 19 -82 53 -119 76 -38 24 -68 44 -68 46 0 1 273 270 608 596
334 327 621 608 637 626 17 18 33 32 36 32 3 1 220 -218 480 -486z m-830 -575
c55 -18 172 -102 223 -159 26 -29 73 -103 107 -169 32 -65 78 -139 102 -166
l42 -48 -37 23 -38 22 35 -73 c19 -40 46 -120 61 -178 31 -119 54 -180 91
-230 23 -32 22 -32 -16 7 -23 23 -41 38 -41 34 0 -5 9 -38 21 -73 16 -48 23
-101 28 -223 4 -106 11 -168 20 -185 13 -23 13 -24 -2 -12 -20 17 -34 59 -47
137 l-9 60 3 -81 c4 -81 32 -170 62 -195 27 -22 14 -30 -16 -9 l-30 21 0 -58
c0 -69 15 -128 42 -166 11 -16 18 -30 16 -33 -11 -11 -58 48 -69 87 -15 52
-35 79 -25 34 13 -57 19 -222 9 -240 -8 -13 -11 -5 -16 39 -3 31 -16 79 -29
108 l-24 53 4 -67 c2 -37 1 -89 -4 -115 l-8 -48 -7 61 c-4 34 -24 101 -44 149
-19 48 -40 103 -44 123 -8 31 -9 33 -10 11 -1 -15 9 -58 21 -95 23 -75 28
-221 9 -279 -8 -26 -9 -19 -10 42 -1 57 -9 94 -41 183 -54 152 -55 227 -4 402
71 240 51 386 -71 517 -70 75 -103 137 -151 286 -25 77 -54 154 -65 172 -34
54 -86 93 -124 93 -35 0 -75 -28 -75 -51 0 -7 11 0 25 15 22 24 65 36 65 18 0
-5 -13 -21 -30 -37 -16 -16 -30 -24 -30 -18 0 11 -41 10 -60 -2 -7 -4 -26 6
-43 23 -18 16 -41 34 -52 40 -19 11 -19 11 2 12 12 0 39 -15 59 -32 26 -23 34
-27 27 -13 -44 82 -146 74 -208 -15 -58 -85 -78 -193 -68 -386 9 -203 -10
-289 -113 -500 -83 -167 -104 -259 -86 -364 13 -75 45 -162 67 -180 7 -6 1 18
-13 52 -18 46 -27 87 -30 150 -5 95 4 144 46 253 l27 70 6 -76 c7 -78 24 -146
41 -164 7 -7 8 0 3 20 -26 109 -24 190 6 284 l11 33 25 -58 c81 -195 92 -248
75 -374 -14 -101 -3 -154 58 -271 44 -87 76 -177 65 -188 -3 -2 -9 8 -15 23
-17 46 -79 136 -91 134 -7 -2 -26 19 -43 46 -39 63 -46 155 -21 271 21 91 16
197 -10 263 -23 56 -28 49 -10 -13 19 -61 19 -182 0 -260 -21 -87 -19 -175 6
-237 67 -170 96 -306 70 -322 -7 -5 -11 7 -11 36 0 34 -12 63 -55 138 -70 121
-88 180 -88 296 0 51 -4 98 -9 106 -17 25 -2 -252 17 -317 23 -75 25 -225 4
-274 l-14 -33 -2 60 c0 33 -9 86 -18 119 -10 32 -21 87 -25 123 l-7 65 -1 -55
c-1 -30 7 -89 18 -130 11 -41 20 -97 20 -124 0 -49 -18 -126 -29 -126 -4 0 -5
33 -3 73 4 65 0 81 -32 159 -20 48 -39 109 -43 134 l-6 47 -14 -28 c-8 -14
-15 -49 -16 -76 -2 -61 -13 -63 -21 -4 -6 37 -1 85 19 188 2 9 -1 17 -6 17 -5
0 -9 -7 -9 -15 0 -16 -67 -95 -80 -95 -4 0 3 21 16 47 28 55 31 119 8 187 -19
55 -27 57 -14 3 7 -35 6 -39 -21 -53 -34 -17 -34 -17 -13 25 15 30 15 39 -1
122 -11 55 -15 107 -11 135 7 57 -7 50 -40 -20 -13 -28 -24 -44 -24 -36 0 30
22 97 60 180 21 47 41 99 45 115 5 29 5 29 -5 5 -14 -30 -38 -58 -65 -72 -15
-9 -13 -4 8 22 45 53 58 98 68 235 10 128 28 234 48 288 23 60 8 48 -29 -23
-21 -41 -39 -68 -40 -59 0 24 223 462 265 519 51 70 131 139 194 168 48 22 62
24 135 18 44 -3 95 -2 111 3 42 13 77 13 116 -1z m1946 -579 l93 -95 -161
-355 c-89 -195 -177 -388 -196 -430 l-34 -76 -317 -126 c-175 -70 -320 -127
-324 -127 -4 0 -16 17 -27 38 -38 74 -96 128 -174 160 -39 16 -87 33 -105 37
-31 6 -92 57 -92 76 0 5 11 2 24 -6 15 -10 27 -12 30 -6 4 5 1 13 -5 17 -6 3
-20 25 -30 48 -15 33 -19 66 -19 176 0 74 -5 153 -10 175 -10 44 -7 53 12 38
16 -13 68 -26 68 -17 0 4 -18 27 -41 51 -40 43 -89 134 -89 163 1 8 217 171
482 362 l481 348 171 -178 c94 -97 212 -220 263 -273z m-2205 291 c28 -25 30
-29 13 -29 -11 -1 -31 8 -45 19 -14 11 -34 20 -45 20 -17 0 -17 2 -5 10 26 17
48 11 82 -20z m206 9 c-10 -5 -18 -15 -18 -21 0 -9 3 -9 12 0 7 7 18 12 26 12
11 0 12 -3 3 -14 -11 -13 -71 -20 -71 -8 0 13 35 42 49 42 14 -1 13 -2 -1 -11z
m-253 -21 c14 -6 25 -15 25 -20 0 -11 -28 -10 -35 2 -3 6 -20 10 -36 10 -18 0
-28 4 -24 10 8 13 38 13 70 -2z m-587 -84 c75 -48 138 -88 140 -89 2 -2 -12
-34 -31 -71 -19 -38 -42 -93 -51 -123 -18 -60 -22 -171 -6 -171 16 0 12 -160
-6 -221 -12 -40 -29 -67 -65 -103 -27 -27 -47 -51 -45 -54 3 -2 19 1 37 7 49
17 50 15 21 -46 -31 -67 -41 -171 -21 -218 l12 -30 8 48 c8 51 19 74 19 41 0
-11 7 -47 15 -79 15 -54 15 -63 0 -102 -19 -48 -28 -55 -100 -72 -106 -24
-119 -35 -194 -155 -39 -61 -83 -140 -100 -176 -33 -72 -94 -275 -113 -376
-10 -58 -14 -65 -32 -61 -12 3 -151 20 -311 38 l-290 32 -275 280 c-151 154
-276 285 -278 291 -1 6 262 270 585 586 324 316 665 650 758 742 94 92 173
168 178 168 4 0 69 -39 145 -86z m897 66 c3 -5 -3 -10 -14 -10 -12 0 -21 5
-21 10 0 6 6 10 14 10 8 0 18 -4 21 -10z m-331 -9 c3 -5 -12 -11 -34 -13 -38
-3 -48 1 -33 15 10 10 61 8 67 -2z m326 -24 c32 -11 37 -19 57 -81 13 -37 25
-84 29 -102 l6 -34 -43 2 c-24 1 -105 -3 -179 -10 -74 -6 -177 -14 -229 -16
l-94 -4 6 77 c3 43 10 89 16 103 10 27 63 53 136 68 62 12 256 10 295 -3z
m100 -244 c0 -15 -83 -183 -91 -183 -4 0 -10 7 -13 16 -8 20 43 136 56 128 6
-4 7 2 3 16 -5 15 -4 20 4 16 6 -4 11 -2 11 3 0 6 7 11 15 11 8 0 15 -3 15 -7z
m-229 -22 c-14 -25 -72 -34 -88 -13 -22 27 -15 32 42 32 51 0 55 -1 46 -19z
m-141 5 c0 -13 -80 -175 -89 -180 -17 -11 -14 3 26 96 21 49 43 88 50 88 7 0
13 -2 13 -4z m150 -98 c33 -68 74 -93 152 -92 65 1 104 21 119 62 9 25 11 25
21 9 5 -10 7 -42 4 -70 -4 -36 -3 -46 3 -32 5 11 10 34 11 50 0 24 2 27 10 13
15 -24 5 -205 -15 -267 -21 -68 -121 -171 -213 -220 -57 -29 -71 -33 -126 -29
-54 3 -70 10 -134 53 -41 27 -91 68 -112 93 -42 47 -76 132 -65 160 5 14 11
12 37 -18 17 -19 23 -24 14 -10 -9 14 -22 34 -29 45 -9 13 -12 43 -9 87 4 67
4 67 28 57 37 -13 78 -11 124 7 47 19 73 52 89 112 10 36 15 42 39 42 23 0 31
-9 52 -52z m2276 -97 c-14 -23 -306 -674 -304 -677 2 -1 160 60 352 137 l349
140 67 -73 c38 -40 65 -76 62 -79 -4 -4 -220 -91 -481 -195 l-474 -189 -45
-95 c-24 -52 -127 -272 -228 -487 -101 -216 -184 -397 -184 -402 0 -13 2 -13
765 -96 391 -42 720 -79 733 -81 l22 -4 -30 -60 c-34 -67 -28 -65 -145 -50
-44 5 -372 41 -729 80 -357 39 -652 73 -656 75 -5 3 -18 59 -30 125 l-23 120
21 47 c11 27 95 206 185 398 91 193 164 351 162 353 -1 1 -104 -38 -228 -88
-125 -49 -230 -90 -235 -90 -8 0 -56 142 -57 168 0 11 554 241 622 258 17 5
57 83 203 406 100 219 188 416 197 436 l15 37 49 -54 c27 -30 47 -57 45 -60z
m-1835 -131 c37 -91 33 -208 -11 -345 -32 -99 -35 -121 -35 -225 0 -108 2
-120 33 -195 30 -71 33 -88 29 -145 -3 -36 -14 -85 -25 -110 l-21 -45 -1 60
c-1 33 -8 78 -16 100 -7 22 -11 29 -8 15 2 -14 7 -50 9 -80 l5 -55 -14 45 c-7
25 -33 90 -57 145 -43 98 -44 103 -43 205 0 68 6 127 18 169 24 88 14 87 -15
-1 -18 -56 -24 -96 -24 -170 0 -65 -3 -94 -10 -87 -5 6 -10 56 -10 112 0 113
10 153 76 298 21 47 41 101 44 120 l5 34 -14 -36 c-7 -19 -35 -79 -60 -133
-45 -93 -56 -129 -75 -241 l-9 -50 -1 41 c-2 69 16 140 73 282 59 148 75 204
78 281 3 63 13 57 29 -17 20 -94 16 -188 -9 -271 -32 -100 -22 -100 13 0 25
73 27 89 22 172 -3 57 -15 123 -31 172 l-25 80 29 -35 c16 -19 39 -60 51 -90z
m2034 -66 c129 -135 165 -178 154 -185 -23 -14 -591 -240 -595 -236 -2 2 54
133 126 291 71 158 130 292 130 297 0 22 27 -2 185 -167z m-2798 -161 c98
-140 123 -225 100 -336 -26 -118 -29 -151 -18 -197 13 -57 7 -62 -15 -14 -14
32 -18 70 -18 214 l-1 175 -47 101 c-65 136 -65 148 -1 57z m533 -179 c-37
-129 -23 -254 37 -346 17 -27 17 -28 -11 -57 -43 -45 -140 -84 -217 -89 -130
-8 -239 48 -239 123 l0 35 43 -5 42 -4 -42 11 c-50 13 -53 24 -27 122 9 33 17
90 17 125 l1 65 27 -61 c15 -34 37 -89 50 -122 12 -34 23 -60 25 -58 3 3 -48
177 -64 220 -14 32 -14 32 29 10 45 -24 124 -23 174 2 22 11 69 47 105 81 77
74 83 67 50 -52z m2960 -386 c97 -101 182 -191 189 -201 12 -15 -13 -72 -210
-483 l-224 -465 -50 5 c-128 15 -1053 117 -1238 137 -184 20 -207 24 -202 39
8 24 356 769 402 860 l38 74 480 192 480 192 80 -83 c44 -46 159 -166 255
-267z m-2391 141 c73 -17 171 -50 171 -58 0 -3 -7 -16 -15 -29 -17 -24 -45
-108 -44 -132 0 -8 9 11 19 43 21 68 45 107 64 107 21 0 72 -63 105 -128 28
-56 68 -179 90 -277 22 -95 72 -390 81 -470 5 -44 16 -118 25 -165 52 -270 53
-277 28 -242 -8 12 -20 22 -25 22 -5 0 0 -12 11 -26 20 -25 34 -62 45 -119 l6
-30 -24 28 c-38 41 -41 32 -6 -18 45 -65 60 -126 60 -236 1 -107 -14 -155 -76
-262 -43 -74 -152 -217 -164 -217 -6 0 -10 10 -10 23 0 25 -34 85 -59 105 -9
7 -34 21 -56 32 -28 15 -33 15 -15 3 54 -37 109 -103 115 -137 13 -65 0 -63
-72 10 -105 107 -200 143 -293 110 -24 -8 -46 -14 -47 -12 -2 2 19 24 46 49
30 29 65 50 92 57 79 21 89 29 41 29 l-43 1 30 43 c16 23 35 61 41 85 23 89
111 151 216 153 l59 1 -40 10 c-64 15 -137 -6 -187 -53 -23 -21 -44 -37 -47
-34 -3 3 0 26 7 51 7 25 9 51 5 57 -5 7 -9 30 -10 52 -3 67 -19 156 -46 247
-37 127 -41 165 -23 233 8 33 20 114 27 180 9 83 18 123 28 131 11 8 15 32 16
85 0 63 8 92 48 198 27 68 46 125 44 127 -4 4 -87 -190 -87 -204 0 -6 -5 -14
-12 -18 -8 -5 -10 17 -5 87 7 95 38 243 76 354 14 41 16 54 6 41 -13 -18 -60
-152 -84 -241 -10 -36 -10 -32 -6 34 2 40 2 71 0 69 -9 -9 -35 -203 -35 -260
l0 -57 -32 11 c-48 14 -312 22 -393 10 -38 -5 -71 -9 -71 -8 -1 0 -13 55 -27
121 -14 66 -26 111 -26 101 -1 -11 9 -70 21 -132 20 -101 20 -140 2 -121 -16
16 -57 239 -57 313 0 126 12 132 59 28 36 -82 39 -95 39 -181 0 -51 1 -93 2
-93 9 0 69 102 84 143 l18 52 1 -42 c0 -24 -9 -65 -19 -93 -22 -59 -12 -57 24
4 28 49 54 155 56 231 1 40 3 45 9 25 13 -41 11 -164 -4 -213 -8 -26 -10 -44
-5 -41 17 10 52 88 70 154 l17 65 1 -56 c1 -31 -6 -76 -14 -99 -8 -24 -13 -45
-11 -47 8 -8 64 77 77 115 7 20 13 67 13 104 l1 67 21 -20 c28 -26 80 -40 107
-29 19 7 19 9 4 9 -32 1 -84 63 -101 121 -21 70 -21 94 0 86 9 -4 37 -11 63
-17z m-1453 -100 c-9 -55 -39 -111 -76 -143 -28 -23 -29 -26 -10 -26 25 0 77
25 106 51 l21 19 -5 -55 c-6 -68 16 -129 59 -171 l30 -29 -16 37 c-8 21 -15
59 -14 85 l0 48 25 -65 c53 -137 67 -213 46 -247 -5 -8 -61 -13 -182 -16 -206
-5 -188 9 30 22 l145 9 -150 -3 c-82 -2 -160 -7 -172 -10 -21 -7 -22 -5 -16
31 3 22 11 67 17 102 7 34 9 62 5 62 -4 0 -13 -26 -19 -57 -17 -80 -23 -94
-28 -63 -2 14 -21 99 -43 190 -24 105 -35 168 -29 174 16 16 21 2 38 -106 9
-57 18 -93 20 -82 2 12 -4 61 -12 110 -9 48 -14 89 -13 91 2 1 43 14 91 28 49
14 100 32 115 40 40 22 44 18 37 -26z m-251 -310 c41 -208 43 -235 20 -313
-17 -59 -17 -60 4 -77 13 -11 21 -29 21 -47 0 -42 25 -168 44 -221 21 -58 20
-74 -10 -148 -14 -36 -34 -98 -45 -140 -10 -42 -24 -82 -30 -89 -6 -8 -9 -14
-6 -14 3 0 -5 -24 -18 -52 -19 -41 -25 -70 -25 -124 0 -52 -4 -75 -15 -84 -9
-7 -17 -11 -19 -9 -1 2 -17 25 -34 50 -17 25 -42 53 -56 62 -38 25 -42 20 -7
-9 40 -33 103 -140 99 -167 -3 -18 -11 -13 -58 35 -42 43 -67 60 -109 72 -57
17 -99 21 -87 9 3 -4 -20 -15 -52 -25 -35 -10 -68 -28 -83 -45 -16 -19 -17
-22 -4 -11 37 31 93 48 157 48 82 0 129 -28 231 -136 l77 -81 -57 -7 c-92 -10
-92 -23 0 -18 l84 4 74 -45 c41 -24 93 -54 117 -66 23 -12 42 -22 42 -24 0 -1
-26 -2 -58 -3 -79 0 -162 -47 -194 -109 -6 -11 6 -3 27 19 21 21 58 47 82 58
52 23 157 32 171 15 8 -9 -5 -12 -51 -13 -71 0 -138 -26 -189 -72 -18 -17 -52
-47 -75 -67 -24 -20 -52 -52 -64 -71 -24 -39 -39 -42 -77 -15 -15 10 -40 26
-55 35 -35 21 -87 127 -87 176 1 19 9 59 19 87 13 39 14 50 4 42 -19 -17 -46
-117 -39 -148 3 -14 9 -37 13 -51 9 -33 -170 140 -202 195 -46 79 -60 187 -32
241 18 35 61 76 102 97 17 9 24 16 17 17 -19 0 -53 -19 -86 -49 l-29 -26 7 25
c3 14 12 47 18 73 9 37 22 58 56 88 43 37 47 55 6 24 -38 -28 -38 -22 1 83 12
33 35 67 58 88 42 38 40 45 -4 13 l-29 -20 7 33 c3 18 26 94 50 168 23 74 43
147 43 163 0 15 6 43 14 61 7 18 17 53 21 77 14 90 100 380 132 444 8 17 38
69 66 117 40 67 54 83 59 70 4 -9 24 -96 43 -193z m1165 191 c0 -20 -59 -56
-140 -86 -25 -9 -29 -13 -14 -13 12 -1 48 12 80 29 32 16 60 30 60 30 1 0 4
-29 8 -65 4 -36 18 -113 31 -172 14 -60 28 -155 31 -213 l5 -105 -19 35 c-17
30 -18 37 -6 55 20 28 17 52 -8 69 -47 33 -50 25 -46 -99 3 -63 7 -117 10
-120 8 -9 18 68 12 93 -11 40 4 23 31 -35 l26 -58 -10 -136 c-6 -74 -11 -178
-11 -230 l0 -94 -208 -1 c-193 -1 -245 -5 -444 -40 -32 -6 -36 -4 -33 12 9 44
64 373 70 420 5 41 12 56 36 73 36 27 39 50 4 27 -25 -16 -25 -16 -25 14 0 19
7 34 20 42 24 15 26 28 5 28 -23 0 -19 47 5 60 11 6 20 15 20 21 0 6 -9 8 -20
4 -19 -6 -20 -2 -19 97 1 78 3 96 10 73 5 -16 6 -42 3 -57 -9 -45 5 -32 33 29
20 43 26 73 27 130 1 40 2 73 3 73 11 0 55 -112 60 -153 5 -38 8 -46 14 -32
12 32 9 157 -5 198 -8 20 -12 37 -11 37 1 0 23 -9 49 -21 28 -12 75 -22 119
-24 l72 -4 -60 8 c-79 10 -133 28 -172 58 -50 37 -39 45 20 15 46 -24 63 -27
148 -27 91 0 99 2 165 36 38 20 70 37 72 38 1 1 2 -8 2 -19z m-2425 -295 c153
-157 288 -287 299 -290 12 -2 154 -19 316 -38 238 -27 295 -36 293 -48 -1 -8
-7 -35 -13 -61 -14 -57 10 -55 -255 -24 -110 13 -202 22 -204 20 -2 -2 75 -85
170 -185 164 -171 174 -183 172 -218 -1 -20 -11 -57 -22 -83 l-20 -48 -163
172 c-90 95 -212 223 -273 285 l-110 112 -524 61 c-288 33 -526 61 -527 63 -2
2 22 29 54 60 l57 56 295 -34 c162 -19 341 -41 398 -48 56 -7 102 -11 102 -8
0 2 -57 63 -127 135 -70 72 -168 172 -216 222 l-89 91 49 46 c26 26 51 47 54
47 4 0 132 -128 284 -285z m1932 125 l2 -75 -10 64 c-5 35 -16 79 -24 98 -22
52 -18 63 8 23 17 -27 22 -51 24 -110z m3 109 c0 -6 -4 -7 -10 -4 -5 3 -10 11
-10 16 0 6 5 7 10 4 6 -3 10 -11 10 -16z m1813 -106 c-25 -54 -84 -179 -130
-278 -47 -99 -97 -206 -111 -239 l-26 -58 -12 63 c-6 35 -26 147 -43 249 -18
102 -33 189 -34 194 -2 8 364 163 390 165 7 1 -8 -42 -34 -96z m-1918 17 c20
-38 22 -260 3 -260 -10 0 -13 25 -13 92 0 51 -4 117 -8 146 -9 59 -4 65 18 22z
m-2045 -172 c121 -125 176 -188 164 -188 -32 0 -659 73 -664 77 -6 6 303 303
311 300 4 -1 89 -86 189 -189z m2020 2 c0 -57 -1 -60 -25 -60 -24 0 -34 14
-16 24 4 3 14 26 21 51 7 25 14 45 16 45 2 0 4 -27 4 -60z m1137 -21 c45 -6
84 -17 93 -26 14 -14 12 -15 -20 -9 -139 26 -362 30 -449 9 -17 -4 -22 -2 -19
8 8 26 258 37 395 18z m32 -50 c30 -5 58 -12 63 -17 5 -5 11 -37 14 -73 l6
-64 -77 -39 -76 -39 -120 54 c-67 29 -122 56 -124 59 -1 3 -5 33 -9 67 -6 54
-5 62 11 67 24 7 243 -4 312 -15z m-432 -26 c4 -21 7 -198 5 -393 -2 -212 2
-407 8 -485 20 -228 82 -606 97 -591 2 2 -5 48 -16 103 -70 339 -93 675 -71
1028 7 128 0 285 -16 350 -6 23 -4 25 29 25 39 0 37 2 53 -100 3 -25 11 -51
18 -59 6 -8 13 -75 16 -166 6 -177 -5 -160 158 -261 1 0 -4 -57 -13 -125 -8
-68 -15 -189 -15 -270 0 -123 5 -170 30 -294 17 -82 32 -151 35 -153 9 -9 6
11 -25 166 -35 178 -39 336 -15 542 8 69 15 126 15 128 0 1 5 2 10 2 6 0 11
-10 11 -22 l2 -23 4 22 c2 12 27 38 55 58 27 20 48 39 45 42 -3 3 -21 -6 -39
-20 -59 -43 -58 -44 -53 25 l4 63 -10 -65 c-10 -68 -16 -80 -27 -65 -4 6 -14
11 -22 13 -18 4 -102 66 -121 88 -10 12 -13 42 -11 108 1 50 -1 115 -6 144 -5
28 -8 52 -7 52 4 0 156 -69 183 -82 20 -10 22 -19 24 -102 l2 -91 4 85 4 85
66 32 c37 17 68 30 70 28 7 -6 -27 -233 -44 -298 -8 -33 -38 -105 -65 -159
-51 -102 -52 -127 -2 -38 15 28 31 50 34 50 3 0 -5 -55 -18 -122 -28 -150 -32
-232 -13 -275 13 -30 12 -37 -9 -85 -34 -79 -35 -87 -10 -49 l23 34 18 -98 17
-99 -42 -41 c-23 -22 -53 -57 -67 -77 -28 -42 -43 -51 -123 -68 -31 -7 -57
-17 -57 -22 0 -11 75 1 120 19 l35 14 -48 -49 c-58 -59 -125 -100 -130 -80
-49 191 -63 247 -78 318 -51 233 -73 537 -58 812 13 235 15 449 5 496 -6 25
-4 32 8 32 9 0 18 -14 23 -37z m-737 17 c0 -5 -13 -10 -30 -10 -16 0 -30 5
-30 10 0 6 14 10 30 10 17 0 30 -4 30 -10z m-161 -19 c12 -8 13 -14 3 -37 -12
-24 -11 -26 8 -21 17 4 19 1 15 -21 -3 -15 4 -2 16 28 12 30 24 50 26 44 7
-20 -23 -128 -38 -136 -33 -18 -220 -98 -230 -98 -12 0 -134 84 -143 98 -6 10
23 113 35 127 20 20 280 34 308 16z m143 -6 c25 -10 3 -277 -41 -500 -29 -147
-58 -411 -48 -437 3 -7 6 -2 6 12 4 92 34 327 56 431 21 100 55 392 55 472 0
9 5 17 12 17 25 0 -5 -309 -57 -576 -8 -43 -22 -158 -30 -254 -16 -186 -27
-262 -51 -350 -19 -70 -97 -260 -106 -260 -13 0 -9 15 23 102 52 139 90 300
88 367 0 14 -7 -10 -15 -54 -19 -107 -46 -202 -86 -308 l-34 -88 -22 18 c-24
20 -25 11 31 298 29 151 29 305 -2 445 -16 69 -20 105 -13 108 29 9 100 74
110 99 6 15 15 89 22 163 6 74 15 137 20 140 5 3 14 30 20 60 6 30 13 65 16
78 4 22 19 27 46 17z m662 -58 c-10 -28 -24 -19 -24 15 0 29 2 31 15 17 9 -9
13 -23 9 -32z m-785 -253 l-10 -139 -50 -47 c-56 -54 -68 -58 -70 -25 -1 16
-3 17 -6 5 -2 -9 8 -70 22 -135 32 -141 37 -317 12 -423 -8 -36 -23 -114 -32
-175 -16 -103 -34 -167 -35 -122 0 10 14 95 32 190 39 213 40 328 8 516 -13
73 -26 127 -30 121 -12 -20 -89 36 -107 77 -32 78 -81 273 -67 273 1 0 26 -16
55 -36 29 -19 60 -33 70 -31 14 4 17 -9 23 -97 4 -55 11 -117 16 -136 l10 -35
-5 40 c-3 22 -8 84 -11 137 l-7 97 94 44 c52 24 95 43 96 42 2 -1 -2 -64 -8
-141z m-2177 86 c189 -22 417 -49 508 -60 91 -11 170 -20 176 -20 10 0 515
-523 542 -562 12 -16 10 -30 -12 -96 -52 -155 -59 -231 -31 -334 7 -26 3 -29
-82 -71 -131 -66 -575 -274 -599 -281 -13 -4 -26 -1 -34 9 -7 8 -27 15 -44 15
l-31 0 33 20 c43 26 57 63 42 112 -12 41 -34 58 -74 58 -38 0 -105 -30 -117
-51 -14 -28 -28 -23 -44 14 -7 17 -151 311 -319 652 -168 340 -306 623 -306
627 0 13 31 10 392 -32z m-196 -706 c167 -339 304 -618 304 -620 0 -6 -69 -25
-121 -34 -66 -11 -110 -30 -169 -75 l-45 -34 -292 0 c-286 -1 -292 -1 -298 20
-10 29 -35 36 -177 44 l-127 7 -9 -33 c-4 -19 -14 -34 -20 -33 -7 1 -119 2
-250 3 l-239 1 -55 76 -55 76 501 497 c624 618 740 731 744 726 2 -2 141 -281
308 -621z m1434 560 c80 -8 146 -17 148 -19 2 -2 -13 -53 -32 -114 -20 -61
-36 -118 -36 -127 0 -8 -4 -14 -8 -12 -5 2 -74 70 -153 152 l-144 149 40 -7
c22 -3 105 -13 185 -22z m766 -194 c15 0 17 -8 39 -138 25 -149 22 -254 -15
-474 -18 -109 -36 -198 -39 -198 -3 0 -14 6 -23 13 -14 11 -15 21 -7 63 45
239 53 307 41 342 -9 27 -7 36 19 77 35 55 38 71 6 31 l-24 -29 -6 54 c-4 30
-20 99 -36 154 -16 55 -32 112 -35 127 l-6 28 36 -25 c20 -14 43 -25 50 -25z
m-51 -307 c2 -56 6 -107 10 -113 4 -6 -3 -70 -15 -143 -11 -73 -23 -147 -26
-164 -3 -18 -7 -33 -11 -33 -11 0 -139 89 -158 110 -18 20 -30 110 -14 110 14
0 29 55 29 109 0 41 8 76 25 115 13 30 36 96 50 145 45 162 42 159 77 56 24
-72 31 -111 33 -192z m1590 48 c3 -36 9 -69 14 -74 6 -6 7 -22 4 -37 -3 -15
-1 -36 5 -46 6 -12 7 -52 2 -107 -7 -72 -14 -96 -35 -128 -15 -21 -31 -37 -35
-34 -10 6 -24 120 -22 175 2 25 -5 68 -14 96 -16 48 -16 56 5 170 34 186 30
178 53 109 10 -33 21 -89 23 -124z m1211 84 c732 -80 774 -85 774 -92 0 -2
-32 -70 -70 -151 -39 -81 -80 -168 -93 -194 -12 -26 -24 -47 -27 -47 -3 0 -15
22 -27 50 -17 38 -30 53 -57 64 -60 25 -103 20 -142 -19 -29 -29 -34 -41 -34
-79 0 -73 39 -109 148 -137 23 -6 42 -16 42 -23 0 -7 -39 -94 -87 -194 l-87
-183 -215 0 -214 0 -341 145 c-187 80 -342 148 -344 150 -2 2 7 19 21 37 34
45 82 142 100 203 17 59 14 163 -8 270 -14 67 -45 253 -45 268 0 10 -58 15
706 -68z m-1792 9 c8 -3 16 -55 25 -167 7 -89 15 -178 18 -198 l5 -36 -124
-14 c-119 -14 -620 -20 -632 -9 -3 3 1 46 9 95 8 48 18 135 21 191 l7 102 61
11 c55 10 182 24 306 35 53 5 286 -3 304 -10z m3240 -169 c274 -30 501 -57
503 -59 2 -2 -47 -75 -109 -162 -63 -88 -185 -259 -272 -382 l-158 -222 -192
2 -191 3 -5 47 c-8 62 -20 73 -80 70 l-50 -2 -108 112 -109 112 100 205 c54
114 112 234 128 269 15 34 32 62 36 62 4 0 233 -25 507 -55z m-943 -264 c37
-37 38 -58 2 -58 -28 0 -53 -26 -53 -55 0 -22 -14 -23 -51 -1 -38 23 -55 64
-38 95 30 57 93 65 140 19z m-2231 -88 c6 -42 14 -83 17 -90 4 -9 -7 -13 -38
-13 -53 0 -301 -29 -308 -35 -7 -8 54 -6 169 5 202 18 181 21 197 -30 7 -25
25 -85 38 -135 l25 -90 -23 -18 c-12 -10 -43 -29 -69 -42 -44 -23 -58 -25
-191 -25 l-144 0 -7 38 c-3 20 -6 80 -6 132 0 52 -7 124 -15 160 -8 36 -14 93
-15 126 0 61 0 62 31 68 17 3 59 6 93 7 33 0 84 4 111 9 28 4 66 8 86 9 l36 1
13 -77z m-745 50 c-4 -10 -12 -51 -18 -90 -9 -66 -12 -73 -33 -73 -51 0 -55 7
-32 63 11 29 25 67 30 85 7 25 14 32 35 32 20 0 24 -4 18 -17z m54 -20 c-6
-16 -12 -66 -15 -113 -3 -73 -6 -85 -21 -85 -16 0 -18 10 -17 85 1 115 8 140
39 140 23 0 24 -2 14 -27z m296 -55 c0 -46 6 -101 12 -123 7 -22 14 -104 15
-182 l3 -143 -93 0 -94 0 -60 45 c-33 24 -78 50 -100 56 -56 15 -81 33 -113
80 -26 40 -26 41 -11 86 21 60 14 67 -8 8 -15 -39 -20 -43 -36 -35 -18 9 -18
12 2 59 l21 49 46 -3 c41 -3 46 -6 49 -29 3 -22 8 -26 36 -26 l33 0 6 104 c4
57 9 111 13 120 5 14 26 16 143 16 l136 0 0 -82z m2682 -23 c22 -41 70 -97
162 -186 72 -70 131 -133 131 -138 0 -6 -11 -11 -24 -11 -16 0 -30 10 -44 33
-38 62 -203 237 -257 272 -58 36 -70 65 -37 84 26 16 35 9 69 -54z m-4092 -86
c9 -17 14 -33 12 -36 -6 -5 -252 -123 -461 -219 -128 -59 -143 -64 -207 -64
-38 0 -69 3 -69 8 0 6 684 339 702 341 4 1 15 -13 23 -30z m4135 -63 c0 -6
-30 -75 -67 -153 l-66 -143 -48 0 -48 0 46 98 c25 53 63 135 85 181 l39 84 29
-28 c17 -16 30 -34 30 -39z m-7300 -75 c0 -3 -35 -41 -79 -83 -65 -65 -83 -78
-110 -78 -40 0 -40 2 41 164 l59 118 45 -57 c24 -32 44 -60 44 -64z m3299 -13
c92 -86 92 -87 64 -94 -99 -22 -104 -24 -110 -54 l-5 -30 -84 0 c-83 0 -84 0
-99 30 -14 27 -20 30 -66 30 -47 0 -52 -2 -62 -30 -11 -30 -12 -30 -92 -30
-44 0 -103 3 -132 6 l-52 7 261 123 c144 68 263 126 266 129 9 9 15 4 111 -87z
m2249 60 c25 -13 69 -46 98 -75 29 -28 72 -62 96 -74 44 -22 138 -95 138 -108
0 -15 -95 2 -107 19 -7 10 -26 21 -43 25 -23 5 -34 17 -48 48 -10 23 -27 48
-36 56 -13 11 -10 2 8 -34 15 -28 26 -63 25 -84 0 -20 -3 -30 -6 -23 -2 6 -17
12 -31 11 l-27 -1 25 -8 c23 -7 22 -8 -11 -9 -35 -1 -36 0 -47 51 -12 47 -49
124 -58 115 -2 -2 1 -19 6 -38 6 -18 10 -56 10 -82 l0 -48 -47 3 -48 3 -11 65
c-8 48 -13 60 -19 46 -7 -16 -9 -15 -20 10 -11 28 -12 27 -19 -31 -11 -95 -11
-95 -63 -95 l-46 0 7 81 c8 92 -6 100 -24 13 -10 -47 -15 -55 -31 -51 -11 3
-28 -5 -43 -19 -22 -23 -30 -25 -107 -22 l-83 3 65 40 c35 22 80 47 99 56 19
9 60 41 90 70 79 78 94 89 137 105 48 18 112 11 171 -18z m-3180 -10 c17 -17
15 -63 -3 -78 -9 -7 -39 -15 -66 -18 -48 -4 -51 -3 -45 16 4 11 2 23 -4 27
-18 11 -11 25 23 45 36 22 77 26 95 8z m3872 -133 l281 -120 -94 -3 -94 -3
-234 100 c-128 54 -235 103 -236 108 -2 5 6 22 17 36 19 24 24 26 50 14 15 -6
155 -66 310 -132z m1144 -3 c-86 -3 -107 -13 -136 -68 -24 -47 -44 -59 -32
-21 4 12 31 71 61 130 l54 108 61 -73 61 -73 -69 -3z m-3324 106 c14 -5 50
-35 80 -67 40 -41 68 -61 100 -70 25 -7 63 -26 84 -42 l40 -29 -76 0 c-55 0
-79 4 -88 15 -7 8 -17 15 -22 15 -6 0 -5 -7 2 -15 11 -13 8 -15 -18 -15 -29 0
-31 3 -37 45 -4 24 -13 52 -20 61 -10 15 -11 9 -4 -32 13 -79 15 -75 -43 -72
l-53 3 -10 58 -10 59 -12 -31 c-6 -17 -8 -31 -3 -31 4 0 10 -13 12 -30 4 -24
1 -30 -14 -30 -15 0 -19 6 -17 28 1 15 1 38 0 52 -2 23 -3 24 -11 5 -5 -11 -9
-35 -9 -52 l-1 -33 -55 0 -55 0 0 40 c0 36 3 40 33 50 l32 10 -32 -5 c-18 -2
-33 -3 -33 -1 0 22 27 69 44 76 14 6 16 9 5 9 -23 1 -46 -28 -58 -76 -7 -24
-16 -43 -21 -43 -5 0 -25 -14 -44 -30 -28 -25 -42 -30 -75 -28 -23 1 -41 4
-41 7 0 16 60 87 90 107 19 13 57 40 84 59 26 19 62 39 80 44 34 11 136 4 176
-11z m-1812 -36 c4 -14 15 -10 -158 -56 -154 -41 -150 -40 -150 -23 0 7 50 25
128 45 71 19 135 38 143 43 17 10 31 7 37 -9z m3631 -31 c20 -11 104 -47 187
-81 82 -34 154 -66 159 -72 7 -6 -29 -8 -102 -6 -106 3 -112 4 -137 31 -19 20
-35 27 -62 27 -28 0 -48 9 -80 36 -44 35 -44 36 -26 59 9 14 18 25 20 25 1 0
20 -9 41 -19z m-3641 -76 l22 -45 -50 0 c-45 0 -51 3 -65 30 -20 39 -19 48 8
53 56 11 63 8 85 -38z m54 35 c5 0 2 -7 -7 -17 -14 -14 -18 -14 -26 -2 -13 21
-11 32 7 25 9 -3 20 -6 26 -6z m-365 -15 c2 -6 -10 -21 -27 -33 l-30 -23 -9
23 c-7 18 -4 26 13 35 24 14 48 13 53 -2z m-1837 -43 c-41 -4 -48 3 -24 29
l19 21 18 -24 19 -23 -32 -3z m2018 13 c7 -14 12 -28 12 -30 0 -3 -44 -5 -97
-5 -109 0 -111 8 -13 39 84 26 85 26 98 -4z m5572 -14 l0 -39 -202 -4 c-112
-2 -205 -2 -207 -1 -2 1 6 15 17 30 20 28 23 28 174 39 244 17 218 20 218 -25z
m-6643 13 c101 -10 66 -24 -61 -24 -117 0 -126 1 -126 19 0 17 7 18 68 14 37
-2 91 -6 119 -9z m1361 -18 c3 -26 1 -28 -20 -23 -13 4 -33 7 -45 7 -16 0 -23
6 -23 18 0 27 10 33 50 30 30 -3 35 -7 38 -32z m1028 20 c3 -8 19 -20 35 -26
16 -7 29 -15 29 -19 0 -6 -176 -3 -197 4 -24 8 -13 22 25 33 79 24 101 26 108
8z m1994 -10 c0 -13 3 -31 6 -40 5 -12 0 -16 -20 -16 -29 0 -31 4 -15 49 13
37 29 41 29 7z m-3572 -7 c1 -8 -16 -24 -37 -37 -37 -21 -41 -21 -50 -5 -8 15
-3 22 27 40 40 24 55 25 60 2z m1190 -16 c2 -9 -8 -13 -32 -13 -34 0 -52 11
-39 24 11 11 66 2 71 -11z m762 -3 c0 -13 -7 -20 -20 -20 -23 0 -26 10 -8 28
18 18 28 15 28 -8z m-4255 -30 c-38 -74 -67 -303 -69 -542 l-1 -148 -40 0
c-23 0 -46 5 -53 12 -16 16 -15 135 3 341 26 287 56 367 140 367 l36 0 -16
-30z m5695 15 c0 -11 -11 -15 -36 -15 -31 0 -35 2 -24 15 7 8 23 15 36 15 15
0 24 -6 24 -15z m327 -7 c-3 -8 -6 -5 -6 6 -1 11 2 17 5 13 3 -3 4 -12 1 -19z
m179 7 c18 -14 17 -14 -13 -15 -23 0 -33 5 -33 15 0 19 21 19 46 0z m-4858
-11 c730 -6 803 -8 800 -23 -3 -14 -34 -16 -283 -16 -899 0 -1823 8 -1835 15
-12 7 -11 11 0 26 13 15 36 16 265 10 137 -3 611 -9 1053 -12z m5067 7 c3 -5
1 -12 -5 -16 -14 -9 -52 4 -45 16 8 12 42 12 50 0z m-4215 -15 c0 -2 -16 -28
-36 -57 -53 -79 -109 -194 -135 -279 -18 -57 -24 -99 -24 -175 0 -114 16 -158
80 -214 20 -17 35 -37 32 -44 -2 -6 -26 11 -55 40 -39 39 -55 64 -68 109 -31
107 -4 275 68 419 57 113 138 232 138 201z m2015 -16 c1455 -10 3428 -31 3434
-36 1 -1 0 -8 -4 -15 -6 -9 -128 -10 -519 -5 -281 4 -1195 11 -2031 16 -1936
12 -2887 21 -2880 29 25 24 85 29 350 25 154 -3 897 -9 1650 -14z m4705 -8
c41 -34 61 -157 67 -418 5 -201 3 -235 -11 -262 -14 -28 -22 -32 -57 -32 l-40
0 8 53 c4 28 8 144 7 257 -1 212 -17 337 -49 387 -8 12 -15 25 -15 28 0 13 70
3 90 -13z m-382 -2 l273 0 16 -37 c15 -38 43 -193 43 -245 l0 -27 -352 5
c-194 2 -1055 9 -1913 14 -858 6 -1966 13 -2463 17 l-902 6 22 24 c17 18 29
22 50 17 53 -11 77 37 38 76 -31 31 -53 24 -108 -30 -85 -84 -83 -84 -427 -82
-287 2 -406 11 -447 33 -17 9 -17 12 -3 25 18 18 18 20 5 45 -13 24 -56 25
-69 1 -10 -19 -4 -70 12 -89 7 -10 -17 -13 -117 -13 -69 0 -126 3 -126 6 0 13
91 189 108 209 17 20 21 20 1047 12 3014 -23 4412 -32 4427 -29 9 2 22 17 28
33 l12 29 237 3 c130 2 259 2 286 0 28 -1 173 -3 323 -3z m-863 -9 c3 -5 1
-12 -5 -16 -5 -3 -10 1 -10 9 0 18 6 21 15 7z m-5557 -16 c2 -2 -11 -25 -27
-52 -17 -28 -45 -80 -61 -117 l-30 -66 -1003 6 c-551 3 -1008 8 -1015 10 -10
3 -12 17 -7 51 8 59 25 153 30 171 4 11 196 12 1057 6 579 -4 1054 -8 1056 -9z
m1200 -139 c-2 -8 2 -15 7 -14 6 0 9 5 7 12 -3 8 0 8 9 -1 6 -6 9 -19 6 -27
-7 -17 -37 -22 -37 -6 0 21 -27 8 -65 -30 -70 -72 -88 -75 -445 -75 -355 0
-414 7 -463 57 -34 33 -29 52 6 21 43 -40 88 -46 417 -50 383 -6 397 -4 478
72 56 54 86 68 80 41z m-960 -13 c2 -8 -6 -13 -22 -13 -25 0 -33 10 -19 24 10
10 36 3 41 -11z m-369 -109 c2 -2 -1 -21 -8 -42 -6 -20 -14 -77 -18 -127 -4
-74 -2 -100 14 -148 l20 -57 -1013 2 c-557 2 -1016 7 -1021 11 -9 10 -8 257 3
331 l6 49 1006 -7 c554 -4 1009 -9 1011 -12z m392 -9 c111 -40 677 -46 784
-10 47 16 190 16 2435 1 1312 -9 2545 -17 2740 -18 195 -1 395 -3 443 -6 l89
-4 -4 -171 c-1 -95 -7 -178 -11 -184 -9 -15 -383 -18 -709 -6 l-186 6 31 31
c28 27 34 30 49 18 20 -16 54 -8 67 16 11 22 -2 138 -20 175 -8 17 -23 30 -39
33 -20 4 -26 11 -25 32 0 24 -4 27 -35 27 -31 0 -35 -3 -35 -27 -1 -15 -4 -31
-9 -35 -20 -20 -36 -81 -36 -137 0 -54 -4 -66 -31 -99 -30 -36 -32 -37 -98
-37 l-68 0 -63 57 c-35 32 -58 48 -52 37 16 -30 104 -109 143 -129 40 -21 122
-85 116 -92 -10 -9 -145 87 -221 157 -52 48 -66 58 -38 28 23 -26 42 -50 42
-53 0 -3 -122 -5 -270 -5 l-270 0 35 53 c39 58 64 148 61 221 -1 56 -23 80
-50 57 -20 -17 -20 -40 0 -62 14 -16 14 -23 0 -80 -15 -58 -74 -171 -97 -185
-6 -3 -374 -3 -819 1 l-808 8 9 31 c12 41 11 102 -2 149 -9 35 -13 38 -42 35
-44 -4 -59 -36 -54 -118 2 -36 7 -73 12 -82 6 -16 1 -18 -48 -18 l-56 0 6 85
c7 93 -2 115 -43 115 -17 0 -25 -7 -30 -25 -7 -29 -8 -29 -33 -13 -37 23 -69
-9 -57 -57 8 -30 52 -35 71 -8 11 14 14 9 20 -36 4 -29 5 -54 2 -57 -2 -2
-671 -1 -1486 2 l-1481 7 0 44 c0 33 4 43 17 43 31 0 53 31 53 73 0 68 -57
108 -103 75 -12 -9 -22 -43 -32 -112 -8 -55 -15 -103 -15 -108 0 -5 -15 -8
-32 -6 -66 6 -94 128 -63 279 9 46 19 87 21 91 10 15 278 9 325 -7z m4797 -92
c-4 -22 -22 -20 -26 1 -2 10 3 16 13 16 10 0 15 -7 13 -17z m840 -28 c10 -38
10 -51 -3 -75 -9 -17 -19 -30 -24 -30 -5 0 -12 -11 -15 -25 -8 -33 -72 -140
-106 -179 -50 -55 -42 -21 10 43 27 34 50 70 50 79 0 9 11 39 25 66 14 27 25
56 25 63 0 10 7 12 23 8 21 -6 21 -5 3 9 -10 8 -16 22 -13 30 3 8 -1 20 -9 26
-19 17 -18 30 4 30 13 0 21 -13 30 -45z m-62 -77 c-20 -59 -21 -60 -24 -29 -3
34 25 104 39 96 4 -3 -3 -33 -15 -67z m-779 8 c-5 -55 -30 -111 -78 -182 -15
-22 -32 -56 -38 -75 l-11 -34 4 37 c3 21 19 58 36 83 42 61 67 120 75 178 10
65 19 60 12 -7z m898 22 c11 -28 20 -114 16 -155 0 -7 -9 -13 -19 -13 -15 0
-17 12 -19 100 0 55 1 100 4 100 2 0 10 -15 18 -32z m-5831 6 c20 -20 21 -78
1 -94 -21 -18 -27 -8 -15 24 13 34 -2 66 -31 66 -11 0 -17 5 -14 10 9 15 42
12 59 -6z m-2534 -14 c0 -5 -4 -10 -9 -10 -6 0 -13 5 -16 10 -3 6 1 10 9 10 9
0 16 -4 16 -10z m5700 -20 c0 -5 -11 -10 -25 -10 -14 0 -25 5 -25 10 0 6 11
10 25 10 14 0 25 -4 25 -10z m2627 -56 c-4 -38 -13 -54 -53 -95 -57 -58 -78
-65 -36 -11 32 40 56 81 57 97 1 23 17 55 27 55 7 0 9 -17 5 -46z m-2810 -26
c-3 -35 -4 -171 -3 -303 5 -866 -19 -1489 -60 -1543 -15 -19 -15 -30 6 223 33
407 47 1172 27 1538 -8 146 -8 147 13 147 20 0 21 -4 17 -62z m187 46 c8 -20
8 -72 0 -101 -4 -15 -14 -23 -29 -23 -15 0 -25 8 -29 23 -10 37 -7 92 6 105
17 17 45 15 52 -4z m-276 -31 c-3 -30 -25 -42 -34 -19 -9 22 2 46 21 46 12 0
15 -8 13 -27z m-5338 -53 c0 -5 -2 -10 -4 -10 -3 0 -8 5 -11 10 -3 6 -1 10 4
10 6 0 11 -4 11 -10z m5590 -200 c-6 -74 -17 -229 -25 -345 -8 -115 -15 -236
-15 -267 0 -36 -4 -58 -11 -58 -12 0 -8 107 17 445 7 105 14 229 14 276 0 47
3 89 7 93 18 17 21 -20 13 -144z m-5387 91 c23 -15 94 -60 157 -98 63 -38 129
-77 145 -87 l30 -18 -27 25 c-15 14 -89 62 -165 108 -76 45 -142 86 -148 92
-7 6 344 7 1008 3 l1017 -7 50 -37 c29 -21 50 -45 50 -55 0 -18 -18 -19 -452
-15 -417 3 -456 2 -485 -15 -31 -16 -34 -16 -85 4 -211 85 -336 108 -386 73
-51 -36 -12 -70 167 -144 80 -34 155 -65 166 -71 20 -10 -89 -8 -533 11 l-212
8 -118 71 c-64 39 -155 95 -202 125 -81 53 -83 55 -52 56 21 0 49 -11 75 -29z
m2473 4 c-11 -8 -32 -15 -46 -15 -15 0 -36 -11 -50 -25 -20 -21 -29 -24 -64
-19 -93 13 -116 23 -116 49 l0 25 148 0 c131 -1 145 -2 128 -15z m254 -3 c0
-30 -37 -130 -60 -162 -17 -23 -18 -30 -7 -30 18 0 40 32 56 83 12 36 14 37
35 24 32 -21 159 -65 174 -60 23 9 12 41 -25 72 l-38 31 115 -45 c182 -72 185
-73 188 -121 3 -35 -1 -45 -27 -66 -36 -31 -127 -47 -147 -26 -12 11 -10 21 7
56 27 53 19 66 -10 16 -17 -28 -24 -34 -35 -25 -19 16 -164 31 -191 21 -12 -5
-31 -20 -41 -34 -16 -21 -30 -27 -79 -32 -59 -6 -61 -5 -83 25 -18 25 -21 35
-12 51 13 24 23 25 83 4 25 -8 58 -14 74 -12 23 2 14 7 -43 26 -95 31 -125 27
-138 -17 -6 -22 -6 -43 1 -62 l11 -29 -44 0 c-46 0 -84 25 -84 54 0 8 -5 27
-11 43 l-11 28 -18 -22 c-10 -13 -21 -23 -24 -23 -7 0 17 75 43 131 18 41 25
47 60 53 27 4 47 15 63 35 23 29 25 30 121 30 88 1 97 -1 97 -17z m2448 3 c8
-3 12 -24 12 -60 l0 -55 -329 0 -330 0 -3 38 c-3 38 -10 42 -55 28 -17 -6 -22
-2 -25 16 -2 19 -9 23 -38 23 -31 0 -35 -3 -38 -27 -2 -17 -9 -28 -19 -28 -9
0 -13 6 -9 15 3 9 0 15 -10 15 -23 0 -13 -33 14 -46 13 -6 23 -15 23 -19 -1
-3 -288 -6 -638 -6 l-637 1 -127 50 c-70 27 -134 50 -142 50 -9 0 -18 4 -21 9
-5 8 2345 4 2372 -4z m148 -1 c28 -5 29 -7 26 -60 l-4 -54 -54 0 -54 0 0 60
c0 59 0 60 29 60 16 0 41 -3 57 -6z m-2501 -54 c75 -51 105 -80 69 -66 -145
53 -154 58 -154 88 0 15 2 28 5 28 3 0 39 -22 80 -50z m3605 45 c0 -2 -30 -27
-66 -55 l-67 -50 -443 0 -444 0 0 55 0 55 510 0 c281 0 510 -2 510 -5z m322
-70 c38 -59 53 -74 75 -77 25 -3 28 -7 28 -42 0 -40 -9 -51 -55 -60 -31 -6
-109 -65 -114 -86 -2 -8 -7 -27 -10 -42 -7 -30 -48 -49 -89 -41 -35 7 -34 19
3 38 17 9 30 22 30 30 0 12 -14 8 -61 -16 -34 -16 -63 -29 -65 -27 -2 2 19 32
47 67 32 39 56 60 65 57 20 -8 18 53 -3 76 -9 10 -29 18 -44 18 -36 0 -79 54
-86 109 -9 70 -7 71 119 70 l113 0 47 -74z m278 49 c0 -21 -3 -24 -21 -19 -11
4 -56 13 -100 20 -44 7 -83 15 -86 19 -3 3 42 6 100 6 l107 0 0 -26z m570 17
c102 -8 93 -12 -120 -46 -170 -28 -242 -31 -337 -14 -55 10 -63 14 -63 33 0
13 3 26 7 29 8 9 402 7 513 -2z m220 -1 c0 -5 -4 -10 -10 -10 -5 0 -10 5 -10
10 0 6 5 10 10 10 6 0 10 -4 10 -10z m939 -67 c-101 -105 -103 -118 -3 -20 83
80 92 87 129 87 l40 -1 -75 -71 c-41 -39 -97 -85 -125 -103 l-50 -32 -317 -2
c-175 -1 -318 2 -318 6 1 19 51 42 106 48 84 10 118 27 134 65 23 54 7 65 -91
64 -71 -1 -96 -6 -158 -32 -72 -32 -170 -45 -156 -21 4 5 -1 19 -10 29 -15 17
-15 19 7 34 20 14 77 16 487 16 l465 0 -65 -67z m-4325 -45 c23 -344 152
-1460 190 -1643 l14 -65 -25 -6 c-13 -4 -26 -5 -28 -3 -23 24 -156 1214 -180
1604 -3 55 -8 126 -11 158 -5 52 -4 57 14 57 18 0 20 -9 26 -102z m2566 61
c214 -40 245 -49 150 -42 -41 3 -133 18 -204 34 -72 16 -140 29 -152 29 -13 0
-26 5 -30 11 -8 13 -8 13 236 -32z m722 9 c-19 -19 -198 -48 -292 -47 l-95 1
100 14 c55 8 138 22 185 32 84 18 120 18 102 0z m-6713 -46 c73 -28 138 -55
144 -61 14 -14 -10 -95 -26 -88 -7 3 -86 36 -177 73 -241 98 -287 141 -140
131 45 -4 105 -20 199 -55z m5439 33 c1 -13 2 -28 3 -32 2 -8 -47 -65 -163
-187 -31 -34 -60 -57 -65 -53 -4 5 -1 13 7 17 37 23 43 29 37 44 -5 12 -12 13
-37 5 -16 -6 -37 -8 -46 -5 -22 8 -3 31 47 56 20 11 47 32 59 47 21 27 140
132 150 133 3 0 7 -11 8 -25z m-4141 -1 c29 -4 50 -11 47 -16 -5 -8 -95 -3
-136 8 -30 9 -21 27 10 20 15 -3 51 -9 79 -12z m2211 -1 c2 -7 -6 -21 -17 -32
-12 -12 -18 -27 -14 -37 4 -12 1 -15 -13 -12 -14 2 -20 13 -22 45 -3 37 0 42
20 46 30 6 41 3 46 -10z m2432 -23 c28 -6 19 -8 -49 -9 -69 -1 -86 2 -97 17
-26 34 -27 34 146 -8z m850 0 c11 -7 -9 -9 -70 -9 l-85 1 55 17 c53 17 64 16
100 -9z m464 21 c3 -5 -2 -19 -12 -31 -18 -22 -77 -39 -139 -40 -30 0 -33 3
-33 30 0 30 4 33 70 43 49 8 109 7 114 -2z m-8140 -95 c67 -41 136 -80 154
-88 l34 -13 -101 -47 -101 -46 -75 103 c-41 56 -75 106 -75 109 0 10 31 56 38
56 3 0 60 -33 126 -74z m7936 45 c0 -11 3 -26 6 -34 6 -17 -53 -64 -65 -51 -5
5 -11 26 -14 46 -5 33 -3 38 21 47 41 15 52 13 52 -8z m-6695 -18 c8 -10 83
-108 167 -218 83 -110 284 -373 446 -584 304 -396 302 -393 316 -506 l6 -50
-23 30 c-12 16 -133 174 -268 350 -535 698 -741 969 -746 982 -8 21 84 17 102
-4z m755 -31 c2 -215 34 -503 95 -837 24 -132 43 -241 41 -242 -2 -3 -162 204
-529 685 -86 114 -194 255 -239 314 -46 59 -84 111 -85 115 -2 5 159 7 357 5
l360 -2 0 -38z m203 16 c-4 -13 -8 -43 -8 -68 0 -44 1 -45 33 -48 17 -2 32 -9
32 -16 0 -7 12 -23 26 -37 23 -22 34 -24 115 -24 l89 0 -6 -35 c-14 -83 -68
-314 -128 -555 -36 -143 -73 -300 -82 -350 -9 -49 -20 -93 -23 -97 -6 -7 -26
94 -97 492 -41 227 -64 427 -71 598 l-6 162 67 0 c66 0 67 -1 59 -22z m-1006
-108 c49 -63 197 -257 329 -430 133 -173 334 -436 448 -585 l208 -270 -6 -75
c-12 -145 -77 -361 -167 -549 -44 -93 -310 -601 -324 -619 -1 -1 -76 104 -166
235 -89 131 -262 382 -383 558 -121 176 -278 406 -349 510 -72 105 -186 270
-255 368 l-125 179 11 196 c7 108 15 252 19 319 l6 122 36 14 c28 11 69 12
191 6 85 -4 203 -8 262 -8 104 -1 108 0 124 24 9 13 17 47 17 75 2 41 5 50 19
48 9 -2 56 -55 105 -118z m2146 93 c8 -16 24 -59 37 -98 12 -38 40 -112 62
-163 l40 -93 -13 -72 c-8 -43 -19 -76 -28 -82 -9 -5 -41 -12 -71 -15 -51 -5
-55 -7 -55 -30 0 -23 6 -26 65 -39 36 -7 109 -12 164 -11 l99 2 -5 -24 c-3
-12 -20 -96 -38 -186 -19 -89 -37 -161 -41 -160 -4 2 -82 95 -174 208 -114
140 -176 226 -196 270 -16 36 -58 126 -93 200 l-63 135 23 28 c32 38 39 72 27
119 l-10 38 128 0 128 0 14 -27z m66 -70 c18 -54 51 -138 73 -186 37 -81 39
-92 35 -154 -5 -61 -19 -95 -33 -81 -3 4 -1 29 5 57 13 59 7 96 -26 171 -27
61 -103 269 -103 282 0 4 4 8 8 8 5 0 23 -44 41 -97z m411 92 c0 -4 -7 -20
-16 -37 -23 -45 -80 -228 -109 -354 -14 -60 -28 -116 -31 -125 -3 -13 -15 -15
-62 -11 -31 2 -59 6 -62 9 -2 2 -5 43 -5 91 -1 75 -4 94 -28 140 -25 47 -107
266 -107 285 0 4 95 7 210 7 116 0 210 -2 210 -5z m440 -17 c0 -62 33 -446 62
-715 l32 -302 -42 -88 c-55 -115 -53 -132 2 -24 l43 85 7 -47 c7 -44 2 -61
-64 -217 -39 -94 -89 -220 -110 -281 -21 -61 -41 -113 -43 -115 -2 -3 -10 2
-17 11 -14 17 14 132 79 320 54 156 54 155 26 100 -23 -47 -75 -202 -110 -328
-9 -32 -20 -55 -24 -53 -9 6 -482 592 -495 613 -6 11 69 421 79 431 2 2 52 -1
110 -8 115 -12 139 -6 133 33 -6 38 -49 58 -137 64 -44 3 -81 9 -81 12 0 14
49 222 74 311 14 52 40 123 57 158 l32 62 193 0 194 0 0 -22z m351 -9 c77 -45
216 -113 202 -99 -6 7 -62 39 -125 71 l-113 59 130 -2 c72 -1 153 -3 181 -6
l52 -4 11 -81 c7 -45 14 -94 17 -109 5 -23 1 -27 -33 -38 -103 -34 -179 -95
-241 -194 -21 -33 -87 -150 -147 -258 -60 -109 -112 -195 -116 -190 -6 7 -29
203 -70 619 l-23 222 25 20 c20 17 39 20 111 21 80 0 92 -3 139 -31z m2329 27
c0 -2 -68 -147 -151 -322 -83 -175 -164 -347 -179 -382 l-29 -62 -133 138
-134 139 -13 68 c-12 68 -12 69 13 94 27 27 39 28 161 16 52 -6 64 -4 88 15
17 13 27 31 27 47 0 31 59 90 98 99 72 15 97 46 90 111 -2 18 1 35 7 37 12 5
155 8 155 2z m127 -8 c-3 -7 -112 -238 -242 -513 -129 -275 -266 -564 -303
-642 -36 -79 -69 -143 -73 -143 -7 0 -19 77 -19 124 0 20 48 132 125 296 69
146 192 406 273 577 l147 313 49 0 c35 0 47 -3 43 -12z m747 4 c3 -4 -102
-161 -233 -348 -130 -186 -314 -449 -407 -583 -93 -135 -174 -246 -180 -248
-5 -2 -76 66 -157 151 l-147 154 179 379 c98 209 193 407 210 441 l31 62 350
0 c192 0 351 -4 354 -8z m-2789 -124 c4 -68 10 -117 12 -110 9 24 33 13 33
-17 0 -28 -1 -28 -69 -33 -161 -12 -227 -93 -481 -591 l-75 -146 -8 49 -8 49
143 257 c180 323 234 386 366 425 49 14 49 14 27 134 -20 108 -20 105 19 105
l33 0 8 -122z m45 17 c0 -87 -3 -105 -15 -105 -11 0 -15 12 -15 44 0 23 -3 71
-6 105 -7 58 -6 61 15 61 20 0 21 -4 21 -105z m156 63 c-3 -24 -8 -91 -12
-150 -4 -60 -9 -108 -11 -108 -2 0 -22 15 -43 33 l-40 32 0 118 0 117 56 0 56
0 -6 -42z m904 33 c0 -11 -35 -39 -79 -63 -37 -20 -42 -61 -11 -80 11 -7 20
-22 20 -34 0 -12 9 -25 21 -30 19 -9 17 -14 -43 -86 -35 -42 -169 -209 -298
-372 -129 -163 -238 -296 -241 -296 -5 0 -74 144 -197 413 -44 96 -48 112 -42
150 5 23 6 45 3 50 -2 4 1 86 8 182 l12 175 424 0 c253 0 423 -4 423 -9z
m1758 -91 c20 -5 47 -11 60 -12 20 -3 13 -16 -80 -151 -291 -417 -581 -835
-657 -945 l-85 -123 -52 58 c-29 32 -53 61 -54 64 0 7 9 20 490 708 299 429
325 462 333 438 6 -19 19 -30 45 -37z m-5126 -6 c34 -6 52 -25 226 -243 104
-130 265 -330 358 -445 289 -357 732 -907 802 -995 37 -47 97 -119 135 -162
l67 -78 58 27 c73 34 157 36 219 3 l43 -21 -208 -260 c-114 -142 -211 -259
-216 -259 -5 -1 -5 75 -1 173 6 159 5 177 -12 217 -11 24 -80 118 -154 209
-74 91 -177 219 -230 285 -266 336 -406 510 -779 970 -485 599 -456 561 -433
574 20 12 71 14 125 5z m5698 1 c0 -3 -93 -124 -207 -269 -115 -145 -368 -467
-563 -715 l-355 -451 -93 94 -93 94 102 149 c215 311 723 1039 746 1071 l24
32 220 0 c120 0 219 -2 219 -5z m-6020 -35 c0 -5 -2 -10 -4 -10 -3 0 -8 5 -11
10 -3 6 -1 10 4 10 6 0 11 -4 11 -10z m191 -61 c9 -17 6 -19 -31 -19 -32 0
-40 4 -40 18 0 10 2 21 5 24 11 11 56 -5 66 -23z m-97 4 c-2 -10 -15 -79 -30
-153 -14 -74 -57 -256 -94 -405 -38 -148 -85 -349 -105 -445 -36 -172 -40
-188 -49 -179 -9 9 65 351 147 684 46 187 90 374 97 415 6 41 14 81 16 88 5
19 23 14 18 -5z m532 -119 c35 -75 63 -138 61 -140 -4 -4 -196 239 -197 251 0
6 14 13 32 16 18 4 34 7 36 8 2 0 32 -60 68 -135z m-3310 69 c36 -49 36 -51 4
-68 -30 -15 -32 -15 -49 7 -17 21 -18 25 -3 55 9 18 19 33 22 33 3 0 15 -12
26 -27z m467 -201 l-8 -82 -73 101 c-40 56 -71 103 -69 105 2 2 37 19 78 38
l74 34 3 -56 c1 -31 -1 -94 -5 -140z m2437 179 c0 -4 -5 -22 -11 -40 -9 -26
-8 -36 6 -57 14 -22 22 -25 48 -20 18 3 39 7 48 8 17 3 39 -22 269 -307 152
-188 154 -192 253 -395 54 -113 119 -248 143 -301 l44 -95 -19 -37 c-10 -20
-21 -64 -25 -98 -6 -48 -14 -71 -37 -98 -23 -28 -29 -45 -29 -84 0 -26 -6 -58
-14 -70 -8 -12 -17 -42 -21 -66 -5 -31 -17 -53 -38 -72 -24 -22 -32 -40 -38
-81 -7 -53 -97 -298 -109 -298 -4 0 -34 35 -67 78 -32 42 -211 274 -396 515
-186 241 -343 446 -349 456 -14 23 10 143 117 571 40 162 81 333 90 380 25
129 19 120 81 120 30 0 54 -4 54 -9z m2512 -18 c20 -19 28 -37 28 -60 l0 -33
-40 40 c-61 61 -50 112 12 53z m-2438 -54 c-6 -11 -54 -12 -54 -1 0 4 3 17 6
30 l7 23 23 -22 c13 -12 21 -26 18 -30z m2334 -94 c4 -121 -14 -599 -29 -765
-5 -58 -12 -167 -15 -242 l-7 -137 -101 -128 c-56 -71 -129 -163 -163 -205
l-62 -75 -49 24 -48 24 -17 122 c-11 74 -23 126 -31 132 -15 11 -35 120 -71
395 l-25 184 111 216 c216 419 274 506 369 549 29 14 61 20 90 19 l45 -3 3
-110z m128 -38 c-3 -16 -6 -54 -6 -83 0 -44 -3 -54 -17 -54 -9 0 -25 -7 -35
-17 -17 -16 -18 -11 -18 128 l1 144 40 -45 c34 -37 40 -49 35 -73z m1134 -322
c21 -126 46 -288 55 -360 9 -71 22 -160 29 -197 7 -38 11 -68 9 -68 -2 0 -22
9 -43 20 -60 31 -48 16 21 -26 59 -35 61 -38 57 -73 -8 -60 27 -181 58 -206
20 -16 25 -26 20 -43 -8 -24 26 -157 55 -214 11 -21 19 -46 19 -58 0 -11 11
-30 25 -42 17 -15 25 -32 25 -55 0 -18 15 -70 34 -115 69 -168 114 -330 200
-720 48 -212 56 -241 84 -272 59 -67 52 -125 -22 -176 -25 -17 -46 -33 -46
-36 0 -7 62 26 83 44 16 14 17 12 17 -31 0 -72 -4 -77 -61 -70 -87 10 -151
-18 -211 -95 -16 -20 -27 -22 -102 -22 -55 0 -87 4 -94 13 -14 17 -52 127 -52
150 0 11 -17 46 -39 77 -24 37 -46 89 -61 142 -12 45 -57 171 -99 278 -64 160
-111 300 -177 532 -5 16 -1 15 41 -3 25 -11 56 -19 68 -17 17 3 13 7 -19 16
-45 13 -59 25 -67 57 -4 18 -5 17 -6 -3 -1 -14 -6 -22 -13 -20 -19 6 -58 68
-58 90 0 17 2 18 30 3 17 -9 30 -23 30 -33 0 -13 2 -14 9 -4 6 11 19 11 68 -2
34 -9 76 -16 94 -15 23 0 8 7 -48 19 -84 19 -136 41 -149 62 -4 7 -11 28 -16
48 -7 33 -7 32 -3 -8 l3 -44 -23 22 c-12 12 -25 38 -29 58 -3 20 -17 47 -29
59 -36 33 -149 261 -205 413 -28 74 -81 224 -118 333 -64 190 -66 198 -49 217
10 11 22 17 28 13 5 -3 7 -1 3 5 -3 6 89 129 206 274 117 145 253 314 303 376
l89 112 18 -88 c10 -48 36 -190 58 -317z m-6292 145 c123 -173 163 -236 160
-255 -2 -21 -34 16 -192 217 -175 224 -188 242 -171 255 11 7 24 13 30 13 5 0
84 -104 173 -230z m3486 121 c3 -5 75 -12 158 -16 172 -8 223 -20 223 -50 0
-17 -6 -20 -35 -17 -19 1 -123 4 -230 5 -192 4 -195 4 -198 26 -6 36 65 81 82
52z m1765 -103 c17 -43 64 -145 106 -228 l75 -151 -112 -141 -113 -142 -3 50
c-2 27 1 171 7 319 5 149 7 295 4 325 -3 30 -3 53 0 50 3 -3 19 -40 36 -82z
m1193 -71 l80 -87 -27 -65 c-16 -36 -31 -65 -34 -65 -3 0 -34 31 -68 69 -61
68 -62 69 -78 162 -9 52 -19 105 -22 119 -5 24 -4 23 32 -10 20 -19 73 -74
117 -123z m-3062 128 c0 -16 -28 -19 -67 -9 -38 10 -26 24 22 24 33 0 45 -4
45 -15z m1810 -136 l0 -80 -37 3 -38 3 -3 78 -3 77 41 0 40 0 0 -81z m-86 -88
c4 -6 16 -11 27 -11 20 0 20 -5 13 -282 -7 -313 -1 -284 -79 -373 l-26 -30 6
55 c18 183 26 313 32 540 6 189 9 236 14 183 4 -39 10 -76 13 -82z m80 -263
c-3 -145 -11 -270 -16 -278 -6 -9 -7 87 -3 255 6 254 9 285 21 285 3 0 2 -118
-2 -262z m1256 107 c0 -14 -53 -135 -60 -135 -3 0 -12 46 -19 103 -7 56 -15
113 -18 127 -4 20 4 15 45 -30 28 -30 51 -59 52 -65z m-3082 -199 l110 -138
-14 -57 c-7 -31 -13 -63 -14 -70 0 -27 -17 2 -90 159 -104 223 -123 266 -111
255 5 -5 59 -72 119 -149z m3345 -59 l136 -144 -144 -209 c-80 -115 -149 -210
-155 -212 -6 -2 -5 9 2 28 10 29 8 34 -25 68 -43 45 -72 136 -57 177 8 21 5
37 -16 82 l-27 55 53 112 c29 61 60 128 69 148 9 21 19 38 22 38 4 0 68 -65
142 -143z m-6300 1 c53 -76 360 -527 371 -548 16 -27 -9 2 -71 85 -270 362
-379 525 -349 525 2 0 24 -28 49 -62z m5221 -274 c99 -290 138 -392 193 -495
l46 -87 -88 -189 c-191 -409 -446 -947 -451 -952 -12 -12 -54 55 -59 94 -27
195 -58 731 -62 1076 l-5 385 167 208 c123 152 170 204 176 194 5 -8 42 -113
83 -234z m-1258 45 c14 -100 28 -199 33 -219 5 -21 4 -44 -1 -53 -5 -10 -2
-47 10 -99 22 -105 15 -130 -42 -149 -23 -7 -44 -13 -48 -14 -7 0 -64 68 -155
183 l-26 32 36 93 c20 50 54 139 76 197 55 147 85 219 89 215 2 -1 14 -85 28
-186z m-781 9 c44 -56 81 -105 83 -109 2 -4 -10 -4 -27 1 -17 4 -38 6 -49 4
-12 -4 -22 3 -31 20 -17 32 -37 24 -62 -25 -11 -22 -25 -39 -32 -39 -23 0 -38
-22 -25 -37 8 -10 6 -24 -10 -56 -34 -72 -43 -110 -29 -119 9 -6 9 -12 0 -28
-18 -28 -16 -74 5 -92 9 -9 46 -31 82 -49 62 -32 71 -34 205 -39 l140 -5 -57
-14 c-111 -27 -253 4 -358 79 -30 21 -70 27 -70 10 0 -5 9 -15 19 -22 16 -9
18 -20 14 -61 -4 -44 -3 -49 12 -43 12 4 23 -1 32 -14 8 -12 26 -25 39 -30 13
-5 30 -22 36 -37 16 -38 16 -37 33 -23 19 16 20 34 1 27 -8 -3 -17 1 -20 9 -4
9 1 14 14 14 11 0 20 -4 20 -10 0 -16 53 -12 78 6 12 8 26 13 31 10 5 -3 49
16 97 43 l89 49 -1 46 c-1 34 2 46 13 46 8 0 21 16 29 35 8 19 19 35 24 35 11
0 80 -89 80 -103 0 -28 -72 -155 -99 -175 -20 -14 -31 -31 -31 -46 0 -13 -11
-46 -25 -73 -13 -26 -36 -91 -50 -143 -52 -194 -149 -470 -217 -620 -39 -85
-84 -194 -100 -242 -25 -74 -39 -97 -89 -150 -32 -35 -59 -68 -59 -75 0 -7 -7
-28 -16 -47 -18 -37 -44 -46 -137 -46 -41 0 -52 4 -73 30 -29 34 -87 53 -147
48 -35 -3 -43 1 -54 22 -8 15 -11 39 -7 60 3 19 7 60 8 90 2 35 10 67 23 89
15 23 20 43 16 66 -4 24 2 49 21 88 26 52 70 218 116 436 25 117 68 255 129
411 23 58 41 119 41 137 0 22 8 38 25 51 28 22 45 60 45 100 0 15 9 41 20 57
13 20 20 47 20 81 0 35 5 56 16 65 24 20 41 59 49 114 4 28 17 73 30 100 13
28 29 83 36 123 7 39 15 72 18 72 3 -1 42 -46 86 -102z m-910 -468 c213 -278
392 -510 397 -516 8 -12 -11 -105 -22 -103 -3 0 -160 203 -350 451 -190 248
-373 486 -407 529 l-63 78 12 51 c11 48 12 50 29 33 9 -10 191 -245 404 -523z
m4243 460 l53 -60 -177 -254 -178 -255 -24 57 c-46 110 -48 119 -25 150 11 15
71 101 133 192 115 167 159 230 163 230 2 0 26 -27 55 -60z m-3358 -95 c7 -9
30 -15 54 -16 22 0 48 -3 57 -7 18 -7 122 -133 115 -139 -7 -8 -185 36 -246
61 -73 30 -96 26 -27 -4 54 -24 176 -57 248 -66 27 -4 49 -10 49 -15 0 -10
-53 -2 -167 27 -100 24 -183 57 -183 72 0 5 11 21 24 35 14 15 27 36 31 47 8
24 28 26 45 5z m3434 -388 c-97 -122 -197 -250 -223 -284 -25 -34 -48 -62 -51
-62 -11 -1 -60 137 -54 152 3 9 -2 32 -11 51 l-17 36 89 127 c49 71 130 186
179 256 l89 129 87 -91 88 -91 -176 -223z m-3469 253 c56 -24 180 -56 252 -66
31 -4 59 -14 69 -25 16 -18 16 -19 -17 -19 -77 1 -250 39 -314 69 -36 16 -63
25 -59 19 4 -7 3 -8 -4 -4 -9 5 -9 13 -2 27 13 24 17 24 75 -1z m1679 -980
c10 -113 23 -265 30 -337 6 -73 8 -133 4 -133 -15 0 -25 95 -54 475 -18 244
-31 899 -18 941 5 18 11 -114 15 -356 3 -218 14 -474 23 -590z m-1679 922 c48
-24 159 -49 270 -62 l80 -9 -95 4 c-101 4 -222 33 -279 66 -18 11 -36 18 -38
15 -3 -3 18 -16 46 -30 67 -34 200 -66 278 -66 34 0 73 -4 87 -10 l26 -9 -18
-36 c-9 -19 -25 -37 -34 -41 -10 -3 -18 -11 -19 -17 -1 -7 -2 -21 -3 -32 -1
-25 -32 -33 -129 -34 -87 -1 -164 20 -243 67 -51 30 -64 63 -37 94 10 11 12
22 6 33 -6 11 -6 31 1 55 9 34 13 39 35 36 15 -2 44 -13 66 -24z m982 -47 c6
-39 14 -91 18 -117 l6 -48 -47 0 c-42 0 -46 2 -41 21 3 12 -3 59 -13 105 -18
85 -17 93 20 107 36 13 45 2 57 -68z m657 -870 c9 -126 21 -270 26 -320 5 -49
8 -91 6 -92 -2 -2 -89 103 -194 234 l-191 238 -1 222 0 221 77 99 c42 54 115
145 162 202 l86 104 6 -339 c4 -187 14 -442 23 -569z m2151 795 l39 -40 -59
-52 c-33 -29 -150 -134 -260 -233 -110 -98 -195 -173 -189 -165 6 8 62 80 124
160 203 260 292 370 299 370 4 0 25 -18 46 -40z m-3886 -109 c86 -56 139 -73
236 -79 76 -4 86 -7 65 -16 -14 -6 -32 -15 -40 -20 -15 -10 -24 -12 -103 -22
-57 -7 -131 17 -148 47 -7 14 -16 18 -32 14 -12 -4 -17 -3 -12 2 18 15 12 67
-9 85 -33 28 -7 21 43 -11z m697 -155 l44 -58 -3 -214 c-3 -205 -4 -215 -25
-236 -12 -12 -23 -20 -24 -17 -7 10 -66 134 -139 294 l-79 169 39 41 c22 22
49 64 62 94 l23 54 29 -34 c16 -19 49 -60 73 -93z m1785 -34 l26 -38 -266
-568 -265 -569 -31 38 -32 37 92 197 c51 108 152 322 224 476 73 154 151 322
174 373 22 50 43 92 46 92 3 -1 18 -18 32 -38z m58 -134 c13 -43 33 -91 50
-118 5 -8 33 -94 61 -190 29 -95 68 -214 86 -264 19 -49 33 -92 32 -96 -2 -4
-48 -46 -103 -95 -55 -48 -194 -174 -308 -279 -115 -105 -212 -192 -216 -194
-4 -1 -38 36 -75 83 l-68 86 227 487 c125 268 242 519 259 559 17 39 34 69 37
68 3 -2 11 -23 18 -47z m-2056 5 c9 -21 54 -119 101 -217 l86 -180 -23 -30
c-13 -16 -28 -31 -34 -33 -5 -2 -53 89 -106 202 l-96 206 21 44 c12 25 25 45
29 45 4 0 14 -17 22 -37z m-18 -235 c32 -68 72 -155 91 -194 l32 -71 -160
-199 c-88 -110 -161 -200 -162 -201 -1 -2 -23 26 -49 61 l-47 64 64 158 c70
175 114 308 142 427 10 42 21 77 24 77 4 0 33 -55 65 -122z m2346 -527 l16
-38 -214 -274 c-118 -151 -234 -300 -258 -332 l-44 -57 -25 32 c-14 18 -21 37
-17 43 4 5 95 123 203 260 107 138 221 285 252 328 32 42 61 77 65 77 3 0 13
-17 22 -39z m-128 -43 c-6 -7 -107 -138 -226 -290 l-216 -278 -40 48 c-23 26
-41 49 -41 52 0 10 518 480 528 480 3 0 0 -6 -5 -12z m-2480 -62 c20 -30 37
-58 37 -63 -1 -4 -11 -21 -24 -36 l-23 -29 -37 50 c-20 27 -36 55 -36 61 0 17
29 71 38 71 4 0 24 -25 45 -54z m2637 20 c0 -2 -8 -10 -17 -17 -16 -13 -17
-12 -4 4 13 16 21 21 21 13z m-2676 -182 c-39 -56 -201 -253 -208 -253 -5 -1
-2 7 7 17 11 12 17 36 17 64 0 29 6 50 16 58 25 21 63 93 80 151 9 30 18 58
21 62 2 4 21 -13 40 -39 25 -32 33 -51 27 -60z m-224 -180 c0 -28 -6 -38 -32
-54 -18 -10 -33 -18 -35 -16 -2 2 8 29 22 60 27 62 45 66 45 10z m-477 -36
c15 -22 18 -38 12 -76 -3 -26 -9 -53 -13 -58 -9 -14 -62 -27 -62 -16 0 22 22
179 27 192 5 13 6 13 12 0 3 -8 14 -27 24 -42z m4118 -68 c8 -49 13 -90 11
-90 -1 0 -16 7 -31 15 -39 19 -51 90 -24 135 9 16 20 30 23 30 3 0 12 -40 21
-90z m-94 74 c19 -5 20 -10 12 -31 -6 -16 -6 -38 1 -62 8 -30 7 -38 -7 -48 -9
-7 -26 -13 -36 -13 -11 0 -33 -13 -49 -30 -33 -35 -38 -36 -38 -12 -1 30 -39
102 -55 102 -8 0 -15 6 -15 13 0 22 36 49 92 68 59 20 64 21 95 13z m-3877
-19 c39 -20 54 -49 35 -65 -8 -7 -22 -36 -32 -66 -9 -30 -20 -54 -23 -54 -4 0
-17 11 -30 25 -13 14 -34 25 -48 25 -20 0 -23 4 -18 23 3 12 6 46 6 75 l0 52
40 0 c23 0 54 -7 70 -15z m3978 -162 c30 -19 63 -73 60 -98 -4 -26 -28 -22
-82 13 -23 14 -47 25 -53 24 -7 -2 -13 2 -13 8 0 6 5 8 12 4 7 -5 9 -2 5 8 -4
12 -1 14 14 11 11 -3 22 -10 26 -16 4 -6 0 -8 -10 -4 -24 9 -21 0 4 -14 17 -8
20 -8 14 1 -5 8 -3 11 4 9 7 -3 12 -8 11 -13 -2 -10 31 -35 48 -36 6 0 12 5
12 11 0 5 -4 8 -9 5 -5 -4 -7 2 -4 12 5 20 -57 82 -82 82 -7 0 -17 5 -21 11
-8 14 31 3 64 -18z m-38 -10 c49 -25 79 -58 66 -71 -4 -3 -13 4 -22 16 -8 12
-33 31 -54 42 -34 17 -60 40 -47 40 3 0 28 -12 57 -27z m-4024 10 c-4 -4 -26
-6 -50 -4 -48 3 -122 -23 -130 -46 -15 -38 29 -44 82 -11 20 12 30 24 24 26
-6 2 -25 -7 -42 -19 -22 -17 -33 -20 -41 -12 -15 15 28 43 77 49 22 2 33 2 26
-2 -6 -3 -10 -10 -7 -14 8 -13 -45 -59 -77 -66 -51 -11 -78 35 -40 69 9 9 29
20 42 26 28 11 147 15 136 4z m3934 -3 c0 -5 -4 -10 -10 -10 -5 0 -10 5 -10
10 0 6 5 10 10 10 6 0 10 -4 10 -10z m-3856 -63 c35 -43 46 -65 44 -85 -3 -31
-30 -41 -55 -20 -28 23 -64 117 -53 137 5 10 6 22 2 26 -4 4 -2 6 4 4 6 -2 32
-30 58 -62z m3796 -49 c-16 -40 -30 -65 -30 -56 0 10 9 40 20 68 23 59 24 64
9 54 -7 -4 -7 2 1 16 11 20 14 21 21 7 6 -10 0 -39 -21 -89z m-3906 66 c-20
-29 -30 -89 -14 -79 6 3 10 17 10 31 0 13 5 24 10 24 6 0 10 -12 10 -27 0 -16
3 -39 6 -53 6 -21 4 -23 -7 -12 -7 6 -20 12 -29 12 -13 0 -13 -2 0 -10 8 -5
11 -12 8 -15 -20 -21 -43 46 -27 77 6 11 6 18 0 18 -5 0 3 14 17 30 32 37 38
38 16 4z m3931 -83 c-27 -81 -54 -119 -76 -106 -16 10 -6 103 16 145 9 17 19
30 21 27 3 -3 -1 -18 -9 -34 -23 -43 -31 -99 -17 -108 16 -10 24 4 57 98 36
100 42 83 8 -22z m75 53 c11 -20 19 -43 16 -50 -6 -16 -52 -19 -61 -5 -7 13 5
91 15 91 5 0 18 -16 30 -36z m-3952 -94 c0 -33 -1 -32 -13 15 -17 67 -17 100
0 55 7 -19 13 -51 13 -70z m3992 79 c0 -6 -4 -7 -10 -4 -5 3 -10 11 -10 16 0
6 5 7 10 4 6 -3 10 -11 10 -16z m7 -41 c-3 -8 -6 -5 -6 6 -1 11 2 17 5 13 3
-3 4 -12 1 -19z m-12 -18 c3 -5 -1 -10 -10 -10 -9 0 -13 5 -10 10 3 6 8 10 10
10 2 0 7 -4 10 -10z m-48 -8 c8 -5 1 -16 -23 -36 -20 -15 -37 -26 -40 -24 -2
3 -1 19 2 36 7 32 32 42 61 24z m58 -53 c0 -38 -14 -45 -72 -34 l-35 6 23 26
c25 26 57 43 74 39 6 -1 10 -18 10 -37z m-4025 21 c0 -5 -8 -7 -17 -3 -14 5
-13 0 6 -20 27 -29 21 -47 -15 -47 -85 0 -72 72 14 79 6 1 12 -3 12 -9z m4054
-15 c3 -8 1 -15 -4 -15 -6 0 -10 7 -10 15 0 8 2 15 4 15 2 0 6 -7 10 -15z
m-55 -61 c2 -2 -14 -4 -37 -4 -23 0 -42 4 -42 9 0 9 69 4 79 -5z m-4064 -4
c18 -8 17 -9 -7 -9 -16 -1 -28 4 -28 9 0 12 8 12 35 0z m4125 -2 c0 -4 -4 -8
-9 -8 -6 0 -12 4 -15 8 -3 5 1 9 9 9 8 0 15 -4 15 -9z"/>
<path d="M5288 8834 c-26 -8 -50 -19 -53 -24 -3 -5 19 -1 48 9 30 11 63 21 73
24 18 4 17 5 -1 5 -11 0 -41 -6 -67 -14z"/>
<path d="M5454 8834 c-18 -14 -18 -14 6 -3 31 14 36 19 24 19 -6 0 -19 -7 -30
-16z"/>
<path d="M5355 8820 c27 -12 43 -12 25 0 -8 5 -22 9 -30 9 -10 0 -8 -3 5 -9z"/>
<path d="M5463 8804 l-28 -25 28 17 c38 23 96 14 160 -26 28 -17 44 -24 37
-15 -23 27 -113 75 -142 75 -15 0 -39 -11 -55 -26z"/>
<path d="M5222 8754 c-56 -28 -112 -88 -137 -147 -23 -56 -18 -57 14 -1 66
113 188 178 275 144 35 -13 33 -4 -4 15 -42 22 -89 19 -148 -11z"/>
<path d="M5463 8758 c-12 -6 -24 -17 -27 -25 -4 -9 3 -7 20 6 36 28 88 27 139
-3 53 -31 149 -164 220 -306 29 -58 80 -141 112 -185 81 -108 109 -159 127
-231 20 -77 20 -97 0 -61 -23 42 -24 32 -3 -22 10 -28 23 -78 28 -113 9 -56 9
-51 5 42 -10 183 -33 250 -137 387 -30 40 -78 118 -108 174 -65 121 -191 295
-238 326 -37 25 -99 30 -138 11z"/>
<path d="M5757 8709 c22 -24 55 -66 72 -93 17 -28 31 -45 31 -40 0 13 -57 103
-84 132 -11 13 -30 28 -41 34 -11 6 -1 -9 22 -33z"/>
<path d="M5083 8673 c-50 -53 -104 -160 -127 -248 -18 -70 -36 -216 -36 -295
0 -78 -23 -176 -64 -277 -20 -48 -34 -88 -32 -90 6 -7 76 157 91 214 9 32 20
124 26 204 15 222 25 223 27 3 1 -129 -4 -231 -13 -293 -8 -52 -13 -97 -11
-99 7 -6 34 130 40 198 3 36 2 145 -2 244 -8 169 -7 183 13 245 30 92 60 146
107 197 22 24 37 44 32 44 -4 0 -27 -21 -51 -47z"/>
<path d="M5325 8703 c11 -3 36 -16 55 -30 l35 -25 -33 31 c-18 17 -42 30 -55
30 -20 -1 -20 -2 -2 -6z"/>
<path d="M5450 8675 c-13 -14 -22 -27 -19 -29 2 -2 16 9 30 25 15 16 23 29 20
29 -4 0 -18 -11 -31 -25z"/>
<path d="M5215 8661 c-52 -24 -117 -93 -148 -156 -41 -81 -51 -160 -41 -298
15 -205 10 -333 -15 -401 -26 -73 -21 -85 7 -18 37 86 44 164 27 321 -11 109
-12 158 -4 218 23 166 90 280 194 332 51 26 33 27 -20 2z"/>
<path d="M5480 8600 c-8 -5 -12 -12 -9 -15 4 -3 12 1 19 10 14 17 11 19 -10 5z"/>
<path d="M5685 8528 c13 -24 35 -89 49 -146 14 -57 36 -128 50 -158 28 -60
119 -162 175 -195 28 -17 19 -3 -45 63 -102 106 -125 146 -165 283 -32 110
-60 178 -78 190 -6 3 1 -14 14 -37z"/>
<path d="M5840 8526 c0 -17 72 -142 102 -176 34 -38 28 -24 -10 27 -13 18 -39
60 -58 95 -18 35 -34 59 -34 54z"/>
<path d="M5720 8519 c0 -12 82 -227 107 -282 15 -32 34 -63 42 -70 8 -7 4 7
-9 33 -13 25 -42 98 -66 162 -35 97 -74 179 -74 157z"/>
<path d="M5080 8330 c-3 -30 -1 -122 6 -205 10 -132 11 -139 11 -60 0 50 -2
142 -6 205 -5 96 -7 106 -11 60z"/>
<path d="M6016 7805 c8 -123 22 -199 54 -281 26 -67 39 -118 54 -204 3 -14 3
7 2 45 -2 48 -15 104 -39 175 -20 59 -41 146 -47 197 -16 129 -30 168 -24 68z"/>
<path d="M4867 7755 c-40 -86 -49 -115 -52 -176 l-5 -74 14 70 c15 75 29 117
70 209 15 32 26 62 24 66 -2 4 -25 -39 -51 -95z"/>
<path d="M4860 7595 c-32 -95 -26 -217 14 -295 33 -63 77 -132 82 -127 2 2 -9
28 -26 58 -67 121 -87 257 -54 368 23 77 10 74 -16 -4z"/>
<path d="M5991 7553 c-1 -32 18 -96 63 -217 15 -37 31 -91 36 -120 l9 -51 -3
65 c-3 44 -14 90 -37 145 -18 44 -40 109 -50 145 -14 49 -18 57 -18 33z"/>
<path d="M5032 7405 c0 -16 2 -22 5 -12 2 9 2 23 0 30 -3 6 -5 -1 -5 -18z"/>
<path d="M5616 8170 c-22 -56 -19 -65 5 -11 11 24 18 46 15 48 -2 2 -11 -14
-20 -37z"/>
<path d="M5774 7991 c-12 -14 -24 -37 -28 -51 -5 -16 4 -8 25 23 35 52 37 70
3 28z"/>
<path d="M5852 7810 c0 -14 2 -19 5 -12 2 6 2 18 0 25 -3 6 -5 1 -5 -13z"/>
<path d="M5806 7409 c-14 -70 -6 -168 20 -249 14 -45 28 -80 30 -77 3 3 -5 38
-18 78 -17 57 -22 98 -22 177 0 56 -1 102 -2 102 -1 0 -4 -14 -8 -31z"/>
<path d="M5611 7404 c0 -11 3 -14 6 -6 3 7 2 16 -1 19 -3 4 -6 -2 -5 -13z"/>
<path d="M5596 7354 c-4 -14 -5 -28 -3 -31 3 -2 8 8 11 23 4 14 5 28 3 31 -3
2 -8 -8 -11 -23z"/>
<path d="M5466 7151 c18 -19 25 -21 43 -12 11 7 21 17 21 23 0 6 -9 3 -20 -7
-19 -17 -21 -17 -42 1 l-23 18 21 -23z"/>
<path d="M5771 6994 c0 -11 3 -14 6 -6 3 7 2 16 -1 19 -3 4 -6 -2 -5 -13z"/>
<path d="M6463 6733 c-47 -68 -77 -123 -69 -130 2 -3 12 10 21 29 10 18 35 59
57 91 22 33 38 61 35 63 -2 2 -22 -22 -44 -53z"/>
<path d="M6665 6439 c-4 -6 -25 -24 -47 -40 -23 -16 -37 -29 -31 -29 15 0 93
59 93 70 0 13 -7 13 -15 -1z"/>
<path d="M6437 6408 c-29 -38 -61 -102 -71 -138 -4 -14 13 12 37 57 24 45 50
89 57 97 7 9 10 16 7 16 -3 0 -17 -15 -30 -32z"/>
<path d="M6580 5927 c-14 -12 -41 -34 -60 -49 -19 -15 -30 -28 -24 -28 5 0 35
22 65 50 30 27 52 49 49 49 -3 0 -16 -10 -30 -22z"/>
<path d="M6495 5781 c-35 -21 -85 -77 -85 -94 0 -7 17 7 36 31 20 23 53 51 73
62 20 10 29 19 21 20 -8 0 -29 -8 -45 -19z"/>
<path d="M6579 5756 c-33 -12 -99 -52 -99 -61 0 -2 26 10 58 26 71 36 147 40
183 9 l24 -19 -65 -2 c-110 -2 -138 -16 -35 -18 97 -1 119 6 109 33 -16 42
-103 58 -175 32z"/>
<path d="M6775 5606 c22 -19 42 -32 44 -30 8 8 -52 64 -68 64 -10 0 0 -14 24
-34z"/>
<path d="M6555 5461 c43 -11 71 -27 94 -57 23 -30 29 -20 6 10 -24 32 -68 56
-100 55 l-30 -1 30 -7z"/>
<path d="M6520 5388 c36 -11 78 -29 93 -40 16 -11 30 -18 33 -15 8 7 -77 56
-118 67 -65 19 -72 9 -8 -12z"/>
<path d="M6460 5325 c0 -2 18 -14 39 -24 21 -11 55 -36 75 -54 40 -38 44 -38
19 -1 -21 32 -133 99 -133 79z"/>
<path d="M4460 6658 c21 -80 58 -171 84 -203 12 -15 11 -6 -5 35 -12 30 -35
93 -52 140 -39 110 -51 122 -27 28z"/>
<path d="M4540 6355 c19 -22 39 -44 44 -50 5 -5 4 -1 -2 10 -6 11 -25 33 -44
50 l-33 30 35 -40z"/>
<path d="M4461 6348 c24 -17 59 -42 77 -55 18 -13 44 -45 57 -71 14 -26 23
-36 19 -22 -10 41 -46 89 -89 117 -22 14 -52 34 -67 45 -47 31 -44 20 3 -14z"/>
<path d="M4401 6175 c0 -5 23 -35 50 -65 28 -30 46 -46 41 -35 -14 28 -91 113
-91 100z"/>
<path d="M4505 5809 c-16 -10 -26 -19 -22 -19 11 0 67 29 67 35 0 9 -15 4 -45
-16z"/>
<path d="M4384 5770 c53 -61 63 -71 39 -35 -12 17 -34 41 -49 55 -19 17 -15
10 10 -20z"/>
<path d="M4259 5695 c41 -13 88 -34 105 -46 30 -22 31 -22 12 -1 -25 29 -92
59 -146 66 -39 5 -34 2 29 -19z"/>
<path d="M4254 5490 c-12 -5 -25 -13 -28 -19 -4 -6 10 -3 31 6 27 11 54 14 96
9 37 -4 56 -2 52 4 -8 12 -122 12 -151 0z"/>
<path d="M4482 5226 c-52 -47 -89 -120 -96 -186 l-6 -55 18 60 c24 80 46 119
94 171 48 53 43 58 -10 10z"/>
<path d="M4344 5198 c-27 -33 -59 -97 -51 -104 2 -2 16 17 31 43 14 27 34 58
42 71 24 33 10 27 -22 -10z"/>
<path d="M4495 5154 c-24 -25 -51 -113 -42 -136 6 -16 13 1 21 53 4 21 18 53
31 73 28 42 24 47 -10 10z"/>
<path d="M5584 6600 c-4 -22 -9 -40 -13 -40 -3 0 -13 17 -23 38 l-16 37 1
-105 c0 -65 2 -81 4 -42 2 36 8 60 13 57 6 -4 10 -15 10 -26 0 -30 16 -22 28
14 9 29 10 26 11 -35 1 -37 6 -70 11 -73 6 -4 10 18 10 58 0 133 -22 204 -36
117z"/>
<path d="M5646 6618 c-3 -13 -8 -61 -11 -108 -4 -75 -3 -80 7 -45 6 22 13 42
15 45 7 8 23 -24 23 -47 0 -13 4 -23 10 -23 10 0 6 56 -11 148 -11 55 -23 66
-33 30z m24 -68 c0 -11 -4 -20 -10 -20 -5 0 -10 9 -10 20 0 11 5 20 10 20 6 0
10 -9 10 -20z"/>
<path d="M5260 6558 l-13 -63 -11 55 c-14 76 -20 28 -7 -56 16 -104 25 -102
41 6 6 41 13 85 16 98 2 12 0 22 -5 22 -4 0 -14 -28 -21 -62z"/>
<path d="M5472 6608 c-18 -18 -14 -53 8 -73 25 -23 25 -33 -2 -62 -27 -29 -19
-40 12 -15 28 23 29 63 1 91 -11 11 -21 25 -21 30 0 17 22 24 32 10 7 -11 8
-10 6 5 -4 24 -20 30 -36 14z"/>
<path d="M5300 6584 c-15 -38 -12 -118 5 -140 15 -19 15 -19 30 0 22 29 24
128 3 154 -16 19 -28 15 -38 -14z m37 -71 c-5 -47 -12 -61 -24 -49 -10 10 -10
86 0 111 8 19 9 19 19 1 6 -10 8 -38 5 -63z"/>
<path d="M5370 6551 c0 -32 -3 -73 -6 -91 -6 -29 -5 -31 16 -28 26 3 40 28 17
28 -13 0 -15 12 -10 75 4 53 3 75 -6 75 -7 0 -11 -21 -11 -59z"/>
<path d="M5425 6523 c3 -48 8 -89 10 -92 3 -2 5 37 5 87 0 58 -4 92 -11 92 -7
0 -8 -29 -4 -87z"/>
<path d="M5450 6130 c-74 -9 -170 -33 -224 -55 -55 -23 -43 -26 20 -5 81 28
195 50 258 50 30 0 58 5 61 10 7 11 -18 11 -115 0z"/>
<path d="M5470 6079 c-22 -4 1 -7 65 -8 55 -1 111 -4 125 -7 18 -4 21 -3 10 4
-19 12 -154 20 -200 11z"/>
<path d="M5961 6667 c-1 -10 4 -37 10 -60 10 -41 12 -43 116 -91 l107 -49 54
29 c29 16 56 33 60 38 3 6 -21 -5 -53 -23 l-58 -33 -88 41 c-48 23 -92 41 -98
41 -14 0 -23 18 -37 75 -7 27 -13 42 -13 32z"/>
<path d="M6323 6575 c0 -22 2 -30 4 -17 2 12 2 30 0 40 -3 9 -5 -1 -4 -23z"/>
<path d="M6172 6561 c-18 -11 -12 -41 10 -55 27 -16 54 14 39 43 -12 22 -27
26 -49 12z m38 -32 c0 -20 -24 -26 -35 -9 -8 13 14 42 26 34 5 -3 9 -14 9 -25z"/>
<path d="M6137 6261 c-4 -63 -6 -116 -3 -118 6 -6 19 177 14 207 -2 14 -7 -26
-11 -89z"/>
<path d="M6143 6000 c0 -30 2 -43 4 -27 2 15 2 39 0 55 -2 15 -4 2 -4 -28z"/>
<path d="M6127 5873 c-16 -161 3 -398 42 -553 19 -74 10 12 -11 117 -20 91
-23 138 -23 306 1 108 0 197 -1 197 0 0 -4 -30 -7 -67z"/>
<path d="M4945 6532 c-6 -5 -44 -23 -85 -42 -41 -18 -79 -37 -85 -42 -5 -6 6
-3 25 5 118 51 160 71 160 79 0 10 -3 10 -15 0z"/>
<path d="M4722 6518 c-30 -30 0 -78 38 -58 15 8 20 19 18 38 -3 30 -35 41 -56
20z m48 -23 c0 -9 -7 -18 -16 -22 -18 -7 -39 11 -30 26 11 17 46 13 46 -4z"/>
<path d="M4635 6501 c19 -23 75 -66 75 -59 0 2 -21 21 -47 43 -27 21 -39 28
-28 16z"/>
<path d="M4803 6315 c0 -44 2 -61 4 -37 2 23 2 59 0 80 -2 20 -4 1 -4 -43z"/>
<path d="M4813 6185 c0 -22 2 -30 4 -17 2 12 2 30 0 40 -3 9 -5 -1 -4 -23z"/>
<path d="M5462 5570 c0 -19 2 -27 5 -17 2 9 2 25 0 35 -3 9 -5 1 -5 -18z"/>
<path d="M5487 5402 c-45 -49 4 -114 58 -78 14 9 25 21 25 26 0 6 9 10 21 10
11 0 18 4 14 10 -3 5 -12 7 -19 4 -7 -3 -21 6 -30 20 -19 30 -46 33 -69 8z
m58 -37 c0 -25 -4 -31 -27 -33 -19 -2 -28 2 -33 18 -8 27 12 52 39 48 16 -2
21 -10 21 -33z"/>
<path d="M5642 5210 c0 -19 2 -27 5 -17 2 9 2 25 0 35 -3 9 -5 1 -5 -18z"/>
<path d="M5612 5190 c0 -19 2 -27 5 -17 2 9 2 25 0 35 -3 9 -5 1 -5 -18z"/>
<path d="M5654 5075 c0 -49 1 -71 3 -48 2 23 2 64 0 90 -2 26 -3 8 -3 -42z"/>
<path d="M5624 5015 c0 -49 1 -71 3 -48 2 23 2 64 0 90 -2 26 -3 8 -3 -42z"/>
<path d="M5130 5273 c0 -14 141 -22 220 -13 l65 7 -81 1 c-45 1 -109 5 -143 8
-38 4 -61 3 -61 -3z"/>
<path d="M5000 5203 c-23 -58 -23 -61 0 -20 12 21 20 43 18 48 -2 6 -10 -7
-18 -28z"/>
<path d="M6310 5140 c8 -5 20 -10 25 -10 6 0 3 5 -5 10 -8 5 -19 10 -25 10 -5
0 -3 -5 5 -10z"/>
<path d="M6178 5133 c6 -2 18 -2 25 0 6 3 1 5 -13 5 -14 0 -19 -2 -12 -5z"/>
<path d="M6430 5106 c0 -2 7 -7 16 -10 8 -3 12 -2 9 4 -6 10 -25 14 -25 6z"/>
<path d="M6328 4993 c6 -2 18 -2 25 0 6 3 1 5 -13 5 -14 0 -19 -2 -12 -5z"/>
<path d="M6141 4961 c-9 -6 -4 -10 18 -13 33 -5 42 6 15 16 -19 7 -16 8 -33
-3z"/>
<path d="M4870 4939 c0 -5 5 -7 10 -4 6 3 10 8 10 11 0 2 -4 4 -10 4 -5 0 -10
-5 -10 -11z"/>
<path d="M3792 4734 c-28 -20 -30 -69 -3 -84 32 -17 60 -12 76 14 19 28 9 58
-25 76 -24 13 -21 13 -48 -6z m56 -60 c-19 -19 -45 -13 -55 12 -4 11 1 22 12
31 17 11 22 11 39 -7 19 -18 19 -21 4 -36z"/>
<path d="M3810 4700 c0 -5 5 -10 10 -10 6 0 10 5 10 10 0 6 -4 10 -10 10 -5 0
-10 -4 -10 -10z"/>
<path d="M2912 4718 c-18 -18 -15 -36 7 -48 15 -7 23 -6 35 6 9 8 16 19 16 23
0 11 -23 31 -35 31 -6 0 -16 -5 -23 -12z m36 -19 c-2 -6 -8 -10 -13 -10 -5 0
-11 4 -13 10 -2 6 4 11 13 11 9 0 15 -5 13 -11z"/>
<path d="M3032 4721 c-21 -13 -10 -46 17 -49 29 -4 43 15 30 40 -11 20 -26 23
-47 9z m36 -23 c-6 -18 -28 -21 -28 -4 0 9 7 16 16 16 9 0 14 -5 12 -12z"/>
<path d="M3506 4705 c-9 -24 4 -45 29 -45 24 0 42 30 30 50 -10 15 -52 12 -59
-5z m39 -25 c-5 -8 -11 -8 -17 -2 -6 6 -7 16 -3 22 5 8 11 8 17 2 6 -6 7 -16
3 -22z"/>
<path d="M4174 4685 c-4 -8 -3 -22 0 -31 8 -21 50 -14 54 10 6 31 -43 50 -54
21z m36 -13 c0 -13 -12 -22 -22 -16 -10 6 -1 24 13 24 5 0 9 -4 9 -8z"/>
<path d="M8263 4693 c9 -2 25 -2 35 0 9 3 1 5 -18 5 -19 0 -27 -2 -17 -5z"/>
<path d="M2107 4823 c-11 -10 -8 -20 8 -27 19 -7 45 3 45 16 0 6 -7 5 -15 -2
-9 -7 -19 -10 -22 -6 -4 4 -1 11 7 16 13 8 13 10 -1 10 -9 0 -19 -3 -22 -7z"/>
<path d="M2190 4809 c0 -5 9 -9 20 -9 11 0 20 4 20 8 0 4 -9 8 -20 9 -11 1
-20 -2 -20 -8z"/>
<path d="M407 4713 c-12 -12 -7 -41 8 -47 19 -7 46 20 39 39 -6 15 -35 20 -47
8z m33 -18 c0 -8 -7 -15 -15 -15 -16 0 -20 12 -8 23 11 12 23 8 23 -8z"/>
<path d="M827 4443 c-4 -3 -7 -30 -7 -60 l0 -53 40 0 40 0 0 60 0 60 -33 0
c-19 0 -37 -3 -40 -7z m61 -55 c-2 -36 -7 -44 -25 -46 -21 -3 -23 1 -23 42 0
43 2 46 26 46 23 0 25 -3 22 -42z"/>
<path d="M934 4436 c-3 -7 -4 -33 -2 -57 3 -42 5 -44 36 -47 l32 -3 0 60 0 61
-30 0 c-17 0 -33 -6 -36 -14z m54 -48 c-2 -31 -8 -44 -20 -46 -15 -3 -18 4
-18 42 0 40 3 46 21 46 18 0 20 -5 17 -42z"/>
<path d="M1047 4443 c-4 -3 -7 -31 -7 -60 l0 -54 83 3 c77 3 82 4 85 26 3 17
-2 25 -17 29 -15 4 -21 13 -21 34 0 29 -1 29 -58 29 -32 0 -62 -3 -65 -7z
m103 -43 c0 -23 4 -30 20 -30 11 0 20 -7 20 -15 0 -12 -14 -15 -65 -15 l-65 0
0 45 0 45 45 0 c43 0 45 -1 45 -30z"/>
<path d="M1287 4444 c-4 -4 -7 -18 -7 -31 0 -21 4 -23 58 -24 l57 0 -33 -17
c-19 -9 -31 -22 -30 -31 3 -13 18 -16 73 -16 l70 0 0 60 0 60 -90 3 c-50 1
-94 0 -98 -4z m181 -61 l3 -43 -55 0 c-31 0 -56 2 -56 4 0 2 16 13 36 25 19
12 32 26 29 31 -3 6 -33 10 -66 10 -34 0 -59 4 -59 10 0 7 30 10 83 8 l82 -3
3 -42z"/>
<path d="M1542 4443 c-21 -4 -23 -9 -20 -61 3 -57 3 -57 37 -60 19 -2 45 -1
58 3 22 5 24 10 21 63 l-3 57 -35 1 c-19 1 -45 0 -58 -3z m83 -58 c0 -40 0
-40 -42 -43 l-43 -3 0 46 0 46 43 -3 c42 -3 42 -3 42 -43z"/>
<path d="M2104 4363 l-61 -4 -6 -42 c-3 -23 -3 -44 -1 -47 3 -3 68 -7 145 -8
l139 -4 0 51 c0 49 -1 51 -27 51 -16 0 -50 2 -78 4 -27 2 -78 1 -111 -1z m204
-50 l3 -33 -130 0 -131 0 0 28 c0 16 3 32 7 36 4 3 61 5 127 4 l121 -3 3 -32z"/>
<path d="M7656 4511 c-15 -17 -15 -20 2 -41 13 -16 24 -21 39 -16 29 9 37 35
17 57 -22 24 -36 24 -58 0z m47 -16 c7 -18 -9 -29 -30 -21 -12 5 -13 9 -3 21
16 19 26 19 33 0z"/>
<path d="M7792 4518 c-19 -19 -14 -56 8 -63 21 -7 60 10 60 26 0 39 -42 63
-68 37z m44 -19 c9 -15 -11 -33 -30 -26 -9 4 -13 13 -10 22 7 17 30 20 40 4z"/>
<path d="M7411 4501 c-13 -24 8 -55 34 -50 23 5 40 32 32 53 -9 22 -54 20 -66
-3z m47 -14 c2 -10 -3 -17 -12 -17 -18 0 -29 16 -21 31 9 14 29 6 33 -14z"/>
<path d="M5600 4490 l-145 -5 -3 -29 c-2 -18 0 -26 7 -21 6 3 11 13 11 21 0
11 16 14 73 14 41 0 135 3 210 7 l137 6 0 -26 c0 -34 35 -56 57 -35 19 20 7
44 -30 63 -31 16 -40 16 -317 5z m326 -57 c-11 -11 -19 6 -11 24 8 17 8 17 12
0 3 -10 2 -21 -1 -24z"/>
<path d="M4866 4399 c-54 -4 -100 -10 -103 -12 -2 -3 -1 -17 3 -31 l6 -26 167
2 166 3 3 38 3 37 -73 -1 c-40 -1 -117 -5 -172 -10z m234 -27 c0 -17 -12 -20
-112 -25 -189 -11 -208 -10 -208 13 0 21 17 23 238 28 74 2 82 0 82 -16z"/>
<path d="M4150 4360 l0 -30 105 0 105 0 0 30 0 30 -105 0 -105 0 0 -30z m190
5 c0 -15 -12 -16 -147 -19 -49 -2 -37 23 14 27 114 9 133 7 133 -8z"/>
<path d="M5222 4368 c-22 -22 -14 -57 13 -64 45 -11 71 29 39 60 -19 19 -36
20 -52 4z m46 -25 c5 -17 -26 -29 -40 -15 -6 6 -7 15 -3 22 9 14 37 9 43 -7z"/>
<path d="M6080 4365 c-14 -17 -5 -51 16 -59 22 -8 54 11 54 32 0 38 -46 56
-70 27z m45 -15 c11 -17 -5 -32 -21 -19 -7 6 -11 15 -8 20 7 12 21 11 29 -1z"/>
<path d="M6215 4369 c-4 -5 -4 -21 -1 -35 5 -18 13 -24 35 -24 31 0 45 20 36
51 -7 21 -59 27 -70 8z m55 -24 c0 -8 -9 -15 -20 -15 -11 0 -20 7 -20 15 0 8
9 15 20 15 11 0 20 -7 20 -15z"/>
<path d="M4430 3980 c-27 -5 -21 -7 30 -6 67 0 176 -21 165 -33 -4 -3 -54 -11
-113 -18 l-107 -12 113 4 c124 5 160 15 124 34 -28 15 -132 41 -157 40 -11 -1
-36 -5 -55 -9z"/>
<path d="M5035 3928 c28 -12 84 -39 125 -59 41 -21 76 -37 77 -36 6 7 -74 52
-134 76 -84 35 -136 49 -68 19z"/>
<path d="M5945 3920 c-44 -23 -93 -52 -110 -67 l-30 -26 30 19 c17 10 71 39
120 66 109 58 102 64 -10 8z"/>
<path d="M6195 3943 c-106 -23 -186 -48 -236 -73 -32 -17 -59 -32 -59 -34 0
-2 33 10 73 26 39 17 122 43 182 59 61 15 99 27 85 27 -14 0 -34 -2 -45 -5z"/>
<path d="M5770 3630 c0 -3 24 -49 53 -101 28 -52 72 -141 97 -197 24 -56 46
-100 48 -98 6 7 -69 180 -118 271 -46 85 -79 137 -80 125z"/>
<path d="M5971 3215 c0 -5 6 -21 14 -35 8 -14 14 -20 14 -15 0 6 -6 21 -14 35
-8 14 -14 21 -14 15z"/>
<path d="M4242 2663 c8 -10 73 -90 145 -178 72 -88 172 -209 223 -270 50 -60
113 -138 139 -172 25 -35 50 -63 54 -63 4 0 -20 37 -55 82 -83 110 -507 618
-515 618 -3 0 1 -8 9 -17z"/>
<path d="M4755 1895 c4 -21 6 -100 6 -175 0 -102 2 -130 11 -116 15 27 5 303
-12 319 -10 10 -11 4 -5 -28z"/>
<path d="M6160 2838 c0 -3 41 -120 91 -259 50 -140 113 -319 141 -399 56 -162
92 -236 144 -295 40 -45 36 -32 -12 35 -44 62 -78 133 -102 212 -25 79 -106
307 -191 537 -55 148 -71 186 -71 169z"/>
<path d="M6741 2455 c-23 -14 -49 -25 -56 -25 -7 0 -15 -9 -18 -20 -3 -13 -10
-18 -21 -14 -11 4 -16 1 -16 -10 0 -18 -5 -19 -70 -20 -43 -1 -45 -2 -42 -28
2 -20 -2 -28 -12 -28 -9 0 -19 -8 -24 -17 -8 -16 -7 -134 1 -185 3 -20 17 -37
17 -21 0 6 41 13 95 17 131 9 289 66 335 120 18 22 33 20 21 -3 -13 -23 -160
-97 -231 -116 -30 -8 -80 -15 -110 -15 -30 0 -65 -3 -77 -6 -26 -7 -31 -34 -8
-34 9 0 20 -10 26 -22 7 -17 20 -24 45 -26 24 -1 43 -11 58 -29 18 -21 27 -25
37 -17 26 21 92 25 111 7 23 -20 28 -15 35 37 5 32 14 47 40 67 18 14 33 33
32 42 -3 32 2 41 29 55 24 12 28 21 30 63 2 42 -2 53 -23 71 -13 12 -31 19
-40 16 -16 -7 -20 6 -7 22 4 5 -7 -6 -26 -23 -55 -55 -143 -91 -285 -118 -130
-25 -112 -2 40 49 175 60 263 107 263 141 0 14 5 25 11 25 6 0 9 -7 6 -15 -4
-8 -2 -17 3 -20 6 -4 10 -16 10 -28 0 -16 3 -18 12 -9 9 9 9 18 1 34 -6 13
-14 31 -17 40 -4 14 -13 16 -56 11 -40 -5 -50 -3 -50 9 0 8 -6 22 -12 31 -12
15 -16 15 -57 -8z m49 -19 c0 -26 16 -36 63 -36 30 -1 27 -4 -33 -34 -68 -35
-245 -102 -299 -112 -26 -6 -31 -4 -31 14 0 11 8 22 20 25 15 4 20 14 20 37 0
27 3 31 18 25 37 -15 73 -11 88 9 8 11 14 15 14 8 0 -6 5 -12 10 -12 6 0 10 7
10 15 0 8 4 15 8 15 5 0 19 9 32 20 13 11 29 20 35 20 7 0 15 7 19 15 9 23 26
18 26 -9z m85 -66 c-12 -20 -129 -72 -257 -116 -139 -48 -142 -48 -133 -35 3
5 60 28 128 50 67 23 151 56 187 75 70 37 85 42 75 26z m-4 -94 c-32 -33 -105
-63 -239 -97 -120 -31 -142 -34 -142 -21 0 4 48 17 108 28 129 26 214 57 256
94 37 34 49 30 17 -4z m71 -30 c-11 -6 -38 -24 -60 -40 -23 -15 -71 -39 -108
-52 -76 -28 -261 -51 -277 -35 -13 13 -15 12 145 50 146 35 216 67 249 112
l22 32 24 -28 c24 -27 24 -28 5 -39z m-36 -91 c-14 -13 -26 -31 -26 -39 0 -9
-30 -29 -72 -50 -58 -27 -90 -36 -154 -40 -79 -6 -82 -5 -98 19 -9 13 -16 26
-16 29 0 2 33 4 73 4 83 0 177 27 252 71 61 37 76 39 41 6z m-74 -107 c-7 -7
-12 -25 -12 -40 0 -25 -2 -27 -19 -19 -13 7 -37 7 -75 0 -31 -5 -61 -7 -66 -4
-21 13 -8 22 41 28 28 4 67 15 87 25 44 23 61 27 44 10z"/>
<path d="M7014 1915 c-63 -32 -111 -71 -101 -82 12 -11 98 -9 120 3 12 7 -3 9
-50 6 -38 -2 -65 -2 -62 2 3 3 41 26 85 51 84 48 90 61 8 20z"/>
<path d="M6680 1535 c0 -17 62 -244 92 -335 17 -52 53 -142 80 -200 27 -58 63
-154 79 -215 17 -60 35 -115 42 -123 19 -24 204 -152 218 -152 7 0 -27 29 -76
65 -156 114 -143 98 -176 220 -17 61 -51 155 -75 210 -67 147 -91 213 -135
380 -36 134 -49 175 -49 150z"/>
<path d="M7254 760 c-47 -30 -116 -40 -184 -26 -64 13 -73 3 -12 -14 75 -20
156 -7 208 36 35 29 30 30 -12 4z"/>
<path d="M7415 688 c-26 -42 -68 -66 -136 -77 l-54 -9 48 -1 c77 -2 144 38
162 97 9 30 4 27 -20 -10z"/>
<path d="M7040 510 c36 -28 98 -44 124 -31 18 8 16 10 -17 10 -21 1 -55 10
-77 21 -50 25 -62 25 -30 0z"/>
<path d="M4120 2502 c0 -5 14 -12 30 -14 33 -5 28 6 -7 17 -13 3 -23 2 -23 -3z"/>
<path d="M4458 2037 c-20 -34 -42 -80 -49 -102 -18 -54 -27 -65 -74 -87 -30
-14 -33 -17 -12 -13 38 8 35 -16 -8 -63 -19 -22 -32 -42 -29 -45 3 -3 -2 -31
-11 -62 -9 -32 -14 -59 -12 -62 3 -2 12 27 22 64 12 46 26 76 45 95 16 14 26
28 23 31 -6 7 25 67 36 67 4 0 13 19 20 43 7 23 30 75 52 116 49 90 46 104 -3
18z"/>
<path d="M3935 1801 c22 -24 63 -56 90 -73 l50 -30 -40 7 c-57 9 -115 37 -161
76 l-39 33 30 -33 c49 -54 108 -83 180 -89 36 -2 65 -2 65 1 0 3 -27 20 -60
38 -34 18 -82 50 -108 72 l-47 41 40 -43z"/>
<path d="M4246 1564 c-4 -14 -5 -28 -3 -31 3 -2 8 8 11 23 4 14 5 28 3 31 -3
2 -8 -8 -11 -23z"/>
<path d="M4191 1382 c-55 -176 -107 -305 -181 -456 -33 -67 -65 -145 -70 -175
-6 -30 -12 -56 -14 -59 -3 -2 -56 -26 -118 -53 -62 -27 -119 -57 -126 -66 -21
-29 18 -53 82 -52 l51 2 -46 6 c-48 7 -86 29 -72 41 4 4 60 31 125 59 l116 53
16 71 c9 39 36 107 60 152 24 45 69 144 99 221 54 138 133 381 125 389 -2 2
-23 -58 -47 -133z"/>
<path d="M3517 799 c19 -32 91 -116 76 -89 -13 24 -84 120 -90 120 -2 0 4 -14
14 -31z"/>
<path d="M3650 759 c32 -9 110 -10 132 -1 10 4 -22 7 -70 8 -50 0 -76 -3 -62
-7z"/>
<path d="M3931 654 c0 -11 3 -14 6 -6 3 7 2 16 -1 19 -3 4 -6 -2 -5 -13z"/>
<path d="M3485 619 c46 -31 108 -62 100 -50 -8 14 -106 71 -120 71 -5 0 4 -9
20 -21z"/>
<path d="M3405 410 c-4 -6 -3 -16 3 -22 6 -6 12 -6 17 2 4 6 3 16 -3 22 -6 6
-12 6 -17 -2z"/>
<path d="M3527 273 c4 -11 3 -14 -5 -9 -17 10 -15 1 13 -54 18 -35 31 -50 45
-50 31 0 25 31 -16 83 -39 50 -47 57 -37 30z m53 -85 c0 -10 -2 -18 -5 -18 -6
0 -45 76 -45 87 0 16 49 -53 50 -69z"/>
<path d="M7414 129 c-19 -22 -19 -22 3 -10 24 12 39 31 25 31 -5 0 -17 -10
-28 -21z"/>
<path d="M0 9752 c0 -10 35 -52 79 -95 l78 -77 -78 -46 c-44 -25 -79 -53 -79
-61 0 -10 6 -13 17 -9 31 12 183 107 183 115 0 4 -45 49 -100 100 -73 67 -100
87 -100 73z"/>
<path d="M150 9385 c-98 -58 -146 -91 -148 -105 -3 -15 29 -1 153 71 l156 91
192 -185 c105 -101 263 -251 350 -333 l157 -149 0 -58 c0 -32 -5 -133 -10
-225 -6 -92 -28 -502 -50 -911 -21 -409 -41 -745 -42 -746 -3 -3 -788 87 -871
100 -28 4 -37 2 -37 -9 0 -9 13 -17 32 -20 82 -14 900 -108 903 -104 2 2 20
310 40 683 19 374 42 795 50 935 8 140 15 280 15 310 l0 56 -356 339 c-195
187 -363 341 -372 342 -9 2 -82 -35 -162 -82z"/>
<path d="M9298 7585 c-164 -339 -298 -621 -298 -628 0 -7 93 -112 206 -233
113 -120 247 -264 297 -320 71 -78 93 -97 95 -82 2 13 -26 52 -85 116 -96 106
-358 387 -435 468 l-49 51 246 510 247 511 39 15 c24 9 39 22 39 32 0 10 -5
15 -12 12 -51 -21 -51 -22 -18 42 19 39 30 74 28 92 -2 24 -68 -104 -300 -586z"/>
<path d="M1455 6989 c-258 -196 -276 -211 -272 -215 7 -7 239 -35 252 -31 11
5 160 336 153 342 -2 1 -61 -42 -133 -96z m53 -27 c-7 -16 -29 -65 -48 -110
l-34 -83 -58 7 c-133 15 -133 7 10 116 70 53 130 97 135 98 4 0 1 -13 -5 -28z"/>
<path d="M1076 6619 c-3 -19 -12 -182 -21 -364 -8 -181 -17 -347 -19 -369 -3
-21 -1 -35 3 -30 15 16 341 737 341 753 0 4 -51 13 -112 19 -62 7 -130 15
-150 18 -36 6 -37 5 -42 -27z m169 -19 c49 -6 91 -13 93 -14 4 -5 -248 -560
-260 -571 -7 -7 -8 10 -4 55 3 36 11 169 17 295 6 127 12 236 15 243 2 7 13
10 26 8 13 -3 63 -10 113 -16z"/>
<path d="M9531 4418 c-80 -102 -85 -118 -40 -118 63 0 109 12 109 27 0 12 -9
14 -45 9 -25 -4 -45 -4 -45 -1 0 4 21 33 46 65 28 36 44 66 42 79 -2 16 -16 3
-67 -61z"/>
<path d="M6778 3918 c-30 -35 -108 -130 -173 -213 -65 -82 -182 -229 -258
-325 -170 -212 -161 -200 -155 -200 16 0 653 788 645 796 -3 3 -29 -23 -59
-58z"/>
<path d="M9415 3244 c-99 -88 -322 -285 -495 -439 -173 -153 -349 -309 -390
-346 -41 -37 -145 -129 -230 -205 -85 -76 -154 -143 -152 -148 3 -10 150 -163
803 -840 217 -226 451 -471 520 -544 101 -109 125 -130 127 -112 4 22 -22 50
-658 710 -671 697 -750 779 -750 787 0 8 353 324 1115 997 148 131 276 244
283 251 8 7 12 21 10 31 -2 14 -45 -19 -183 -142z"/>
<path d="M5274 1684 c-3 -25 -2 -92 3 -147 l10 -102 1 148 c1 81 0 147 -2 147
-3 0 -8 -21 -12 -46z"/>
<path d="M4992 1668 c-32 -32 1 -79 44 -59 35 16 31 65 -6 69 -14 2 -31 -3
-38 -10z m45 -14 c8 -21 -13 -42 -28 -27 -13 13 -5 43 11 43 6 0 13 -7 17 -16z"/>
<path d="M3634 349 c-10 -17 13 -36 27 -22 12 12 4 33 -11 33 -5 0 -12 -5 -16
-11z"/>
<path d="M7255 320 c-4 -6 -3 -16 3 -22 6 -6 12 -6 17 2 4 6 3 16 -3 22 -6 6
-12 6 -17 -2z"/>
</g>
</svg>
